G04 #@! TF.GenerationSoftware,KiCad,Pcbnew,5.1.10-5.1.10*
G04 #@! TF.CreationDate,2021-07-11T16:52:34+05:30*
G04 #@! TF.ProjectId,Soyuz,536f7975-7a2e-46b6-9963-61645f706362,rev?*
G04 #@! TF.SameCoordinates,Original*
G04 #@! TF.FileFunction,Copper,L1,Top*
G04 #@! TF.FilePolarity,Positive*
%FSLAX46Y46*%
G04 Gerber Fmt 4.6, Leading zero omitted, Abs format (unit mm)*
G04 Created by KiCad (PCBNEW 5.1.10-5.1.10) date 2021-07-11 16:52:34*
%MOMM*%
%LPD*%
G01*
G04 APERTURE LIST*
G04 #@! TA.AperFunction,ComponentPad*
%ADD10C,1.600000*%
G04 #@! TD*
G04 #@! TA.AperFunction,ComponentPad*
%ADD11R,1.600000X1.600000*%
G04 #@! TD*
G04 #@! TA.AperFunction,ComponentPad*
%ADD12C,2.250000*%
G04 #@! TD*
G04 #@! TA.AperFunction,ComponentPad*
%ADD13C,1.800000*%
G04 #@! TD*
G04 #@! TA.AperFunction,ComponentPad*
%ADD14O,1.600000X1.600000*%
G04 #@! TD*
G04 #@! TA.AperFunction,Conductor*
%ADD15C,0.250000*%
G04 #@! TD*
G04 #@! TA.AperFunction,Conductor*
%ADD16C,0.381000*%
G04 #@! TD*
G04 APERTURE END LIST*
D10*
X51117500Y-33655000D03*
X51117500Y-36195000D03*
X51117500Y-38735000D03*
X51117500Y-41275000D03*
X51117500Y-43815000D03*
X51117500Y-46355000D03*
X51117500Y-48895000D03*
X51117500Y-51435000D03*
X51117500Y-53975000D03*
X51117500Y-56515000D03*
X51117500Y-59055000D03*
X51117500Y-61595000D03*
X66357500Y-61595000D03*
X66357500Y-59055000D03*
X66357500Y-56515000D03*
X66357500Y-53975000D03*
X66357500Y-51435000D03*
X66357500Y-48895000D03*
X66357500Y-46355000D03*
X66357500Y-43815000D03*
X66357500Y-41275000D03*
X66357500Y-38735000D03*
X66357500Y-36195000D03*
D11*
X66357500Y-33655000D03*
D12*
X37187500Y-35687500D03*
G04 #@! TA.AperFunction,ComponentPad*
G36*
G01*
X35126188Y-37984850D02*
X35126183Y-37984845D01*
G75*
G02*
X35040155Y-36396183I751317J837345D01*
G01*
X36350157Y-34936183D01*
G75*
G02*
X37938819Y-34850155I837345J-751317D01*
G01*
X37938819Y-34850155D01*
G75*
G02*
X38024847Y-36438817I-751317J-837345D01*
G01*
X36714845Y-37898817D01*
G75*
G02*
X35126183Y-37984845I-837345J751317D01*
G01*
G37*
G04 #@! TD.AperFunction*
X42227500Y-34607500D03*
G04 #@! TA.AperFunction,ComponentPad*
G36*
G01*
X42110983Y-36309895D02*
X42110097Y-36309834D01*
G75*
G02*
X41065166Y-35110097I77403J1122334D01*
G01*
X41105166Y-34530097D01*
G75*
G02*
X42304903Y-33485166I1122334J-77403D01*
G01*
X42304903Y-33485166D01*
G75*
G02*
X43349834Y-34684903I-77403J-1122334D01*
G01*
X43309834Y-35264903D01*
G75*
G02*
X42110097Y-36309834I-1122334J77403D01*
G01*
G37*
G04 #@! TD.AperFunction*
X56237500Y-35687500D03*
G04 #@! TA.AperFunction,ComponentPad*
G36*
G01*
X54176188Y-37984850D02*
X54176183Y-37984845D01*
G75*
G02*
X54090155Y-36396183I751317J837345D01*
G01*
X55400157Y-34936183D01*
G75*
G02*
X56988819Y-34850155I837345J-751317D01*
G01*
X56988819Y-34850155D01*
G75*
G02*
X57074847Y-36438817I-751317J-837345D01*
G01*
X55764845Y-37898817D01*
G75*
G02*
X54176183Y-37984845I-837345J751317D01*
G01*
G37*
G04 #@! TD.AperFunction*
X61277500Y-34607500D03*
G04 #@! TA.AperFunction,ComponentPad*
G36*
G01*
X61160983Y-36309895D02*
X61160097Y-36309834D01*
G75*
G02*
X60115166Y-35110097I77403J1122334D01*
G01*
X60155166Y-34530097D01*
G75*
G02*
X61354903Y-33485166I1122334J-77403D01*
G01*
X61354903Y-33485166D01*
G75*
G02*
X62399834Y-34684903I-77403J-1122334D01*
G01*
X62359834Y-35264903D01*
G75*
G02*
X61160097Y-36309834I-1122334J77403D01*
G01*
G37*
G04 #@! TD.AperFunction*
X75287500Y-35687500D03*
G04 #@! TA.AperFunction,ComponentPad*
G36*
G01*
X73226188Y-37984850D02*
X73226183Y-37984845D01*
G75*
G02*
X73140155Y-36396183I751317J837345D01*
G01*
X74450157Y-34936183D01*
G75*
G02*
X76038819Y-34850155I837345J-751317D01*
G01*
X76038819Y-34850155D01*
G75*
G02*
X76124847Y-36438817I-751317J-837345D01*
G01*
X74814845Y-37898817D01*
G75*
G02*
X73226183Y-37984845I-837345J751317D01*
G01*
G37*
G04 #@! TD.AperFunction*
X80327500Y-34607500D03*
G04 #@! TA.AperFunction,ComponentPad*
G36*
G01*
X80210983Y-36309895D02*
X80210097Y-36309834D01*
G75*
G02*
X79165166Y-35110097I77403J1122334D01*
G01*
X79205166Y-34530097D01*
G75*
G02*
X80404903Y-33485166I1122334J-77403D01*
G01*
X80404903Y-33485166D01*
G75*
G02*
X81449834Y-34684903I-77403J-1122334D01*
G01*
X81409834Y-35264903D01*
G75*
G02*
X80210097Y-36309834I-1122334J77403D01*
G01*
G37*
G04 #@! TD.AperFunction*
X94337500Y-35687500D03*
G04 #@! TA.AperFunction,ComponentPad*
G36*
G01*
X92276188Y-37984850D02*
X92276183Y-37984845D01*
G75*
G02*
X92190155Y-36396183I751317J837345D01*
G01*
X93500157Y-34936183D01*
G75*
G02*
X95088819Y-34850155I837345J-751317D01*
G01*
X95088819Y-34850155D01*
G75*
G02*
X95174847Y-36438817I-751317J-837345D01*
G01*
X93864845Y-37898817D01*
G75*
G02*
X92276183Y-37984845I-837345J751317D01*
G01*
G37*
G04 #@! TD.AperFunction*
X99377500Y-34607500D03*
G04 #@! TA.AperFunction,ComponentPad*
G36*
G01*
X99260983Y-36309895D02*
X99260097Y-36309834D01*
G75*
G02*
X98215166Y-35110097I77403J1122334D01*
G01*
X98255166Y-34530097D01*
G75*
G02*
X99454903Y-33485166I1122334J-77403D01*
G01*
X99454903Y-33485166D01*
G75*
G02*
X100499834Y-34684903I-77403J-1122334D01*
G01*
X100459834Y-35264903D01*
G75*
G02*
X99260097Y-36309834I-1122334J77403D01*
G01*
G37*
G04 #@! TD.AperFunction*
X37187500Y-54737500D03*
G04 #@! TA.AperFunction,ComponentPad*
G36*
G01*
X35126188Y-57034850D02*
X35126183Y-57034845D01*
G75*
G02*
X35040155Y-55446183I751317J837345D01*
G01*
X36350157Y-53986183D01*
G75*
G02*
X37938819Y-53900155I837345J-751317D01*
G01*
X37938819Y-53900155D01*
G75*
G02*
X38024847Y-55488817I-751317J-837345D01*
G01*
X36714845Y-56948817D01*
G75*
G02*
X35126183Y-57034845I-837345J751317D01*
G01*
G37*
G04 #@! TD.AperFunction*
X42227500Y-53657500D03*
G04 #@! TA.AperFunction,ComponentPad*
G36*
G01*
X42110983Y-55359895D02*
X42110097Y-55359834D01*
G75*
G02*
X41065166Y-54160097I77403J1122334D01*
G01*
X41105166Y-53580097D01*
G75*
G02*
X42304903Y-52535166I1122334J-77403D01*
G01*
X42304903Y-52535166D01*
G75*
G02*
X43349834Y-53734903I-77403J-1122334D01*
G01*
X43309834Y-54314903D01*
G75*
G02*
X42110097Y-55359834I-1122334J77403D01*
G01*
G37*
G04 #@! TD.AperFunction*
X56237500Y-54737500D03*
G04 #@! TA.AperFunction,ComponentPad*
G36*
G01*
X54176188Y-57034850D02*
X54176183Y-57034845D01*
G75*
G02*
X54090155Y-55446183I751317J837345D01*
G01*
X55400157Y-53986183D01*
G75*
G02*
X56988819Y-53900155I837345J-751317D01*
G01*
X56988819Y-53900155D01*
G75*
G02*
X57074847Y-55488817I-751317J-837345D01*
G01*
X55764845Y-56948817D01*
G75*
G02*
X54176183Y-57034845I-837345J751317D01*
G01*
G37*
G04 #@! TD.AperFunction*
X61277500Y-53657500D03*
G04 #@! TA.AperFunction,ComponentPad*
G36*
G01*
X61160983Y-55359895D02*
X61160097Y-55359834D01*
G75*
G02*
X60115166Y-54160097I77403J1122334D01*
G01*
X60155166Y-53580097D01*
G75*
G02*
X61354903Y-52535166I1122334J-77403D01*
G01*
X61354903Y-52535166D01*
G75*
G02*
X62399834Y-53734903I-77403J-1122334D01*
G01*
X62359834Y-54314903D01*
G75*
G02*
X61160097Y-55359834I-1122334J77403D01*
G01*
G37*
G04 #@! TD.AperFunction*
X75287500Y-54737500D03*
G04 #@! TA.AperFunction,ComponentPad*
G36*
G01*
X73226188Y-57034850D02*
X73226183Y-57034845D01*
G75*
G02*
X73140155Y-55446183I751317J837345D01*
G01*
X74450157Y-53986183D01*
G75*
G02*
X76038819Y-53900155I837345J-751317D01*
G01*
X76038819Y-53900155D01*
G75*
G02*
X76124847Y-55488817I-751317J-837345D01*
G01*
X74814845Y-56948817D01*
G75*
G02*
X73226183Y-57034845I-837345J751317D01*
G01*
G37*
G04 #@! TD.AperFunction*
X80327500Y-53657500D03*
G04 #@! TA.AperFunction,ComponentPad*
G36*
G01*
X80210983Y-55359895D02*
X80210097Y-55359834D01*
G75*
G02*
X79165166Y-54160097I77403J1122334D01*
G01*
X79205166Y-53580097D01*
G75*
G02*
X80404903Y-52535166I1122334J-77403D01*
G01*
X80404903Y-52535166D01*
G75*
G02*
X81449834Y-53734903I-77403J-1122334D01*
G01*
X81409834Y-54314903D01*
G75*
G02*
X80210097Y-55359834I-1122334J77403D01*
G01*
G37*
G04 #@! TD.AperFunction*
X94337500Y-54737500D03*
G04 #@! TA.AperFunction,ComponentPad*
G36*
G01*
X92276188Y-57034850D02*
X92276183Y-57034845D01*
G75*
G02*
X92190155Y-55446183I751317J837345D01*
G01*
X93500157Y-53986183D01*
G75*
G02*
X95088819Y-53900155I837345J-751317D01*
G01*
X95088819Y-53900155D01*
G75*
G02*
X95174847Y-55488817I-751317J-837345D01*
G01*
X93864845Y-56948817D01*
G75*
G02*
X92276183Y-57034845I-837345J751317D01*
G01*
G37*
G04 #@! TD.AperFunction*
X99377500Y-53657500D03*
G04 #@! TA.AperFunction,ComponentPad*
G36*
G01*
X99260983Y-55359895D02*
X99260097Y-55359834D01*
G75*
G02*
X98215166Y-54160097I77403J1122334D01*
G01*
X98255166Y-53580097D01*
G75*
G02*
X99454903Y-52535166I1122334J-77403D01*
G01*
X99454903Y-52535166D01*
G75*
G02*
X100499834Y-53734903I-77403J-1122334D01*
G01*
X100459834Y-54314903D01*
G75*
G02*
X99260097Y-55359834I-1122334J77403D01*
G01*
G37*
G04 #@! TD.AperFunction*
X92837500Y-70762500D03*
G04 #@! TA.AperFunction,ComponentPad*
G36*
G01*
X95134850Y-72823812D02*
X95134845Y-72823817D01*
G75*
G02*
X93546183Y-72909845I-837345J751317D01*
G01*
X92086183Y-71599843D01*
G75*
G02*
X92000155Y-70011181I751317J837345D01*
G01*
X92000155Y-70011181D01*
G75*
G02*
X93588817Y-69925153I837345J-751317D01*
G01*
X95048817Y-71235155D01*
G75*
G02*
X95134845Y-72823817I-751317J-837345D01*
G01*
G37*
G04 #@! TD.AperFunction*
X91757500Y-65722500D03*
G04 #@! TA.AperFunction,ComponentPad*
G36*
G01*
X93459895Y-65839017D02*
X93459834Y-65839903D01*
G75*
G02*
X92260097Y-66884834I-1122334J77403D01*
G01*
X91680097Y-66844834D01*
G75*
G02*
X90635166Y-65645097I77403J1122334D01*
G01*
X90635166Y-65645097D01*
G75*
G02*
X91834903Y-64600166I1122334J-77403D01*
G01*
X92414903Y-64640166D01*
G75*
G02*
X93459834Y-65839903I-77403J-1122334D01*
G01*
G37*
G04 #@! TD.AperFunction*
X37187500Y-73787500D03*
G04 #@! TA.AperFunction,ComponentPad*
G36*
G01*
X35126188Y-76084850D02*
X35126183Y-76084845D01*
G75*
G02*
X35040155Y-74496183I751317J837345D01*
G01*
X36350157Y-73036183D01*
G75*
G02*
X37938819Y-72950155I837345J-751317D01*
G01*
X37938819Y-72950155D01*
G75*
G02*
X38024847Y-74538817I-751317J-837345D01*
G01*
X36714845Y-75998817D01*
G75*
G02*
X35126183Y-76084845I-837345J751317D01*
G01*
G37*
G04 #@! TD.AperFunction*
X42227500Y-72707500D03*
G04 #@! TA.AperFunction,ComponentPad*
G36*
G01*
X42110983Y-74409895D02*
X42110097Y-74409834D01*
G75*
G02*
X41065166Y-73210097I77403J1122334D01*
G01*
X41105166Y-72630097D01*
G75*
G02*
X42304903Y-71585166I1122334J-77403D01*
G01*
X42304903Y-71585166D01*
G75*
G02*
X43349834Y-72784903I-77403J-1122334D01*
G01*
X43309834Y-73364903D01*
G75*
G02*
X42110097Y-74409834I-1122334J77403D01*
G01*
G37*
G04 #@! TD.AperFunction*
X56237500Y-73787500D03*
G04 #@! TA.AperFunction,ComponentPad*
G36*
G01*
X54176188Y-76084850D02*
X54176183Y-76084845D01*
G75*
G02*
X54090155Y-74496183I751317J837345D01*
G01*
X55400157Y-73036183D01*
G75*
G02*
X56988819Y-72950155I837345J-751317D01*
G01*
X56988819Y-72950155D01*
G75*
G02*
X57074847Y-74538817I-751317J-837345D01*
G01*
X55764845Y-75998817D01*
G75*
G02*
X54176183Y-76084845I-837345J751317D01*
G01*
G37*
G04 #@! TD.AperFunction*
X61277500Y-72707500D03*
G04 #@! TA.AperFunction,ComponentPad*
G36*
G01*
X61160983Y-74409895D02*
X61160097Y-74409834D01*
G75*
G02*
X60115166Y-73210097I77403J1122334D01*
G01*
X60155166Y-72630097D01*
G75*
G02*
X61354903Y-71585166I1122334J-77403D01*
G01*
X61354903Y-71585166D01*
G75*
G02*
X62399834Y-72784903I-77403J-1122334D01*
G01*
X62359834Y-73364903D01*
G75*
G02*
X61160097Y-74409834I-1122334J77403D01*
G01*
G37*
G04 #@! TD.AperFunction*
X75287500Y-73787500D03*
G04 #@! TA.AperFunction,ComponentPad*
G36*
G01*
X73226188Y-76084850D02*
X73226183Y-76084845D01*
G75*
G02*
X73140155Y-74496183I751317J837345D01*
G01*
X74450157Y-73036183D01*
G75*
G02*
X76038819Y-72950155I837345J-751317D01*
G01*
X76038819Y-72950155D01*
G75*
G02*
X76124847Y-74538817I-751317J-837345D01*
G01*
X74814845Y-75998817D01*
G75*
G02*
X73226183Y-76084845I-837345J751317D01*
G01*
G37*
G04 #@! TD.AperFunction*
X80327500Y-72707500D03*
G04 #@! TA.AperFunction,ComponentPad*
G36*
G01*
X80210983Y-74409895D02*
X80210097Y-74409834D01*
G75*
G02*
X79165166Y-73210097I77403J1122334D01*
G01*
X79205166Y-72630097D01*
G75*
G02*
X80404903Y-71585166I1122334J-77403D01*
G01*
X80404903Y-71585166D01*
G75*
G02*
X81449834Y-72784903I-77403J-1122334D01*
G01*
X81409834Y-73364903D01*
G75*
G02*
X80210097Y-74409834I-1122334J77403D01*
G01*
G37*
G04 #@! TD.AperFunction*
X94337500Y-73787500D03*
G04 #@! TA.AperFunction,ComponentPad*
G36*
G01*
X92276188Y-76084850D02*
X92276183Y-76084845D01*
G75*
G02*
X92190155Y-74496183I751317J837345D01*
G01*
X93500157Y-73036183D01*
G75*
G02*
X95088819Y-72950155I837345J-751317D01*
G01*
X95088819Y-72950155D01*
G75*
G02*
X95174847Y-74538817I-751317J-837345D01*
G01*
X93864845Y-75998817D01*
G75*
G02*
X92276183Y-76084845I-837345J751317D01*
G01*
G37*
G04 #@! TD.AperFunction*
X99377500Y-72707500D03*
G04 #@! TA.AperFunction,ComponentPad*
G36*
G01*
X99260983Y-74409895D02*
X99260097Y-74409834D01*
G75*
G02*
X98215166Y-73210097I77403J1122334D01*
G01*
X98255166Y-72630097D01*
G75*
G02*
X99454903Y-71585166I1122334J-77403D01*
G01*
X99454903Y-71585166D01*
G75*
G02*
X100499834Y-72784903I-77403J-1122334D01*
G01*
X100459834Y-73364903D01*
G75*
G02*
X99260097Y-74409834I-1122334J77403D01*
G01*
G37*
G04 #@! TD.AperFunction*
X37187500Y-92837500D03*
G04 #@! TA.AperFunction,ComponentPad*
G36*
G01*
X35126188Y-95134850D02*
X35126183Y-95134845D01*
G75*
G02*
X35040155Y-93546183I751317J837345D01*
G01*
X36350157Y-92086183D01*
G75*
G02*
X37938819Y-92000155I837345J-751317D01*
G01*
X37938819Y-92000155D01*
G75*
G02*
X38024847Y-93588817I-751317J-837345D01*
G01*
X36714845Y-95048817D01*
G75*
G02*
X35126183Y-95134845I-837345J751317D01*
G01*
G37*
G04 #@! TD.AperFunction*
X42227500Y-91757500D03*
G04 #@! TA.AperFunction,ComponentPad*
G36*
G01*
X42110983Y-93459895D02*
X42110097Y-93459834D01*
G75*
G02*
X41065166Y-92260097I77403J1122334D01*
G01*
X41105166Y-91680097D01*
G75*
G02*
X42304903Y-90635166I1122334J-77403D01*
G01*
X42304903Y-90635166D01*
G75*
G02*
X43349834Y-91834903I-77403J-1122334D01*
G01*
X43309834Y-92414903D01*
G75*
G02*
X42110097Y-93459834I-1122334J77403D01*
G01*
G37*
G04 #@! TD.AperFunction*
X56237500Y-92837500D03*
G04 #@! TA.AperFunction,ComponentPad*
G36*
G01*
X54176188Y-95134850D02*
X54176183Y-95134845D01*
G75*
G02*
X54090155Y-93546183I751317J837345D01*
G01*
X55400157Y-92086183D01*
G75*
G02*
X56988819Y-92000155I837345J-751317D01*
G01*
X56988819Y-92000155D01*
G75*
G02*
X57074847Y-93588817I-751317J-837345D01*
G01*
X55764845Y-95048817D01*
G75*
G02*
X54176183Y-95134845I-837345J751317D01*
G01*
G37*
G04 #@! TD.AperFunction*
X61277500Y-91757500D03*
G04 #@! TA.AperFunction,ComponentPad*
G36*
G01*
X61160983Y-93459895D02*
X61160097Y-93459834D01*
G75*
G02*
X60115166Y-92260097I77403J1122334D01*
G01*
X60155166Y-91680097D01*
G75*
G02*
X61354903Y-90635166I1122334J-77403D01*
G01*
X61354903Y-90635166D01*
G75*
G02*
X62399834Y-91834903I-77403J-1122334D01*
G01*
X62359834Y-92414903D01*
G75*
G02*
X61160097Y-93459834I-1122334J77403D01*
G01*
G37*
G04 #@! TD.AperFunction*
X75287500Y-92837500D03*
G04 #@! TA.AperFunction,ComponentPad*
G36*
G01*
X73226188Y-95134850D02*
X73226183Y-95134845D01*
G75*
G02*
X73140155Y-93546183I751317J837345D01*
G01*
X74450157Y-92086183D01*
G75*
G02*
X76038819Y-92000155I837345J-751317D01*
G01*
X76038819Y-92000155D01*
G75*
G02*
X76124847Y-93588817I-751317J-837345D01*
G01*
X74814845Y-95048817D01*
G75*
G02*
X73226183Y-95134845I-837345J751317D01*
G01*
G37*
G04 #@! TD.AperFunction*
X80327500Y-91757500D03*
G04 #@! TA.AperFunction,ComponentPad*
G36*
G01*
X80210983Y-93459895D02*
X80210097Y-93459834D01*
G75*
G02*
X79165166Y-92260097I77403J1122334D01*
G01*
X79205166Y-91680097D01*
G75*
G02*
X80404903Y-90635166I1122334J-77403D01*
G01*
X80404903Y-90635166D01*
G75*
G02*
X81449834Y-91834903I-77403J-1122334D01*
G01*
X81409834Y-92414903D01*
G75*
G02*
X80210097Y-93459834I-1122334J77403D01*
G01*
G37*
G04 #@! TD.AperFunction*
X94337500Y-92837500D03*
G04 #@! TA.AperFunction,ComponentPad*
G36*
G01*
X92276188Y-95134850D02*
X92276183Y-95134845D01*
G75*
G02*
X92190155Y-93546183I751317J837345D01*
G01*
X93500157Y-92086183D01*
G75*
G02*
X95088819Y-92000155I837345J-751317D01*
G01*
X95088819Y-92000155D01*
G75*
G02*
X95174847Y-93588817I-751317J-837345D01*
G01*
X93864845Y-95048817D01*
G75*
G02*
X92276183Y-95134845I-837345J751317D01*
G01*
G37*
G04 #@! TD.AperFunction*
X99377500Y-91757500D03*
G04 #@! TA.AperFunction,ComponentPad*
G36*
G01*
X99260983Y-93459895D02*
X99260097Y-93459834D01*
G75*
G02*
X98215166Y-92260097I77403J1122334D01*
G01*
X98255166Y-91680097D01*
G75*
G02*
X99454903Y-90635166I1122334J-77403D01*
G01*
X99454903Y-90635166D01*
G75*
G02*
X100499834Y-91834903I-77403J-1122334D01*
G01*
X100459834Y-92414903D01*
G75*
G02*
X99260097Y-93459834I-1122334J77403D01*
G01*
G37*
G04 #@! TD.AperFunction*
X92837500Y-108862500D03*
G04 #@! TA.AperFunction,ComponentPad*
G36*
G01*
X95134850Y-110923812D02*
X95134845Y-110923817D01*
G75*
G02*
X93546183Y-111009845I-837345J751317D01*
G01*
X92086183Y-109699843D01*
G75*
G02*
X92000155Y-108111181I751317J837345D01*
G01*
X92000155Y-108111181D01*
G75*
G02*
X93588817Y-108025153I837345J-751317D01*
G01*
X95048817Y-109335155D01*
G75*
G02*
X95134845Y-110923817I-751317J-837345D01*
G01*
G37*
G04 #@! TD.AperFunction*
X91757500Y-103822500D03*
G04 #@! TA.AperFunction,ComponentPad*
G36*
G01*
X93459895Y-103939017D02*
X93459834Y-103939903D01*
G75*
G02*
X92260097Y-104984834I-1122334J77403D01*
G01*
X91680097Y-104944834D01*
G75*
G02*
X90635166Y-103745097I77403J1122334D01*
G01*
X90635166Y-103745097D01*
G75*
G02*
X91834903Y-102700166I1122334J-77403D01*
G01*
X92414903Y-102740166D01*
G75*
G02*
X93459834Y-103939903I-77403J-1122334D01*
G01*
G37*
G04 #@! TD.AperFunction*
X37187500Y-111887500D03*
G04 #@! TA.AperFunction,ComponentPad*
G36*
G01*
X35126188Y-114184850D02*
X35126183Y-114184845D01*
G75*
G02*
X35040155Y-112596183I751317J837345D01*
G01*
X36350157Y-111136183D01*
G75*
G02*
X37938819Y-111050155I837345J-751317D01*
G01*
X37938819Y-111050155D01*
G75*
G02*
X38024847Y-112638817I-751317J-837345D01*
G01*
X36714845Y-114098817D01*
G75*
G02*
X35126183Y-114184845I-837345J751317D01*
G01*
G37*
G04 #@! TD.AperFunction*
X42227500Y-110807500D03*
G04 #@! TA.AperFunction,ComponentPad*
G36*
G01*
X42110983Y-112509895D02*
X42110097Y-112509834D01*
G75*
G02*
X41065166Y-111310097I77403J1122334D01*
G01*
X41105166Y-110730097D01*
G75*
G02*
X42304903Y-109685166I1122334J-77403D01*
G01*
X42304903Y-109685166D01*
G75*
G02*
X43349834Y-110884903I-77403J-1122334D01*
G01*
X43309834Y-111464903D01*
G75*
G02*
X42110097Y-112509834I-1122334J77403D01*
G01*
G37*
G04 #@! TD.AperFunction*
X56237500Y-111887500D03*
G04 #@! TA.AperFunction,ComponentPad*
G36*
G01*
X54176188Y-114184850D02*
X54176183Y-114184845D01*
G75*
G02*
X54090155Y-112596183I751317J837345D01*
G01*
X55400157Y-111136183D01*
G75*
G02*
X56988819Y-111050155I837345J-751317D01*
G01*
X56988819Y-111050155D01*
G75*
G02*
X57074847Y-112638817I-751317J-837345D01*
G01*
X55764845Y-114098817D01*
G75*
G02*
X54176183Y-114184845I-837345J751317D01*
G01*
G37*
G04 #@! TD.AperFunction*
X61277500Y-110807500D03*
G04 #@! TA.AperFunction,ComponentPad*
G36*
G01*
X61160983Y-112509895D02*
X61160097Y-112509834D01*
G75*
G02*
X60115166Y-111310097I77403J1122334D01*
G01*
X60155166Y-110730097D01*
G75*
G02*
X61354903Y-109685166I1122334J-77403D01*
G01*
X61354903Y-109685166D01*
G75*
G02*
X62399834Y-110884903I-77403J-1122334D01*
G01*
X62359834Y-111464903D01*
G75*
G02*
X61160097Y-112509834I-1122334J77403D01*
G01*
G37*
G04 #@! TD.AperFunction*
X75287500Y-111887500D03*
G04 #@! TA.AperFunction,ComponentPad*
G36*
G01*
X73226188Y-114184850D02*
X73226183Y-114184845D01*
G75*
G02*
X73140155Y-112596183I751317J837345D01*
G01*
X74450157Y-111136183D01*
G75*
G02*
X76038819Y-111050155I837345J-751317D01*
G01*
X76038819Y-111050155D01*
G75*
G02*
X76124847Y-112638817I-751317J-837345D01*
G01*
X74814845Y-114098817D01*
G75*
G02*
X73226183Y-114184845I-837345J751317D01*
G01*
G37*
G04 #@! TD.AperFunction*
X80327500Y-110807500D03*
G04 #@! TA.AperFunction,ComponentPad*
G36*
G01*
X80210983Y-112509895D02*
X80210097Y-112509834D01*
G75*
G02*
X79165166Y-111310097I77403J1122334D01*
G01*
X79205166Y-110730097D01*
G75*
G02*
X80404903Y-109685166I1122334J-77403D01*
G01*
X80404903Y-109685166D01*
G75*
G02*
X81449834Y-110884903I-77403J-1122334D01*
G01*
X81409834Y-111464903D01*
G75*
G02*
X80210097Y-112509834I-1122334J77403D01*
G01*
G37*
G04 #@! TD.AperFunction*
X94337500Y-111887500D03*
G04 #@! TA.AperFunction,ComponentPad*
G36*
G01*
X92276188Y-114184850D02*
X92276183Y-114184845D01*
G75*
G02*
X92190155Y-112596183I751317J837345D01*
G01*
X93500157Y-111136183D01*
G75*
G02*
X95088819Y-111050155I837345J-751317D01*
G01*
X95088819Y-111050155D01*
G75*
G02*
X95174847Y-112638817I-751317J-837345D01*
G01*
X93864845Y-114098817D01*
G75*
G02*
X92276183Y-114184845I-837345J751317D01*
G01*
G37*
G04 #@! TD.AperFunction*
X99377500Y-110807500D03*
G04 #@! TA.AperFunction,ComponentPad*
G36*
G01*
X99260983Y-112509895D02*
X99260097Y-112509834D01*
G75*
G02*
X98215166Y-111310097I77403J1122334D01*
G01*
X98255166Y-110730097D01*
G75*
G02*
X99454903Y-109685166I1122334J-77403D01*
G01*
X99454903Y-109685166D01*
G75*
G02*
X100499834Y-110884903I-77403J-1122334D01*
G01*
X100459834Y-111464903D01*
G75*
G02*
X99260097Y-112509834I-1122334J77403D01*
G01*
G37*
G04 #@! TD.AperFunction*
X46712500Y-111887500D03*
G04 #@! TA.AperFunction,ComponentPad*
G36*
G01*
X44651188Y-114184850D02*
X44651183Y-114184845D01*
G75*
G02*
X44565155Y-112596183I751317J837345D01*
G01*
X45875157Y-111136183D01*
G75*
G02*
X47463819Y-111050155I837345J-751317D01*
G01*
X47463819Y-111050155D01*
G75*
G02*
X47549847Y-112638817I-751317J-837345D01*
G01*
X46239845Y-114098817D01*
G75*
G02*
X44651183Y-114184845I-837345J751317D01*
G01*
G37*
G04 #@! TD.AperFunction*
X51752500Y-110807500D03*
G04 #@! TA.AperFunction,ComponentPad*
G36*
G01*
X51635983Y-112509895D02*
X51635097Y-112509834D01*
G75*
G02*
X50590166Y-111310097I77403J1122334D01*
G01*
X50630166Y-110730097D01*
G75*
G02*
X51829903Y-109685166I1122334J-77403D01*
G01*
X51829903Y-109685166D01*
G75*
G02*
X52874834Y-110884903I-77403J-1122334D01*
G01*
X52834834Y-111464903D01*
G75*
G02*
X51635097Y-112509834I-1122334J77403D01*
G01*
G37*
G04 #@! TD.AperFunction*
D13*
X51462500Y-90562500D03*
X46962500Y-84062500D03*
X46962500Y-90562500D03*
X51462500Y-84062500D03*
D14*
X42862500Y-49212500D03*
D11*
X35242500Y-49212500D03*
D14*
X61912500Y-68262500D03*
D11*
X54292500Y-68262500D03*
D14*
X87312500Y-36036250D03*
D11*
X87312500Y-43656250D03*
X92392500Y-49212500D03*
D14*
X100012500Y-49212500D03*
X42862500Y-68262500D03*
D11*
X35242500Y-68262500D03*
X73342500Y-68262500D03*
D14*
X80962500Y-68262500D03*
X80962500Y-49212500D03*
D11*
X73342500Y-49212500D03*
X87312500Y-72231250D03*
D14*
X87312500Y-64611250D03*
X49212500Y-72548750D03*
D11*
X49212500Y-80168750D03*
X68262500Y-81756250D03*
D14*
X68262500Y-74136250D03*
X63182500Y-87312500D03*
D11*
X55562500Y-87312500D03*
X92392500Y-87312500D03*
D14*
X100012500Y-87312500D03*
X42862500Y-87312500D03*
D11*
X35242500Y-87312500D03*
D14*
X49212500Y-94456250D03*
D11*
X49212500Y-102076250D03*
D14*
X68262500Y-92868750D03*
D11*
X68262500Y-100488750D03*
X73342500Y-87312500D03*
D14*
X80962500Y-87312500D03*
X53181250Y-106362500D03*
D11*
X45561250Y-106362500D03*
X68262500Y-119856250D03*
D14*
X68262500Y-112236250D03*
D11*
X73342500Y-106362500D03*
D14*
X80962500Y-106362500D03*
D11*
X87312500Y-110331250D03*
D14*
X87312500Y-102711250D03*
D15*
X42862500Y-35242500D02*
X42227500Y-34607500D01*
X42862500Y-49212500D02*
X42862500Y-35242500D01*
X61912500Y-68262500D02*
X61912500Y-56070500D01*
X61912500Y-56070500D02*
X62992000Y-54991000D01*
X62992000Y-54991000D02*
X62992000Y-52959000D01*
X62992000Y-52959000D02*
X61976000Y-51943000D01*
X61976000Y-35306000D02*
X61277500Y-34607500D01*
X61976000Y-51943000D02*
X61976000Y-35306000D01*
X100012500Y-35862500D02*
X99337500Y-35187500D01*
X100012500Y-49212500D02*
X100012500Y-35862500D01*
X42862500Y-54292500D02*
X42227500Y-53657500D01*
X42862500Y-68262500D02*
X42862500Y-54292500D01*
X80962500Y-53022500D02*
X80327500Y-53657500D01*
X80962500Y-49212500D02*
X80962500Y-53022500D01*
X100012500Y-73962500D02*
X99337500Y-73287500D01*
X100012500Y-87312500D02*
X100012500Y-73962500D01*
X42862500Y-91122500D02*
X42227500Y-91757500D01*
X42862500Y-87312500D02*
X42862500Y-91122500D01*
X80962500Y-110172500D02*
X80327500Y-110807500D01*
X80962500Y-106362500D02*
X80962500Y-110172500D01*
X51462500Y-84062500D02*
X50534500Y-84062500D01*
X50534500Y-84062500D02*
X47752000Y-81280000D01*
X47752000Y-42100500D02*
X51117500Y-38735000D01*
X47752000Y-81280000D02*
X47752000Y-42100500D01*
D16*
X66357500Y-38735000D02*
X66357500Y-41275000D01*
X46962500Y-90562500D02*
X46962500Y-90523500D01*
X46962500Y-90523500D02*
X45339000Y-88900000D01*
X45339000Y-88900000D02*
X45339000Y-83312000D01*
X45339000Y-83312000D02*
X47117000Y-81534000D01*
X47117000Y-40195500D02*
X51117500Y-36195000D01*
X47117000Y-81534000D02*
X47117000Y-40195500D01*
D15*
X92392500Y-48736250D02*
X87312500Y-43656250D01*
X92392500Y-49212500D02*
X92392500Y-48736250D01*
X71120000Y-66040000D02*
X73342500Y-68262500D01*
X73342500Y-49212500D02*
X71120000Y-51435000D01*
X71120000Y-51435000D02*
X71120000Y-66040000D01*
X49212500Y-80168750D02*
X50069750Y-80168750D01*
X55562500Y-85661500D02*
X55562500Y-87312500D01*
X50069750Y-80168750D02*
X55562500Y-85661500D01*
X51117500Y-78263750D02*
X49212500Y-80168750D01*
X51117500Y-61595000D02*
X51117500Y-78263750D01*
X68262500Y-100488750D02*
X68294250Y-100488750D01*
X68294250Y-100488750D02*
X70612000Y-98171000D01*
X70612000Y-90043000D02*
X73342500Y-87312500D01*
X70612000Y-98171000D02*
X70612000Y-90043000D01*
X66421000Y-56515000D02*
X66357500Y-56515000D01*
X73342500Y-87312500D02*
X71120000Y-87312500D01*
X71120000Y-87312500D02*
X66675000Y-82867500D01*
X66675000Y-82867500D02*
X66675000Y-63500000D01*
X66675000Y-63500000D02*
X67818000Y-62357000D01*
X67818000Y-62357000D02*
X67818000Y-57912000D01*
X67818000Y-57912000D02*
X66421000Y-56515000D01*
X70358000Y-117760750D02*
X68262500Y-119856250D01*
X73342500Y-106362500D02*
X70358000Y-109347000D01*
X70358000Y-109347000D02*
X70358000Y-117760750D01*
X70739000Y-106362500D02*
X73342500Y-106362500D01*
X64897000Y-60515500D02*
X64897000Y-62230000D01*
X64897000Y-62230000D02*
X66167000Y-63500000D01*
X66167000Y-63500000D02*
X66167000Y-101981000D01*
X66167000Y-101981000D02*
X70548500Y-106362500D01*
X66357500Y-59055000D02*
X64897000Y-60515500D01*
X70548500Y-106362500D02*
X70739000Y-106362500D01*
X36703000Y-76073000D02*
X35877500Y-75247500D01*
X35877500Y-94297500D02*
X36703000Y-93472000D01*
X36703000Y-93472000D02*
X36703000Y-76073000D01*
X36703000Y-54253000D02*
X37187500Y-54737500D01*
X36703000Y-37973000D02*
X36703000Y-54253000D01*
X35877500Y-37147500D02*
X36703000Y-37973000D01*
X36703000Y-74422000D02*
X35877500Y-75247500D01*
X36703000Y-57023000D02*
X36703000Y-74422000D01*
X35877500Y-56197500D02*
X36703000Y-57023000D01*
X36703000Y-95123000D02*
X35877500Y-94297500D01*
X36703000Y-103251000D02*
X36703000Y-95123000D01*
X39878000Y-106426000D02*
X36703000Y-103251000D01*
X39878000Y-108966000D02*
X39878000Y-106426000D01*
X35877500Y-113347500D02*
X35877500Y-112966500D01*
X35877500Y-112966500D02*
X39878000Y-108966000D01*
X55753000Y-37973000D02*
X54927500Y-37147500D01*
X54927500Y-56197500D02*
X55753000Y-55372000D01*
X55753000Y-55372000D02*
X55753000Y-37973000D01*
X55753000Y-57023000D02*
X54927500Y-56197500D01*
X54927500Y-75247500D02*
X55753000Y-74422000D01*
X55753000Y-74422000D02*
X55753000Y-57023000D01*
X55753000Y-76073000D02*
X54927500Y-75247500D01*
X56237500Y-92837500D02*
X55753000Y-92353000D01*
X55753000Y-92353000D02*
X55753000Y-89789000D01*
X55753000Y-89789000D02*
X57023000Y-88519000D01*
X57023000Y-88519000D02*
X57023000Y-86106000D01*
X57023000Y-86106000D02*
X55753000Y-84836000D01*
X55753000Y-84836000D02*
X55753000Y-76073000D01*
X45402500Y-113347500D02*
X54927500Y-113347500D01*
X55753000Y-95123000D02*
X54927500Y-94297500D01*
X54927500Y-113347500D02*
X55753000Y-112522000D01*
X55753000Y-112522000D02*
X55753000Y-95123000D01*
X73977500Y-56197500D02*
X74803000Y-55372000D01*
X74803000Y-37973000D02*
X73977500Y-37147500D01*
X74803000Y-55372000D02*
X74803000Y-37973000D01*
X74803000Y-57023000D02*
X73977500Y-56197500D01*
X73977500Y-75247500D02*
X74803000Y-74422000D01*
X74803000Y-74422000D02*
X74803000Y-57023000D01*
X74803000Y-76073000D02*
X73977500Y-75247500D01*
X73977500Y-94297500D02*
X74803000Y-93472000D01*
X74803000Y-93472000D02*
X74803000Y-76073000D01*
X74803000Y-95123000D02*
X73977500Y-94297500D01*
X73977500Y-113347500D02*
X74803000Y-112522000D01*
X74803000Y-112522000D02*
X74803000Y-95123000D01*
X93853000Y-37973000D02*
X93027500Y-37147500D01*
X93027500Y-56197500D02*
X93853000Y-55372000D01*
X93853000Y-55372000D02*
X93853000Y-37973000D01*
X93853000Y-57023000D02*
X93027500Y-56197500D01*
X93853000Y-69747000D02*
X93853000Y-66929000D01*
X92837500Y-70762500D02*
X93853000Y-69747000D01*
X93853000Y-66929000D02*
X94107000Y-66675000D01*
X94107000Y-66675000D02*
X94107000Y-65024000D01*
X94107000Y-65024000D02*
X93853000Y-64770000D01*
X93853000Y-64770000D02*
X93853000Y-57023000D01*
X94297500Y-73977500D02*
X93027500Y-75247500D01*
X94297500Y-72072500D02*
X94297500Y-73977500D01*
X93853000Y-76073000D02*
X93027500Y-75247500D01*
X93027500Y-94297500D02*
X93853000Y-93472000D01*
X93853000Y-93472000D02*
X93853000Y-76073000D01*
X93853000Y-96647000D02*
X93853000Y-102870000D01*
X93853000Y-102870000D02*
X94107000Y-103124000D01*
X94107000Y-103124000D02*
X94107000Y-104902000D01*
X94107000Y-104902000D02*
X93853000Y-105156000D01*
X93853000Y-107847000D02*
X92837500Y-108862500D01*
X93853000Y-105156000D02*
X93853000Y-107847000D01*
X94297500Y-112077500D02*
X93027500Y-113347500D01*
X94297500Y-110172500D02*
X94297500Y-112077500D01*
X93853000Y-93322000D02*
X94337500Y-92837500D01*
X93853000Y-96647000D02*
X93853000Y-93322000D01*
M02*
