G04 #@! TF.GenerationSoftware,KiCad,Pcbnew,5.1.10-5.1.10*
G04 #@! TF.CreationDate,2021-07-11T16:52:34+05:30*
G04 #@! TF.ProjectId,Soyuz,536f7975-7a2e-46b6-9963-61645f706362,rev?*
G04 #@! TF.SameCoordinates,Original*
G04 #@! TF.FileFunction,Legend,Top*
G04 #@! TF.FilePolarity,Positive*
%FSLAX46Y46*%
G04 Gerber Fmt 4.6, Leading zero omitted, Abs format (unit mm)*
G04 Created by KiCad (PCBNEW 5.1.10-5.1.10) date 2021-07-11 16:52:34*
%MOMM*%
%LPD*%
G01*
G04 APERTURE LIST*
%ADD10C,2.000000*%
%ADD11C,1.600000*%
%ADD12C,1.200000*%
%ADD13C,0.800000*%
%ADD14C,0.400000*%
%ADD15C,2.000000*%
%ADD16C,2.150000*%
%ADD17C,4.387800*%
%ADD18C,3.448000*%
%ADD19C,2.200000*%
%ADD20O,2.000000X2.000000*%
G04 APERTURE END LIST*
D10*
X51593750Y-123825000D02*
X106426000Y-41275000D01*
D11*
X106426000Y-37719000D02*
X42862500Y-123825000D01*
D12*
X33337500Y-123825000D02*
X106362500Y-34925000D01*
D13*
X31750000Y-115093750D02*
X106362500Y-32543750D01*
D14*
X31750000Y-106362500D02*
X106362500Y-30162500D01*
%LPC*%
D15*
X51117500Y-33655000D03*
X51117500Y-36195000D03*
X51117500Y-38735000D03*
X51117500Y-41275000D03*
X51117500Y-43815000D03*
X51117500Y-46355000D03*
X51117500Y-48895000D03*
X51117500Y-51435000D03*
X51117500Y-53975000D03*
X51117500Y-56515000D03*
X51117500Y-59055000D03*
X51117500Y-61595000D03*
X66357500Y-61595000D03*
X66357500Y-59055000D03*
X66357500Y-56515000D03*
X66357500Y-53975000D03*
X66357500Y-51435000D03*
X66357500Y-48895000D03*
X66357500Y-46355000D03*
X66357500Y-43815000D03*
X66357500Y-41275000D03*
X66357500Y-38735000D03*
X66357500Y-36195000D03*
G36*
G01*
X65557500Y-32655000D02*
X67157500Y-32655000D01*
G75*
G02*
X67357500Y-32855000I0J-200000D01*
G01*
X67357500Y-34455000D01*
G75*
G02*
X67157500Y-34655000I-200000J0D01*
G01*
X65557500Y-34655000D01*
G75*
G02*
X65357500Y-34455000I0J200000D01*
G01*
X65357500Y-32855000D01*
G75*
G02*
X65557500Y-32655000I200000J0D01*
G01*
G37*
D16*
X44767500Y-39687500D03*
X34607500Y-39687500D03*
D17*
X39687500Y-39687500D03*
D16*
X63817500Y-39687500D03*
X53657500Y-39687500D03*
D17*
X58737500Y-39687500D03*
D16*
X82867500Y-39687500D03*
X72707500Y-39687500D03*
D17*
X77787500Y-39687500D03*
D16*
X101917500Y-39687500D03*
X91757500Y-39687500D03*
D17*
X96837500Y-39687500D03*
D16*
X44767500Y-58737500D03*
X34607500Y-58737500D03*
D17*
X39687500Y-58737500D03*
D16*
X63817500Y-58737500D03*
X53657500Y-58737500D03*
D17*
X58737500Y-58737500D03*
D16*
X82867500Y-58737500D03*
X72707500Y-58737500D03*
D17*
X77787500Y-58737500D03*
D16*
X101917500Y-58737500D03*
X91757500Y-58737500D03*
D17*
X96837500Y-58737500D03*
X88582500Y-56324500D03*
X88582500Y-80200500D03*
D18*
X103822500Y-56324500D03*
X103822500Y-80200500D03*
D16*
X96837500Y-63182500D03*
X96837500Y-73342500D03*
D17*
X96837500Y-68262500D03*
D16*
X44767500Y-77787500D03*
X34607500Y-77787500D03*
D17*
X39687500Y-77787500D03*
D16*
X63817500Y-77787500D03*
X53657500Y-77787500D03*
D17*
X58737500Y-77787500D03*
D16*
X82867500Y-77787500D03*
X72707500Y-77787500D03*
D17*
X77787500Y-77787500D03*
D16*
X101917500Y-77787500D03*
X91757500Y-77787500D03*
D17*
X96837500Y-77787500D03*
D16*
X44767500Y-96837500D03*
X34607500Y-96837500D03*
D17*
X39687500Y-96837500D03*
D16*
X63817500Y-96837500D03*
X53657500Y-96837500D03*
D17*
X58737500Y-96837500D03*
D16*
X82867500Y-96837500D03*
X72707500Y-96837500D03*
D17*
X77787500Y-96837500D03*
D16*
X101917500Y-96837500D03*
X91757500Y-96837500D03*
D17*
X96837500Y-96837500D03*
X88582500Y-94424500D03*
X88582500Y-118300500D03*
D18*
X103822500Y-94424500D03*
X103822500Y-118300500D03*
D16*
X96837500Y-101282500D03*
X96837500Y-111442500D03*
D17*
X96837500Y-106362500D03*
D16*
X44767500Y-115887500D03*
X34607500Y-115887500D03*
D17*
X39687500Y-115887500D03*
D16*
X63817500Y-115887500D03*
X53657500Y-115887500D03*
D17*
X58737500Y-115887500D03*
D16*
X82867500Y-115887500D03*
X72707500Y-115887500D03*
D17*
X77787500Y-115887500D03*
D16*
X101917500Y-115887500D03*
X91757500Y-115887500D03*
D17*
X96837500Y-115887500D03*
X61150500Y-107632500D03*
X37274500Y-107632500D03*
D18*
X61150500Y-122872500D03*
X37274500Y-122872500D03*
D16*
X54292500Y-115887500D03*
X44132500Y-115887500D03*
D17*
X49212500Y-115887500D03*
D19*
X51462500Y-90562500D03*
X46962500Y-84062500D03*
X46962500Y-90562500D03*
X51462500Y-84062500D03*
D20*
X42862500Y-49212500D03*
G36*
G01*
X34242500Y-50012500D02*
X34242500Y-48412500D01*
G75*
G02*
X34442500Y-48212500I200000J0D01*
G01*
X36042500Y-48212500D01*
G75*
G02*
X36242500Y-48412500I0J-200000D01*
G01*
X36242500Y-50012500D01*
G75*
G02*
X36042500Y-50212500I-200000J0D01*
G01*
X34442500Y-50212500D01*
G75*
G02*
X34242500Y-50012500I0J200000D01*
G01*
G37*
X61912500Y-68262500D03*
G36*
G01*
X53292500Y-69062500D02*
X53292500Y-67462500D01*
G75*
G02*
X53492500Y-67262500I200000J0D01*
G01*
X55092500Y-67262500D01*
G75*
G02*
X55292500Y-67462500I0J-200000D01*
G01*
X55292500Y-69062500D01*
G75*
G02*
X55092500Y-69262500I-200000J0D01*
G01*
X53492500Y-69262500D01*
G75*
G02*
X53292500Y-69062500I0J200000D01*
G01*
G37*
X87312500Y-36036250D03*
G36*
G01*
X88112500Y-44656250D02*
X86512500Y-44656250D01*
G75*
G02*
X86312500Y-44456250I0J200000D01*
G01*
X86312500Y-42856250D01*
G75*
G02*
X86512500Y-42656250I200000J0D01*
G01*
X88112500Y-42656250D01*
G75*
G02*
X88312500Y-42856250I0J-200000D01*
G01*
X88312500Y-44456250D01*
G75*
G02*
X88112500Y-44656250I-200000J0D01*
G01*
G37*
G36*
G01*
X91392500Y-50012500D02*
X91392500Y-48412500D01*
G75*
G02*
X91592500Y-48212500I200000J0D01*
G01*
X93192500Y-48212500D01*
G75*
G02*
X93392500Y-48412500I0J-200000D01*
G01*
X93392500Y-50012500D01*
G75*
G02*
X93192500Y-50212500I-200000J0D01*
G01*
X91592500Y-50212500D01*
G75*
G02*
X91392500Y-50012500I0J200000D01*
G01*
G37*
X100012500Y-49212500D03*
X42862500Y-68262500D03*
G36*
G01*
X34242500Y-69062500D02*
X34242500Y-67462500D01*
G75*
G02*
X34442500Y-67262500I200000J0D01*
G01*
X36042500Y-67262500D01*
G75*
G02*
X36242500Y-67462500I0J-200000D01*
G01*
X36242500Y-69062500D01*
G75*
G02*
X36042500Y-69262500I-200000J0D01*
G01*
X34442500Y-69262500D01*
G75*
G02*
X34242500Y-69062500I0J200000D01*
G01*
G37*
G36*
G01*
X72342500Y-69062500D02*
X72342500Y-67462500D01*
G75*
G02*
X72542500Y-67262500I200000J0D01*
G01*
X74142500Y-67262500D01*
G75*
G02*
X74342500Y-67462500I0J-200000D01*
G01*
X74342500Y-69062500D01*
G75*
G02*
X74142500Y-69262500I-200000J0D01*
G01*
X72542500Y-69262500D01*
G75*
G02*
X72342500Y-69062500I0J200000D01*
G01*
G37*
X80962500Y-68262500D03*
X80962500Y-49212500D03*
G36*
G01*
X72342500Y-50012500D02*
X72342500Y-48412500D01*
G75*
G02*
X72542500Y-48212500I200000J0D01*
G01*
X74142500Y-48212500D01*
G75*
G02*
X74342500Y-48412500I0J-200000D01*
G01*
X74342500Y-50012500D01*
G75*
G02*
X74142500Y-50212500I-200000J0D01*
G01*
X72542500Y-50212500D01*
G75*
G02*
X72342500Y-50012500I0J200000D01*
G01*
G37*
G36*
G01*
X88112500Y-73231250D02*
X86512500Y-73231250D01*
G75*
G02*
X86312500Y-73031250I0J200000D01*
G01*
X86312500Y-71431250D01*
G75*
G02*
X86512500Y-71231250I200000J0D01*
G01*
X88112500Y-71231250D01*
G75*
G02*
X88312500Y-71431250I0J-200000D01*
G01*
X88312500Y-73031250D01*
G75*
G02*
X88112500Y-73231250I-200000J0D01*
G01*
G37*
X87312500Y-64611250D03*
X49212500Y-72548750D03*
G36*
G01*
X50012500Y-81168750D02*
X48412500Y-81168750D01*
G75*
G02*
X48212500Y-80968750I0J200000D01*
G01*
X48212500Y-79368750D01*
G75*
G02*
X48412500Y-79168750I200000J0D01*
G01*
X50012500Y-79168750D01*
G75*
G02*
X50212500Y-79368750I0J-200000D01*
G01*
X50212500Y-80968750D01*
G75*
G02*
X50012500Y-81168750I-200000J0D01*
G01*
G37*
G36*
G01*
X69062500Y-82756250D02*
X67462500Y-82756250D01*
G75*
G02*
X67262500Y-82556250I0J200000D01*
G01*
X67262500Y-80956250D01*
G75*
G02*
X67462500Y-80756250I200000J0D01*
G01*
X69062500Y-80756250D01*
G75*
G02*
X69262500Y-80956250I0J-200000D01*
G01*
X69262500Y-82556250D01*
G75*
G02*
X69062500Y-82756250I-200000J0D01*
G01*
G37*
X68262500Y-74136250D03*
X63182500Y-87312500D03*
G36*
G01*
X54562500Y-88112500D02*
X54562500Y-86512500D01*
G75*
G02*
X54762500Y-86312500I200000J0D01*
G01*
X56362500Y-86312500D01*
G75*
G02*
X56562500Y-86512500I0J-200000D01*
G01*
X56562500Y-88112500D01*
G75*
G02*
X56362500Y-88312500I-200000J0D01*
G01*
X54762500Y-88312500D01*
G75*
G02*
X54562500Y-88112500I0J200000D01*
G01*
G37*
G36*
G01*
X91392500Y-88112500D02*
X91392500Y-86512500D01*
G75*
G02*
X91592500Y-86312500I200000J0D01*
G01*
X93192500Y-86312500D01*
G75*
G02*
X93392500Y-86512500I0J-200000D01*
G01*
X93392500Y-88112500D01*
G75*
G02*
X93192500Y-88312500I-200000J0D01*
G01*
X91592500Y-88312500D01*
G75*
G02*
X91392500Y-88112500I0J200000D01*
G01*
G37*
X100012500Y-87312500D03*
X42862500Y-87312500D03*
G36*
G01*
X34242500Y-88112500D02*
X34242500Y-86512500D01*
G75*
G02*
X34442500Y-86312500I200000J0D01*
G01*
X36042500Y-86312500D01*
G75*
G02*
X36242500Y-86512500I0J-200000D01*
G01*
X36242500Y-88112500D01*
G75*
G02*
X36042500Y-88312500I-200000J0D01*
G01*
X34442500Y-88312500D01*
G75*
G02*
X34242500Y-88112500I0J200000D01*
G01*
G37*
X49212500Y-94456250D03*
G36*
G01*
X50012500Y-103076250D02*
X48412500Y-103076250D01*
G75*
G02*
X48212500Y-102876250I0J200000D01*
G01*
X48212500Y-101276250D01*
G75*
G02*
X48412500Y-101076250I200000J0D01*
G01*
X50012500Y-101076250D01*
G75*
G02*
X50212500Y-101276250I0J-200000D01*
G01*
X50212500Y-102876250D01*
G75*
G02*
X50012500Y-103076250I-200000J0D01*
G01*
G37*
X68262500Y-92868750D03*
G36*
G01*
X69062500Y-101488750D02*
X67462500Y-101488750D01*
G75*
G02*
X67262500Y-101288750I0J200000D01*
G01*
X67262500Y-99688750D01*
G75*
G02*
X67462500Y-99488750I200000J0D01*
G01*
X69062500Y-99488750D01*
G75*
G02*
X69262500Y-99688750I0J-200000D01*
G01*
X69262500Y-101288750D01*
G75*
G02*
X69062500Y-101488750I-200000J0D01*
G01*
G37*
G36*
G01*
X72342500Y-88112500D02*
X72342500Y-86512500D01*
G75*
G02*
X72542500Y-86312500I200000J0D01*
G01*
X74142500Y-86312500D01*
G75*
G02*
X74342500Y-86512500I0J-200000D01*
G01*
X74342500Y-88112500D01*
G75*
G02*
X74142500Y-88312500I-200000J0D01*
G01*
X72542500Y-88312500D01*
G75*
G02*
X72342500Y-88112500I0J200000D01*
G01*
G37*
X80962500Y-87312500D03*
X53181250Y-106362500D03*
G36*
G01*
X44561250Y-107162500D02*
X44561250Y-105562500D01*
G75*
G02*
X44761250Y-105362500I200000J0D01*
G01*
X46361250Y-105362500D01*
G75*
G02*
X46561250Y-105562500I0J-200000D01*
G01*
X46561250Y-107162500D01*
G75*
G02*
X46361250Y-107362500I-200000J0D01*
G01*
X44761250Y-107362500D01*
G75*
G02*
X44561250Y-107162500I0J200000D01*
G01*
G37*
G36*
G01*
X69062500Y-120856250D02*
X67462500Y-120856250D01*
G75*
G02*
X67262500Y-120656250I0J200000D01*
G01*
X67262500Y-119056250D01*
G75*
G02*
X67462500Y-118856250I200000J0D01*
G01*
X69062500Y-118856250D01*
G75*
G02*
X69262500Y-119056250I0J-200000D01*
G01*
X69262500Y-120656250D01*
G75*
G02*
X69062500Y-120856250I-200000J0D01*
G01*
G37*
X68262500Y-112236250D03*
G36*
G01*
X72342500Y-107162500D02*
X72342500Y-105562500D01*
G75*
G02*
X72542500Y-105362500I200000J0D01*
G01*
X74142500Y-105362500D01*
G75*
G02*
X74342500Y-105562500I0J-200000D01*
G01*
X74342500Y-107162500D01*
G75*
G02*
X74142500Y-107362500I-200000J0D01*
G01*
X72542500Y-107362500D01*
G75*
G02*
X72342500Y-107162500I0J200000D01*
G01*
G37*
X80962500Y-106362500D03*
G36*
G01*
X88112500Y-111331250D02*
X86512500Y-111331250D01*
G75*
G02*
X86312500Y-111131250I0J200000D01*
G01*
X86312500Y-109531250D01*
G75*
G02*
X86512500Y-109331250I200000J0D01*
G01*
X88112500Y-109331250D01*
G75*
G02*
X88312500Y-109531250I0J-200000D01*
G01*
X88312500Y-111131250D01*
G75*
G02*
X88112500Y-111331250I-200000J0D01*
G01*
G37*
X87312500Y-102711250D03*
M02*
