M48
; DRILL file {KiCad 5.1.10-5.1.10} date Sun Jul 11 16:52:06 2021
; FORMAT={-:-/ absolute / inch / decimal}
; #@! TF.CreationDate,2021-07-11T16:52:06+05:30
; #@! TF.GenerationSoftware,Kicad,Pcbnew,5.1.10-5.1.10
; #@! TF.FileFunction,NonPlated,1,2,NPTH
FMAT,2
INCH
T1C0.0689
T2C0.1200
T3C0.1570
%
G90
G05
T1
X1.3625Y-1.5625
X1.3625Y-2.3125
X1.3625Y-3.0625
X1.3625Y-3.8125
X1.3625Y-4.5625
X1.7375Y-4.5625
X1.7625Y-1.5625
X1.7625Y-2.3125
X1.7625Y-3.0625
X1.7625Y-3.8125
X1.7625Y-4.5625
X2.1125Y-1.5625
X2.1125Y-2.3125
X2.1125Y-3.0625
X2.1125Y-3.8125
X2.1125Y-4.5625
X2.1375Y-4.5625
X2.5125Y-1.5625
X2.5125Y-2.3125
X2.5125Y-3.0625
X2.5125Y-3.8125
X2.5125Y-4.5625
X2.8625Y-1.5625
X2.8625Y-2.3125
X2.8625Y-3.0625
X2.8625Y-3.8125
X2.8625Y-4.5625
X3.2625Y-1.5625
X3.2625Y-2.3125
X3.2625Y-3.0625
X3.2625Y-3.8125
X3.2625Y-4.5625
X3.6125Y-1.5625
X3.6125Y-2.3125
X3.6125Y-3.0625
X3.6125Y-3.8125
X3.6125Y-4.5625
X3.8125Y-2.4875
X3.8125Y-2.8875
X3.8125Y-3.9875
X3.8125Y-4.3875
X4.0125Y-1.5625
X4.0125Y-2.3125
X4.0125Y-3.0625
X4.0125Y-3.8125
X4.0125Y-4.5625
T2
X1.4675Y-4.8375
X2.4075Y-4.8375
X4.0875Y-2.2175
X4.0875Y-3.1575
X4.0875Y-3.7175
X4.0875Y-4.6575
T3
X1.4675Y-4.2375
X1.5625Y-1.5625
X1.5625Y-2.3125
X1.5625Y-3.0625
X1.5625Y-3.8125
X1.5625Y-4.5625
X1.9375Y-4.5625
X2.3125Y-1.5625
X2.3125Y-2.3125
X2.3125Y-3.0625
X2.3125Y-3.8125
X2.3125Y-4.5625
X2.4075Y-4.2375
X3.0625Y-1.5625
X3.0625Y-2.3125
X3.0625Y-3.0625
X3.0625Y-3.8125
X3.0625Y-4.5625
X3.4875Y-2.2175
X3.4875Y-3.1575
X3.4875Y-3.7175
X3.4875Y-4.6575
X3.8125Y-1.5625
X3.8125Y-2.3125
X3.8125Y-2.6875
X3.8125Y-3.0625
X3.8125Y-3.8125
X3.8125Y-4.1875
X3.8125Y-4.5625
T0
M30
