G04 #@! TF.GenerationSoftware,KiCad,Pcbnew,5.1.10-5.1.10*
G04 #@! TF.CreationDate,2021-07-11T16:52:34+05:30*
G04 #@! TF.ProjectId,Soyuz,536f7975-7a2e-46b6-9963-61645f706362,rev?*
G04 #@! TF.SameCoordinates,Original*
G04 #@! TF.FileFunction,Legend,Bot*
G04 #@! TF.FilePolarity,Positive*
%FSLAX46Y46*%
G04 Gerber Fmt 4.6, Leading zero omitted, Abs format (unit mm)*
G04 Created by KiCad (PCBNEW 5.1.10-5.1.10) date 2021-07-11 16:52:34*
%MOMM*%
%LPD*%
G01*
G04 APERTURE LIST*
%ADD10C,0.250000*%
%ADD11C,0.200000*%
%ADD12C,0.150000*%
%ADD13C,0.120000*%
%ADD14C,2.150000*%
%ADD15C,2.650000*%
%ADD16C,4.387800*%
%ADD17C,3.448000*%
%ADD18O,2.000000X2.000000*%
G04 APERTURE END LIST*
D10*
X58974107Y-120341964D02*
X58802678Y-120399107D01*
X58516964Y-120399107D01*
X58402678Y-120341964D01*
X58345535Y-120284821D01*
X58288392Y-120170535D01*
X58288392Y-120056250D01*
X58345535Y-119941964D01*
X58402678Y-119884821D01*
X58516964Y-119827678D01*
X58745535Y-119770535D01*
X58859821Y-119713392D01*
X58916964Y-119656250D01*
X58974107Y-119541964D01*
X58974107Y-119427678D01*
X58916964Y-119313392D01*
X58859821Y-119256250D01*
X58745535Y-119199107D01*
X58459821Y-119199107D01*
X58288392Y-119256250D01*
X57602678Y-120399107D02*
X57716964Y-120341964D01*
X57774107Y-120284821D01*
X57831250Y-120170535D01*
X57831250Y-119827678D01*
X57774107Y-119713392D01*
X57716964Y-119656250D01*
X57602678Y-119599107D01*
X57431250Y-119599107D01*
X57316964Y-119656250D01*
X57259821Y-119713392D01*
X57202678Y-119827678D01*
X57202678Y-120170535D01*
X57259821Y-120284821D01*
X57316964Y-120341964D01*
X57431250Y-120399107D01*
X57602678Y-120399107D01*
X56802678Y-119599107D02*
X56516964Y-120399107D01*
X56231250Y-119599107D02*
X56516964Y-120399107D01*
X56631250Y-120684821D01*
X56688392Y-120741964D01*
X56802678Y-120799107D01*
X55259821Y-119599107D02*
X55259821Y-120399107D01*
X55774107Y-119599107D02*
X55774107Y-120227678D01*
X55716964Y-120341964D01*
X55602678Y-120399107D01*
X55431250Y-120399107D01*
X55316964Y-120341964D01*
X55259821Y-120284821D01*
X54802678Y-119599107D02*
X54174107Y-119599107D01*
X54802678Y-120399107D01*
X54174107Y-120399107D01*
X52802678Y-120399107D02*
X52802678Y-119199107D01*
X52345535Y-119199107D01*
X52231250Y-119256250D01*
X52174107Y-119313392D01*
X52116964Y-119427678D01*
X52116964Y-119599107D01*
X52174107Y-119713392D01*
X52231250Y-119770535D01*
X52345535Y-119827678D01*
X52802678Y-119827678D01*
X50916964Y-120284821D02*
X50974107Y-120341964D01*
X51145535Y-120399107D01*
X51259821Y-120399107D01*
X51431250Y-120341964D01*
X51545535Y-120227678D01*
X51602678Y-120113392D01*
X51659821Y-119884821D01*
X51659821Y-119713392D01*
X51602678Y-119484821D01*
X51545535Y-119370535D01*
X51431250Y-119256250D01*
X51259821Y-119199107D01*
X51145535Y-119199107D01*
X50974107Y-119256250D01*
X50916964Y-119313392D01*
X50002678Y-119770535D02*
X49831250Y-119827678D01*
X49774107Y-119884821D01*
X49716964Y-119999107D01*
X49716964Y-120170535D01*
X49774107Y-120284821D01*
X49831250Y-120341964D01*
X49945535Y-120399107D01*
X50402678Y-120399107D01*
X50402678Y-119199107D01*
X50002678Y-119199107D01*
X49888392Y-119256250D01*
X49831250Y-119313392D01*
X49774107Y-119427678D01*
X49774107Y-119541964D01*
X49831250Y-119656250D01*
X49888392Y-119713392D01*
X50002678Y-119770535D01*
X50402678Y-119770535D01*
X47602678Y-120399107D02*
X48002678Y-119827678D01*
X48288392Y-120399107D02*
X48288392Y-119199107D01*
X47831250Y-119199107D01*
X47716964Y-119256250D01*
X47659821Y-119313392D01*
X47602678Y-119427678D01*
X47602678Y-119599107D01*
X47659821Y-119713392D01*
X47716964Y-119770535D01*
X47831250Y-119827678D01*
X48288392Y-119827678D01*
X46459821Y-120399107D02*
X47145535Y-120399107D01*
X46802678Y-120399107D02*
X46802678Y-119199107D01*
X46916964Y-119370535D01*
X47031250Y-119484821D01*
X47145535Y-119541964D01*
X45945535Y-120284821D02*
X45888392Y-120341964D01*
X45945535Y-120399107D01*
X46002678Y-120341964D01*
X45945535Y-120284821D01*
X45945535Y-120399107D01*
X45145535Y-119199107D02*
X45031250Y-119199107D01*
X44916964Y-119256250D01*
X44859821Y-119313392D01*
X44802678Y-119427678D01*
X44745535Y-119656250D01*
X44745535Y-119941964D01*
X44802678Y-120170535D01*
X44859821Y-120284821D01*
X44916964Y-120341964D01*
X45031250Y-120399107D01*
X45145535Y-120399107D01*
X45259821Y-120341964D01*
X45316964Y-120284821D01*
X45374107Y-120170535D01*
X45431250Y-119941964D01*
X45431250Y-119656250D01*
X45374107Y-119427678D01*
X45316964Y-119313392D01*
X45259821Y-119256250D01*
X45145535Y-119199107D01*
X43374107Y-119313392D02*
X43316964Y-119256250D01*
X43202678Y-119199107D01*
X42916964Y-119199107D01*
X42802678Y-119256250D01*
X42745535Y-119313392D01*
X42688392Y-119427678D01*
X42688392Y-119541964D01*
X42745535Y-119713392D01*
X43431250Y-120399107D01*
X42688392Y-120399107D01*
X41945535Y-119199107D02*
X41831250Y-119199107D01*
X41716964Y-119256250D01*
X41659821Y-119313392D01*
X41602678Y-119427678D01*
X41545535Y-119656250D01*
X41545535Y-119941964D01*
X41602678Y-120170535D01*
X41659821Y-120284821D01*
X41716964Y-120341964D01*
X41831250Y-120399107D01*
X41945535Y-120399107D01*
X42059821Y-120341964D01*
X42116964Y-120284821D01*
X42174107Y-120170535D01*
X42231250Y-119941964D01*
X42231250Y-119656250D01*
X42174107Y-119427678D01*
X42116964Y-119313392D01*
X42059821Y-119256250D01*
X41945535Y-119199107D01*
X40402678Y-120399107D02*
X41088392Y-120399107D01*
X40745535Y-120399107D02*
X40745535Y-119199107D01*
X40859821Y-119370535D01*
X40974107Y-119484821D01*
X41088392Y-119541964D01*
X39831250Y-120399107D02*
X39602678Y-120399107D01*
X39488392Y-120341964D01*
X39431250Y-120284821D01*
X39316964Y-120113392D01*
X39259821Y-119884821D01*
X39259821Y-119427678D01*
X39316964Y-119313392D01*
X39374107Y-119256250D01*
X39488392Y-119199107D01*
X39716964Y-119199107D01*
X39831250Y-119256250D01*
X39888392Y-119313392D01*
X39945535Y-119427678D01*
X39945535Y-119713392D01*
X39888392Y-119827678D01*
X39831250Y-119884821D01*
X39716964Y-119941964D01*
X39488392Y-119941964D01*
X39374107Y-119884821D01*
X39316964Y-119827678D01*
X39259821Y-119713392D01*
X38516964Y-119199107D02*
X38402678Y-119199107D01*
X38288392Y-119256250D01*
X38231250Y-119313392D01*
X38174107Y-119427678D01*
X38116964Y-119656250D01*
X38116964Y-119941964D01*
X38174107Y-120170535D01*
X38231250Y-120284821D01*
X38288392Y-120341964D01*
X38402678Y-120399107D01*
X38516964Y-120399107D01*
X38631250Y-120341964D01*
X38688392Y-120284821D01*
X38745535Y-120170535D01*
X38802678Y-119941964D01*
X38802678Y-119656250D01*
X38745535Y-119427678D01*
X38688392Y-119313392D01*
X38631250Y-119256250D01*
X38516964Y-119199107D01*
X36974107Y-120399107D02*
X37659821Y-120399107D01*
X37316964Y-120399107D02*
X37316964Y-119199107D01*
X37431250Y-119370535D01*
X37545535Y-119484821D01*
X37659821Y-119541964D01*
X35831250Y-120399107D02*
X36516964Y-120399107D01*
X36174107Y-120399107D02*
X36174107Y-119199107D01*
X36288392Y-119370535D01*
X36402678Y-119484821D01*
X36516964Y-119541964D01*
X35431250Y-119199107D02*
X34688392Y-119199107D01*
X35088392Y-119656250D01*
X34916964Y-119656250D01*
X34802678Y-119713392D01*
X34745535Y-119770535D01*
X34688392Y-119884821D01*
X34688392Y-120170535D01*
X34745535Y-120284821D01*
X34802678Y-120341964D01*
X34916964Y-120399107D01*
X35259821Y-120399107D01*
X35374107Y-120341964D01*
X35431250Y-120284821D01*
X80006250Y-120399107D02*
X80006250Y-119199107D01*
X79891964Y-119941964D02*
X79549107Y-120399107D01*
X79549107Y-119599107D02*
X80006250Y-120056250D01*
X79034821Y-120399107D02*
X79034821Y-119199107D01*
X79034821Y-119656250D02*
X78920535Y-119599107D01*
X78691964Y-119599107D01*
X78577678Y-119656250D01*
X78520535Y-119713392D01*
X78463392Y-119827678D01*
X78463392Y-120170535D01*
X78520535Y-120284821D01*
X78577678Y-120341964D01*
X78691964Y-120399107D01*
X78920535Y-120399107D01*
X79034821Y-120341964D01*
X77949107Y-120284821D02*
X77891964Y-120341964D01*
X77949107Y-120399107D01*
X78006250Y-120341964D01*
X77949107Y-120284821D01*
X77949107Y-120399107D01*
X76863392Y-120399107D02*
X76863392Y-119770535D01*
X76920535Y-119656250D01*
X77034821Y-119599107D01*
X77263392Y-119599107D01*
X77377678Y-119656250D01*
X76863392Y-120341964D02*
X76977678Y-120399107D01*
X77263392Y-120399107D01*
X77377678Y-120341964D01*
X77434821Y-120227678D01*
X77434821Y-120113392D01*
X77377678Y-119999107D01*
X77263392Y-119941964D01*
X76977678Y-119941964D01*
X76863392Y-119884821D01*
X76291964Y-120399107D02*
X76291964Y-119599107D01*
X76291964Y-119199107D02*
X76349107Y-119256250D01*
X76291964Y-119313392D01*
X76234821Y-119256250D01*
X76291964Y-119199107D01*
X76291964Y-119313392D01*
X75491964Y-119199107D02*
X75377678Y-119199107D01*
X75263392Y-119256250D01*
X75206250Y-119313392D01*
X75149107Y-119427678D01*
X75091964Y-119656250D01*
X75091964Y-119941964D01*
X75149107Y-120170535D01*
X75206250Y-120284821D01*
X75263392Y-120341964D01*
X75377678Y-120399107D01*
X75491964Y-120399107D01*
X75606250Y-120341964D01*
X75663392Y-120284821D01*
X75720535Y-120170535D01*
X75777678Y-119941964D01*
X75777678Y-119656250D01*
X75720535Y-119427678D01*
X75663392Y-119313392D01*
X75606250Y-119256250D01*
X75491964Y-119199107D01*
X74691964Y-119199107D02*
X73949107Y-119199107D01*
X74349107Y-119656250D01*
X74177678Y-119656250D01*
X74063392Y-119713392D01*
X74006250Y-119770535D01*
X73949107Y-119884821D01*
X73949107Y-120170535D01*
X74006250Y-120284821D01*
X74063392Y-120341964D01*
X74177678Y-120399107D01*
X74520535Y-120399107D01*
X74634821Y-120341964D01*
X74691964Y-120284821D01*
X73434821Y-120284821D02*
X73377678Y-120341964D01*
X73434821Y-120399107D01*
X73491964Y-120341964D01*
X73434821Y-120284821D01*
X73434821Y-120399107D01*
X72863392Y-120399107D02*
X72863392Y-119599107D01*
X72863392Y-119713392D02*
X72806250Y-119656250D01*
X72691964Y-119599107D01*
X72520535Y-119599107D01*
X72406250Y-119656250D01*
X72349107Y-119770535D01*
X72349107Y-120399107D01*
X72349107Y-119770535D02*
X72291964Y-119656250D01*
X72177678Y-119599107D01*
X72006250Y-119599107D01*
X71891964Y-119656250D01*
X71834821Y-119770535D01*
X71834821Y-120399107D01*
X70806250Y-120341964D02*
X70920535Y-120399107D01*
X71149107Y-120399107D01*
X71263392Y-120341964D01*
X71320535Y-120227678D01*
X71320535Y-119770535D01*
X71263392Y-119656250D01*
X71149107Y-119599107D01*
X70920535Y-119599107D01*
X70806250Y-119656250D01*
X70749107Y-119770535D01*
X70749107Y-119884821D01*
X71320535Y-119999107D01*
D11*
X65405000Y-32639000D02*
X67310000Y-32639000D01*
X65405000Y-34671000D02*
X65405000Y-32639000D01*
X67310000Y-34671000D02*
X65405000Y-34671000D01*
X67310000Y-32639000D02*
X67310000Y-34671000D01*
X62142261Y-43883630D02*
X62142261Y-42883630D01*
X61761309Y-42883630D01*
X61666071Y-42931250D01*
X61618452Y-42978869D01*
X61570833Y-43074107D01*
X61570833Y-43216964D01*
X61618452Y-43312202D01*
X61666071Y-43359821D01*
X61761309Y-43407440D01*
X62142261Y-43407440D01*
X61142261Y-43883630D02*
X61142261Y-43216964D01*
X61142261Y-43407440D02*
X61094642Y-43312202D01*
X61047023Y-43264583D01*
X60951785Y-43216964D01*
X60856547Y-43216964D01*
X60380357Y-43883630D02*
X60475595Y-43836011D01*
X60523214Y-43788392D01*
X60570833Y-43693154D01*
X60570833Y-43407440D01*
X60523214Y-43312202D01*
X60475595Y-43264583D01*
X60380357Y-43216964D01*
X60237500Y-43216964D01*
X60142261Y-43264583D01*
X60094642Y-43312202D01*
X60047023Y-43407440D01*
X60047023Y-43693154D01*
X60094642Y-43788392D01*
X60142261Y-43836011D01*
X60237500Y-43883630D01*
X60380357Y-43883630D01*
X58856547Y-43883630D02*
X58856547Y-42883630D01*
X58523214Y-43597916D01*
X58189880Y-42883630D01*
X58189880Y-43883630D01*
X57713690Y-43883630D02*
X57713690Y-43216964D01*
X57713690Y-42883630D02*
X57761309Y-42931250D01*
X57713690Y-42978869D01*
X57666071Y-42931250D01*
X57713690Y-42883630D01*
X57713690Y-42978869D01*
X56808928Y-43836011D02*
X56904166Y-43883630D01*
X57094642Y-43883630D01*
X57189880Y-43836011D01*
X57237500Y-43788392D01*
X57285119Y-43693154D01*
X57285119Y-43407440D01*
X57237500Y-43312202D01*
X57189880Y-43264583D01*
X57094642Y-43216964D01*
X56904166Y-43216964D01*
X56808928Y-43264583D01*
X56380357Y-43883630D02*
X56380357Y-43216964D01*
X56380357Y-43407440D02*
X56332738Y-43312202D01*
X56285119Y-43264583D01*
X56189880Y-43216964D01*
X56094642Y-43216964D01*
X55618452Y-43883630D02*
X55713690Y-43836011D01*
X55761309Y-43788392D01*
X55808928Y-43693154D01*
X55808928Y-43407440D01*
X55761309Y-43312202D01*
X55713690Y-43264583D01*
X55618452Y-43216964D01*
X55475595Y-43216964D01*
X55380357Y-43264583D01*
X55332738Y-43312202D01*
X55285119Y-43407440D01*
X55285119Y-43693154D01*
X55332738Y-43788392D01*
X55380357Y-43836011D01*
X55475595Y-43883630D01*
X55618452Y-43883630D01*
X63975595Y-47188392D02*
X64023214Y-47236011D01*
X64166071Y-47283630D01*
X64261309Y-47283630D01*
X64404166Y-47236011D01*
X64499404Y-47140773D01*
X64547023Y-47045535D01*
X64594642Y-46855059D01*
X64594642Y-46712202D01*
X64547023Y-46521726D01*
X64499404Y-46426488D01*
X64404166Y-46331250D01*
X64261309Y-46283630D01*
X64166071Y-46283630D01*
X64023214Y-46331250D01*
X63975595Y-46378869D01*
X63404166Y-47283630D02*
X63499404Y-47236011D01*
X63547023Y-47188392D01*
X63594642Y-47093154D01*
X63594642Y-46807440D01*
X63547023Y-46712202D01*
X63499404Y-46664583D01*
X63404166Y-46616964D01*
X63261309Y-46616964D01*
X63166071Y-46664583D01*
X63118452Y-46712202D01*
X63070833Y-46807440D01*
X63070833Y-47093154D01*
X63118452Y-47188392D01*
X63166071Y-47236011D01*
X63261309Y-47283630D01*
X63404166Y-47283630D01*
X62642261Y-47283630D02*
X62642261Y-46616964D01*
X62642261Y-46712202D02*
X62594642Y-46664583D01*
X62499404Y-46616964D01*
X62356547Y-46616964D01*
X62261309Y-46664583D01*
X62213690Y-46759821D01*
X62213690Y-47283630D01*
X62213690Y-46759821D02*
X62166071Y-46664583D01*
X62070833Y-46616964D01*
X61927976Y-46616964D01*
X61832738Y-46664583D01*
X61785119Y-46759821D01*
X61785119Y-47283630D01*
X61308928Y-46616964D02*
X61308928Y-47616964D01*
X61308928Y-46664583D02*
X61213690Y-46616964D01*
X61023214Y-46616964D01*
X60927976Y-46664583D01*
X60880357Y-46712202D01*
X60832738Y-46807440D01*
X60832738Y-47093154D01*
X60880357Y-47188392D01*
X60927976Y-47236011D01*
X61023214Y-47283630D01*
X61213690Y-47283630D01*
X61308928Y-47236011D01*
X60261309Y-47283630D02*
X60356547Y-47236011D01*
X60404166Y-47188392D01*
X60451785Y-47093154D01*
X60451785Y-46807440D01*
X60404166Y-46712202D01*
X60356547Y-46664583D01*
X60261309Y-46616964D01*
X60118452Y-46616964D01*
X60023214Y-46664583D01*
X59975595Y-46712202D01*
X59927976Y-46807440D01*
X59927976Y-47093154D01*
X59975595Y-47188392D01*
X60023214Y-47236011D01*
X60118452Y-47283630D01*
X60261309Y-47283630D01*
X59499404Y-46616964D02*
X59499404Y-47283630D01*
X59499404Y-46712202D02*
X59451785Y-46664583D01*
X59356547Y-46616964D01*
X59213690Y-46616964D01*
X59118452Y-46664583D01*
X59070833Y-46759821D01*
X59070833Y-47283630D01*
X58213690Y-47236011D02*
X58308928Y-47283630D01*
X58499404Y-47283630D01*
X58594642Y-47236011D01*
X58642261Y-47140773D01*
X58642261Y-46759821D01*
X58594642Y-46664583D01*
X58499404Y-46616964D01*
X58308928Y-46616964D01*
X58213690Y-46664583D01*
X58166071Y-46759821D01*
X58166071Y-46855059D01*
X58642261Y-46950297D01*
X57737500Y-46616964D02*
X57737500Y-47283630D01*
X57737500Y-46712202D02*
X57689880Y-46664583D01*
X57594642Y-46616964D01*
X57451785Y-46616964D01*
X57356547Y-46664583D01*
X57308928Y-46759821D01*
X57308928Y-47283630D01*
X56975595Y-46616964D02*
X56594642Y-46616964D01*
X56832738Y-46283630D02*
X56832738Y-47140773D01*
X56785119Y-47236011D01*
X56689880Y-47283630D01*
X56594642Y-47283630D01*
X55547023Y-47236011D02*
X55451785Y-47283630D01*
X55261309Y-47283630D01*
X55166071Y-47236011D01*
X55118452Y-47140773D01*
X55118452Y-47093154D01*
X55166071Y-46997916D01*
X55261309Y-46950297D01*
X55404166Y-46950297D01*
X55499404Y-46902678D01*
X55547023Y-46807440D01*
X55547023Y-46759821D01*
X55499404Y-46664583D01*
X55404166Y-46616964D01*
X55261309Y-46616964D01*
X55166071Y-46664583D01*
X54689880Y-47283630D02*
X54689880Y-46616964D01*
X54689880Y-46283630D02*
X54737500Y-46331250D01*
X54689880Y-46378869D01*
X54642261Y-46331250D01*
X54689880Y-46283630D01*
X54689880Y-46378869D01*
X53785119Y-47283630D02*
X53785119Y-46283630D01*
X53785119Y-47236011D02*
X53880357Y-47283630D01*
X54070833Y-47283630D01*
X54166071Y-47236011D01*
X54213690Y-47188392D01*
X54261309Y-47093154D01*
X54261309Y-46807440D01*
X54213690Y-46712202D01*
X54166071Y-46664583D01*
X54070833Y-46616964D01*
X53880357Y-46616964D01*
X53785119Y-46664583D01*
X52927976Y-47236011D02*
X53023214Y-47283630D01*
X53213690Y-47283630D01*
X53308928Y-47236011D01*
X53356547Y-47140773D01*
X53356547Y-46759821D01*
X53308928Y-46664583D01*
X53213690Y-46616964D01*
X53023214Y-46616964D01*
X52927976Y-46664583D01*
X52880357Y-46759821D01*
X52880357Y-46855059D01*
X53356547Y-46950297D01*
X62832738Y-48316964D02*
X62451785Y-48316964D01*
X62689880Y-48983630D02*
X62689880Y-48126488D01*
X62642261Y-48031250D01*
X62547023Y-47983630D01*
X62451785Y-47983630D01*
X61689880Y-48983630D02*
X61689880Y-48459821D01*
X61737500Y-48364583D01*
X61832738Y-48316964D01*
X62023214Y-48316964D01*
X62118452Y-48364583D01*
X61689880Y-48936011D02*
X61785119Y-48983630D01*
X62023214Y-48983630D01*
X62118452Y-48936011D01*
X62166071Y-48840773D01*
X62166071Y-48745535D01*
X62118452Y-48650297D01*
X62023214Y-48602678D01*
X61785119Y-48602678D01*
X61689880Y-48555059D01*
X60785119Y-48936011D02*
X60880357Y-48983630D01*
X61070833Y-48983630D01*
X61166071Y-48936011D01*
X61213690Y-48888392D01*
X61261309Y-48793154D01*
X61261309Y-48507440D01*
X61213690Y-48412202D01*
X61166071Y-48364583D01*
X61070833Y-48316964D01*
X60880357Y-48316964D01*
X60785119Y-48364583D01*
X59975595Y-48936011D02*
X60070833Y-48983630D01*
X60261309Y-48983630D01*
X60356547Y-48936011D01*
X60404166Y-48840773D01*
X60404166Y-48459821D01*
X60356547Y-48364583D01*
X60261309Y-48316964D01*
X60070833Y-48316964D01*
X59975595Y-48364583D01*
X59927976Y-48459821D01*
X59927976Y-48555059D01*
X60404166Y-48650297D01*
X59547023Y-48936011D02*
X59451785Y-48983630D01*
X59261309Y-48983630D01*
X59166071Y-48936011D01*
X59118452Y-48840773D01*
X59118452Y-48793154D01*
X59166071Y-48697916D01*
X59261309Y-48650297D01*
X59404166Y-48650297D01*
X59499404Y-48602678D01*
X59547023Y-48507440D01*
X59547023Y-48459821D01*
X59499404Y-48364583D01*
X59404166Y-48316964D01*
X59261309Y-48316964D01*
X59166071Y-48364583D01*
X57499404Y-48983630D02*
X57499404Y-48459821D01*
X57547023Y-48364583D01*
X57642261Y-48316964D01*
X57832738Y-48316964D01*
X57927976Y-48364583D01*
X57499404Y-48936011D02*
X57594642Y-48983630D01*
X57832738Y-48983630D01*
X57927976Y-48936011D01*
X57975595Y-48840773D01*
X57975595Y-48745535D01*
X57927976Y-48650297D01*
X57832738Y-48602678D01*
X57594642Y-48602678D01*
X57499404Y-48555059D01*
X57118452Y-48316964D02*
X56927976Y-48983630D01*
X56737499Y-48507440D01*
X56547023Y-48983630D01*
X56356547Y-48316964D01*
X55547023Y-48983630D02*
X55547023Y-48459821D01*
X55594642Y-48364583D01*
X55689880Y-48316964D01*
X55880357Y-48316964D01*
X55975595Y-48364583D01*
X55547023Y-48936011D02*
X55642261Y-48983630D01*
X55880357Y-48983630D01*
X55975595Y-48936011D01*
X56023214Y-48840773D01*
X56023214Y-48745535D01*
X55975595Y-48650297D01*
X55880357Y-48602678D01*
X55642261Y-48602678D01*
X55547023Y-48555059D01*
X55166071Y-48316964D02*
X54927976Y-48983630D01*
X54689880Y-48316964D02*
X54927976Y-48983630D01*
X55023214Y-49221726D01*
X55070833Y-49269345D01*
X55166071Y-49316964D01*
X62237500Y-50016964D02*
X61856547Y-50016964D01*
X62094642Y-50683630D02*
X62094642Y-49826488D01*
X62047023Y-49731250D01*
X61951785Y-49683630D01*
X61856547Y-49683630D01*
X61523214Y-50683630D02*
X61523214Y-50016964D01*
X61523214Y-50207440D02*
X61475595Y-50112202D01*
X61427976Y-50064583D01*
X61332738Y-50016964D01*
X61237500Y-50016964D01*
X60761309Y-50683630D02*
X60856547Y-50636011D01*
X60904166Y-50588392D01*
X60951785Y-50493154D01*
X60951785Y-50207440D01*
X60904166Y-50112202D01*
X60856547Y-50064583D01*
X60761309Y-50016964D01*
X60618452Y-50016964D01*
X60523214Y-50064583D01*
X60475595Y-50112202D01*
X60427976Y-50207440D01*
X60427976Y-50493154D01*
X60475595Y-50588392D01*
X60523214Y-50636011D01*
X60618452Y-50683630D01*
X60761309Y-50683630D01*
X59999404Y-50683630D02*
X59999404Y-50016964D01*
X59999404Y-50112202D02*
X59951785Y-50064583D01*
X59856547Y-50016964D01*
X59713690Y-50016964D01*
X59618452Y-50064583D01*
X59570833Y-50159821D01*
X59570833Y-50683630D01*
X59570833Y-50159821D02*
X59523214Y-50064583D01*
X59427976Y-50016964D01*
X59285119Y-50016964D01*
X59189880Y-50064583D01*
X59142261Y-50159821D01*
X59142261Y-50683630D01*
X57904166Y-50683630D02*
X57904166Y-49683630D01*
X57523214Y-49683630D01*
X57427976Y-49731250D01*
X57380357Y-49778869D01*
X57332738Y-49874107D01*
X57332738Y-50016964D01*
X57380357Y-50112202D01*
X57427976Y-50159821D01*
X57523214Y-50207440D01*
X57904166Y-50207440D01*
X56332738Y-50588392D02*
X56380357Y-50636011D01*
X56523214Y-50683630D01*
X56618452Y-50683630D01*
X56761309Y-50636011D01*
X56856547Y-50540773D01*
X56904166Y-50445535D01*
X56951785Y-50255059D01*
X56951785Y-50112202D01*
X56904166Y-49921726D01*
X56856547Y-49826488D01*
X56761309Y-49731250D01*
X56618452Y-49683630D01*
X56523214Y-49683630D01*
X56380357Y-49731250D01*
X56332738Y-49778869D01*
X55570833Y-50159821D02*
X55427976Y-50207440D01*
X55380357Y-50255059D01*
X55332738Y-50350297D01*
X55332738Y-50493154D01*
X55380357Y-50588392D01*
X55427976Y-50636011D01*
X55523214Y-50683630D01*
X55904166Y-50683630D01*
X55904166Y-49683630D01*
X55570833Y-49683630D01*
X55475595Y-49731250D01*
X55427976Y-49778869D01*
X55380357Y-49874107D01*
X55380357Y-49969345D01*
X55427976Y-50064583D01*
X55475595Y-50112202D01*
X55570833Y-50159821D01*
X55904166Y-50159821D01*
D12*
X49847500Y-62865000D02*
X67627500Y-62865000D01*
X49847500Y-32385000D02*
X49847500Y-62865000D01*
X54927500Y-32385000D02*
X49847500Y-32385000D01*
X54927500Y-29845000D02*
X54927500Y-32385000D01*
X62547500Y-29845000D02*
X54927500Y-29845000D01*
X62547500Y-32385000D02*
X62547500Y-29845000D01*
X67627500Y-32385000D02*
X62547500Y-32385000D01*
X67627500Y-32385000D02*
X67627500Y-62865000D01*
X52212500Y-90312500D02*
X52212500Y-84312500D01*
X52212500Y-84312500D02*
X46212500Y-84312500D01*
X46212500Y-84312500D02*
X46212500Y-90312500D01*
X46212500Y-90312500D02*
X52212500Y-90312500D01*
X51008551Y-87312500D02*
G75*
G03*
X51008551Y-87312500I-1796051J0D01*
G01*
D13*
X36992500Y-50272500D02*
X36992500Y-48152500D01*
X36992500Y-48152500D02*
X41112500Y-48152500D01*
X41112500Y-48152500D02*
X41112500Y-50272500D01*
X41112500Y-50272500D02*
X36992500Y-50272500D01*
X36222500Y-49212500D02*
X36992500Y-49212500D01*
X41882500Y-49212500D02*
X41112500Y-49212500D01*
X37652500Y-50272500D02*
X37652500Y-48152500D01*
X56042500Y-69322500D02*
X56042500Y-67202500D01*
X56042500Y-67202500D02*
X60162500Y-67202500D01*
X60162500Y-67202500D02*
X60162500Y-69322500D01*
X60162500Y-69322500D02*
X56042500Y-69322500D01*
X55272500Y-68262500D02*
X56042500Y-68262500D01*
X60932500Y-68262500D02*
X60162500Y-68262500D01*
X56702500Y-69322500D02*
X56702500Y-67202500D01*
X88372500Y-41906250D02*
X86252500Y-41906250D01*
X86252500Y-41906250D02*
X86252500Y-37786250D01*
X86252500Y-37786250D02*
X88372500Y-37786250D01*
X88372500Y-37786250D02*
X88372500Y-41906250D01*
X87312500Y-42676250D02*
X87312500Y-41906250D01*
X87312500Y-37016250D02*
X87312500Y-37786250D01*
X88372500Y-41246250D02*
X86252500Y-41246250D01*
X94802500Y-50272500D02*
X94802500Y-48152500D01*
X99032500Y-49212500D02*
X98262500Y-49212500D01*
X93372500Y-49212500D02*
X94142500Y-49212500D01*
X98262500Y-50272500D02*
X94142500Y-50272500D01*
X98262500Y-48152500D02*
X98262500Y-50272500D01*
X94142500Y-48152500D02*
X98262500Y-48152500D01*
X94142500Y-50272500D02*
X94142500Y-48152500D01*
X36992500Y-69322500D02*
X36992500Y-67202500D01*
X36992500Y-67202500D02*
X41112500Y-67202500D01*
X41112500Y-67202500D02*
X41112500Y-69322500D01*
X41112500Y-69322500D02*
X36992500Y-69322500D01*
X36222500Y-68262500D02*
X36992500Y-68262500D01*
X41882500Y-68262500D02*
X41112500Y-68262500D01*
X37652500Y-69322500D02*
X37652500Y-67202500D01*
X75752500Y-69322500D02*
X75752500Y-67202500D01*
X79982500Y-68262500D02*
X79212500Y-68262500D01*
X74322500Y-68262500D02*
X75092500Y-68262500D01*
X79212500Y-69322500D02*
X75092500Y-69322500D01*
X79212500Y-67202500D02*
X79212500Y-69322500D01*
X75092500Y-67202500D02*
X79212500Y-67202500D01*
X75092500Y-69322500D02*
X75092500Y-67202500D01*
X75092500Y-50272500D02*
X75092500Y-48152500D01*
X75092500Y-48152500D02*
X79212500Y-48152500D01*
X79212500Y-48152500D02*
X79212500Y-50272500D01*
X79212500Y-50272500D02*
X75092500Y-50272500D01*
X74322500Y-49212500D02*
X75092500Y-49212500D01*
X79982500Y-49212500D02*
X79212500Y-49212500D01*
X75752500Y-50272500D02*
X75752500Y-48152500D01*
X88372500Y-69821250D02*
X86252500Y-69821250D01*
X87312500Y-65591250D02*
X87312500Y-66361250D01*
X87312500Y-71251250D02*
X87312500Y-70481250D01*
X88372500Y-66361250D02*
X88372500Y-70481250D01*
X86252500Y-66361250D02*
X88372500Y-66361250D01*
X86252500Y-70481250D02*
X86252500Y-66361250D01*
X88372500Y-70481250D02*
X86252500Y-70481250D01*
X50272500Y-78418750D02*
X48152500Y-78418750D01*
X48152500Y-78418750D02*
X48152500Y-74298750D01*
X48152500Y-74298750D02*
X50272500Y-74298750D01*
X50272500Y-74298750D02*
X50272500Y-78418750D01*
X49212500Y-79188750D02*
X49212500Y-78418750D01*
X49212500Y-73528750D02*
X49212500Y-74298750D01*
X50272500Y-77758750D02*
X48152500Y-77758750D01*
X69322500Y-79346250D02*
X67202500Y-79346250D01*
X68262500Y-75116250D02*
X68262500Y-75886250D01*
X68262500Y-80776250D02*
X68262500Y-80006250D01*
X69322500Y-75886250D02*
X69322500Y-80006250D01*
X67202500Y-75886250D02*
X69322500Y-75886250D01*
X67202500Y-80006250D02*
X67202500Y-75886250D01*
X69322500Y-80006250D02*
X67202500Y-80006250D01*
X57312500Y-88372500D02*
X57312500Y-86252500D01*
X57312500Y-86252500D02*
X61432500Y-86252500D01*
X61432500Y-86252500D02*
X61432500Y-88372500D01*
X61432500Y-88372500D02*
X57312500Y-88372500D01*
X56542500Y-87312500D02*
X57312500Y-87312500D01*
X62202500Y-87312500D02*
X61432500Y-87312500D01*
X57972500Y-88372500D02*
X57972500Y-86252500D01*
X94802500Y-88372500D02*
X94802500Y-86252500D01*
X99032500Y-87312500D02*
X98262500Y-87312500D01*
X93372500Y-87312500D02*
X94142500Y-87312500D01*
X98262500Y-88372500D02*
X94142500Y-88372500D01*
X98262500Y-86252500D02*
X98262500Y-88372500D01*
X94142500Y-86252500D02*
X98262500Y-86252500D01*
X94142500Y-88372500D02*
X94142500Y-86252500D01*
X36992500Y-88372500D02*
X36992500Y-86252500D01*
X36992500Y-86252500D02*
X41112500Y-86252500D01*
X41112500Y-86252500D02*
X41112500Y-88372500D01*
X41112500Y-88372500D02*
X36992500Y-88372500D01*
X36222500Y-87312500D02*
X36992500Y-87312500D01*
X41882500Y-87312500D02*
X41112500Y-87312500D01*
X37652500Y-88372500D02*
X37652500Y-86252500D01*
X50272500Y-100326250D02*
X48152500Y-100326250D01*
X48152500Y-100326250D02*
X48152500Y-96206250D01*
X48152500Y-96206250D02*
X50272500Y-96206250D01*
X50272500Y-96206250D02*
X50272500Y-100326250D01*
X49212500Y-101096250D02*
X49212500Y-100326250D01*
X49212500Y-95436250D02*
X49212500Y-96206250D01*
X50272500Y-99666250D02*
X48152500Y-99666250D01*
X69322500Y-98738750D02*
X67202500Y-98738750D01*
X67202500Y-98738750D02*
X67202500Y-94618750D01*
X67202500Y-94618750D02*
X69322500Y-94618750D01*
X69322500Y-94618750D02*
X69322500Y-98738750D01*
X68262500Y-99508750D02*
X68262500Y-98738750D01*
X68262500Y-93848750D02*
X68262500Y-94618750D01*
X69322500Y-98078750D02*
X67202500Y-98078750D01*
X75752500Y-88372500D02*
X75752500Y-86252500D01*
X79982500Y-87312500D02*
X79212500Y-87312500D01*
X74322500Y-87312500D02*
X75092500Y-87312500D01*
X79212500Y-88372500D02*
X75092500Y-88372500D01*
X79212500Y-86252500D02*
X79212500Y-88372500D01*
X75092500Y-86252500D02*
X79212500Y-86252500D01*
X75092500Y-88372500D02*
X75092500Y-86252500D01*
X47311250Y-107422500D02*
X47311250Y-105302500D01*
X47311250Y-105302500D02*
X51431250Y-105302500D01*
X51431250Y-105302500D02*
X51431250Y-107422500D01*
X51431250Y-107422500D02*
X47311250Y-107422500D01*
X46541250Y-106362500D02*
X47311250Y-106362500D01*
X52201250Y-106362500D02*
X51431250Y-106362500D01*
X47971250Y-107422500D02*
X47971250Y-105302500D01*
X69322500Y-117446250D02*
X67202500Y-117446250D01*
X68262500Y-113216250D02*
X68262500Y-113986250D01*
X68262500Y-118876250D02*
X68262500Y-118106250D01*
X69322500Y-113986250D02*
X69322500Y-118106250D01*
X67202500Y-113986250D02*
X69322500Y-113986250D01*
X67202500Y-118106250D02*
X67202500Y-113986250D01*
X69322500Y-118106250D02*
X67202500Y-118106250D01*
X75752500Y-107422500D02*
X75752500Y-105302500D01*
X79982500Y-106362500D02*
X79212500Y-106362500D01*
X74322500Y-106362500D02*
X75092500Y-106362500D01*
X79212500Y-107422500D02*
X75092500Y-107422500D01*
X79212500Y-105302500D02*
X79212500Y-107422500D01*
X75092500Y-105302500D02*
X79212500Y-105302500D01*
X75092500Y-107422500D02*
X75092500Y-105302500D01*
X88372500Y-107921250D02*
X86252500Y-107921250D01*
X87312500Y-103691250D02*
X87312500Y-104461250D01*
X87312500Y-109351250D02*
X87312500Y-108581250D01*
X88372500Y-104461250D02*
X88372500Y-108581250D01*
X86252500Y-104461250D02*
X88372500Y-104461250D01*
X86252500Y-108581250D02*
X86252500Y-104461250D01*
X88372500Y-108581250D02*
X86252500Y-108581250D01*
D12*
X39790595Y-51724880D02*
X39790595Y-50724880D01*
X39552500Y-50724880D01*
X39409642Y-50772500D01*
X39314404Y-50867738D01*
X39266785Y-50962976D01*
X39219166Y-51153452D01*
X39219166Y-51296309D01*
X39266785Y-51486785D01*
X39314404Y-51582023D01*
X39409642Y-51677261D01*
X39552500Y-51724880D01*
X39790595Y-51724880D01*
X38266785Y-51724880D02*
X38838214Y-51724880D01*
X38552500Y-51724880D02*
X38552500Y-50724880D01*
X38647738Y-50867738D01*
X38742976Y-50962976D01*
X38838214Y-51010595D01*
X58840595Y-70774880D02*
X58840595Y-69774880D01*
X58602500Y-69774880D01*
X58459642Y-69822500D01*
X58364404Y-69917738D01*
X58316785Y-70012976D01*
X58269166Y-70203452D01*
X58269166Y-70346309D01*
X58316785Y-70536785D01*
X58364404Y-70632023D01*
X58459642Y-70727261D01*
X58602500Y-70774880D01*
X58840595Y-70774880D01*
X57888214Y-69870119D02*
X57840595Y-69822500D01*
X57745357Y-69774880D01*
X57507261Y-69774880D01*
X57412023Y-69822500D01*
X57364404Y-69870119D01*
X57316785Y-69965357D01*
X57316785Y-70060595D01*
X57364404Y-70203452D01*
X57935833Y-70774880D01*
X57316785Y-70774880D01*
X89824880Y-39108154D02*
X88824880Y-39108154D01*
X88824880Y-39346250D01*
X88872500Y-39489107D01*
X88967738Y-39584345D01*
X89062976Y-39631964D01*
X89253452Y-39679583D01*
X89396309Y-39679583D01*
X89586785Y-39631964D01*
X89682023Y-39584345D01*
X89777261Y-39489107D01*
X89824880Y-39346250D01*
X89824880Y-39108154D01*
X88824880Y-40012916D02*
X88824880Y-40631964D01*
X89205833Y-40298630D01*
X89205833Y-40441488D01*
X89253452Y-40536726D01*
X89301071Y-40584345D01*
X89396309Y-40631964D01*
X89634404Y-40631964D01*
X89729642Y-40584345D01*
X89777261Y-40536726D01*
X89824880Y-40441488D01*
X89824880Y-40155773D01*
X89777261Y-40060535D01*
X89729642Y-40012916D01*
X96940595Y-51724880D02*
X96940595Y-50724880D01*
X96702500Y-50724880D01*
X96559642Y-50772500D01*
X96464404Y-50867738D01*
X96416785Y-50962976D01*
X96369166Y-51153452D01*
X96369166Y-51296309D01*
X96416785Y-51486785D01*
X96464404Y-51582023D01*
X96559642Y-51677261D01*
X96702500Y-51724880D01*
X96940595Y-51724880D01*
X95512023Y-51058214D02*
X95512023Y-51724880D01*
X95750119Y-50677261D02*
X95988214Y-51391547D01*
X95369166Y-51391547D01*
X39790595Y-70774880D02*
X39790595Y-69774880D01*
X39552500Y-69774880D01*
X39409642Y-69822500D01*
X39314404Y-69917738D01*
X39266785Y-70012976D01*
X39219166Y-70203452D01*
X39219166Y-70346309D01*
X39266785Y-70536785D01*
X39314404Y-70632023D01*
X39409642Y-70727261D01*
X39552500Y-70774880D01*
X39790595Y-70774880D01*
X38314404Y-69774880D02*
X38790595Y-69774880D01*
X38838214Y-70251071D01*
X38790595Y-70203452D01*
X38695357Y-70155833D01*
X38457261Y-70155833D01*
X38362023Y-70203452D01*
X38314404Y-70251071D01*
X38266785Y-70346309D01*
X38266785Y-70584404D01*
X38314404Y-70679642D01*
X38362023Y-70727261D01*
X38457261Y-70774880D01*
X38695357Y-70774880D01*
X38790595Y-70727261D01*
X38838214Y-70679642D01*
X77890595Y-70774880D02*
X77890595Y-69774880D01*
X77652500Y-69774880D01*
X77509642Y-69822500D01*
X77414404Y-69917738D01*
X77366785Y-70012976D01*
X77319166Y-70203452D01*
X77319166Y-70346309D01*
X77366785Y-70536785D01*
X77414404Y-70632023D01*
X77509642Y-70727261D01*
X77652500Y-70774880D01*
X77890595Y-70774880D01*
X76462023Y-69774880D02*
X76652500Y-69774880D01*
X76747738Y-69822500D01*
X76795357Y-69870119D01*
X76890595Y-70012976D01*
X76938214Y-70203452D01*
X76938214Y-70584404D01*
X76890595Y-70679642D01*
X76842976Y-70727261D01*
X76747738Y-70774880D01*
X76557261Y-70774880D01*
X76462023Y-70727261D01*
X76414404Y-70679642D01*
X76366785Y-70584404D01*
X76366785Y-70346309D01*
X76414404Y-70251071D01*
X76462023Y-70203452D01*
X76557261Y-70155833D01*
X76747738Y-70155833D01*
X76842976Y-70203452D01*
X76890595Y-70251071D01*
X76938214Y-70346309D01*
X77890595Y-51724880D02*
X77890595Y-50724880D01*
X77652500Y-50724880D01*
X77509642Y-50772500D01*
X77414404Y-50867738D01*
X77366785Y-50962976D01*
X77319166Y-51153452D01*
X77319166Y-51296309D01*
X77366785Y-51486785D01*
X77414404Y-51582023D01*
X77509642Y-51677261D01*
X77652500Y-51724880D01*
X77890595Y-51724880D01*
X76985833Y-50724880D02*
X76319166Y-50724880D01*
X76747738Y-51724880D01*
X89824880Y-67683154D02*
X88824880Y-67683154D01*
X88824880Y-67921250D01*
X88872500Y-68064107D01*
X88967738Y-68159345D01*
X89062976Y-68206964D01*
X89253452Y-68254583D01*
X89396309Y-68254583D01*
X89586785Y-68206964D01*
X89682023Y-68159345D01*
X89777261Y-68064107D01*
X89824880Y-67921250D01*
X89824880Y-67683154D01*
X89253452Y-68826011D02*
X89205833Y-68730773D01*
X89158214Y-68683154D01*
X89062976Y-68635535D01*
X89015357Y-68635535D01*
X88920119Y-68683154D01*
X88872500Y-68730773D01*
X88824880Y-68826011D01*
X88824880Y-69016488D01*
X88872500Y-69111726D01*
X88920119Y-69159345D01*
X89015357Y-69206964D01*
X89062976Y-69206964D01*
X89158214Y-69159345D01*
X89205833Y-69111726D01*
X89253452Y-69016488D01*
X89253452Y-68826011D01*
X89301071Y-68730773D01*
X89348690Y-68683154D01*
X89443928Y-68635535D01*
X89634404Y-68635535D01*
X89729642Y-68683154D01*
X89777261Y-68730773D01*
X89824880Y-68826011D01*
X89824880Y-69016488D01*
X89777261Y-69111726D01*
X89729642Y-69159345D01*
X89634404Y-69206964D01*
X89443928Y-69206964D01*
X89348690Y-69159345D01*
X89301071Y-69111726D01*
X89253452Y-69016488D01*
X51724880Y-75620654D02*
X50724880Y-75620654D01*
X50724880Y-75858750D01*
X50772500Y-76001607D01*
X50867738Y-76096845D01*
X50962976Y-76144464D01*
X51153452Y-76192083D01*
X51296309Y-76192083D01*
X51486785Y-76144464D01*
X51582023Y-76096845D01*
X51677261Y-76001607D01*
X51724880Y-75858750D01*
X51724880Y-75620654D01*
X51724880Y-76668273D02*
X51724880Y-76858750D01*
X51677261Y-76953988D01*
X51629642Y-77001607D01*
X51486785Y-77096845D01*
X51296309Y-77144464D01*
X50915357Y-77144464D01*
X50820119Y-77096845D01*
X50772500Y-77049226D01*
X50724880Y-76953988D01*
X50724880Y-76763511D01*
X50772500Y-76668273D01*
X50820119Y-76620654D01*
X50915357Y-76573035D01*
X51153452Y-76573035D01*
X51248690Y-76620654D01*
X51296309Y-76668273D01*
X51343928Y-76763511D01*
X51343928Y-76953988D01*
X51296309Y-77049226D01*
X51248690Y-77096845D01*
X51153452Y-77144464D01*
X70774880Y-76731964D02*
X69774880Y-76731964D01*
X69774880Y-76970059D01*
X69822500Y-77112916D01*
X69917738Y-77208154D01*
X70012976Y-77255773D01*
X70203452Y-77303392D01*
X70346309Y-77303392D01*
X70536785Y-77255773D01*
X70632023Y-77208154D01*
X70727261Y-77112916D01*
X70774880Y-76970059D01*
X70774880Y-76731964D01*
X70774880Y-78255773D02*
X70774880Y-77684345D01*
X70774880Y-77970059D02*
X69774880Y-77970059D01*
X69917738Y-77874821D01*
X70012976Y-77779583D01*
X70060595Y-77684345D01*
X69774880Y-78874821D02*
X69774880Y-78970059D01*
X69822500Y-79065297D01*
X69870119Y-79112916D01*
X69965357Y-79160535D01*
X70155833Y-79208154D01*
X70393928Y-79208154D01*
X70584404Y-79160535D01*
X70679642Y-79112916D01*
X70727261Y-79065297D01*
X70774880Y-78970059D01*
X70774880Y-78874821D01*
X70727261Y-78779583D01*
X70679642Y-78731964D01*
X70584404Y-78684345D01*
X70393928Y-78636726D01*
X70155833Y-78636726D01*
X69965357Y-78684345D01*
X69870119Y-78731964D01*
X69822500Y-78779583D01*
X69774880Y-78874821D01*
X60586785Y-89824880D02*
X60586785Y-88824880D01*
X60348690Y-88824880D01*
X60205833Y-88872500D01*
X60110595Y-88967738D01*
X60062976Y-89062976D01*
X60015357Y-89253452D01*
X60015357Y-89396309D01*
X60062976Y-89586785D01*
X60110595Y-89682023D01*
X60205833Y-89777261D01*
X60348690Y-89824880D01*
X60586785Y-89824880D01*
X59062976Y-89824880D02*
X59634404Y-89824880D01*
X59348690Y-89824880D02*
X59348690Y-88824880D01*
X59443928Y-88967738D01*
X59539166Y-89062976D01*
X59634404Y-89110595D01*
X58110595Y-89824880D02*
X58682023Y-89824880D01*
X58396309Y-89824880D02*
X58396309Y-88824880D01*
X58491547Y-88967738D01*
X58586785Y-89062976D01*
X58682023Y-89110595D01*
X97416785Y-89824880D02*
X97416785Y-88824880D01*
X97178690Y-88824880D01*
X97035833Y-88872500D01*
X96940595Y-88967738D01*
X96892976Y-89062976D01*
X96845357Y-89253452D01*
X96845357Y-89396309D01*
X96892976Y-89586785D01*
X96940595Y-89682023D01*
X97035833Y-89777261D01*
X97178690Y-89824880D01*
X97416785Y-89824880D01*
X95892976Y-89824880D02*
X96464404Y-89824880D01*
X96178690Y-89824880D02*
X96178690Y-88824880D01*
X96273928Y-88967738D01*
X96369166Y-89062976D01*
X96464404Y-89110595D01*
X95512023Y-88920119D02*
X95464404Y-88872500D01*
X95369166Y-88824880D01*
X95131071Y-88824880D01*
X95035833Y-88872500D01*
X94988214Y-88920119D01*
X94940595Y-89015357D01*
X94940595Y-89110595D01*
X94988214Y-89253452D01*
X95559642Y-89824880D01*
X94940595Y-89824880D01*
X40266785Y-89824880D02*
X40266785Y-88824880D01*
X40028690Y-88824880D01*
X39885833Y-88872500D01*
X39790595Y-88967738D01*
X39742976Y-89062976D01*
X39695357Y-89253452D01*
X39695357Y-89396309D01*
X39742976Y-89586785D01*
X39790595Y-89682023D01*
X39885833Y-89777261D01*
X40028690Y-89824880D01*
X40266785Y-89824880D01*
X38742976Y-89824880D02*
X39314404Y-89824880D01*
X39028690Y-89824880D02*
X39028690Y-88824880D01*
X39123928Y-88967738D01*
X39219166Y-89062976D01*
X39314404Y-89110595D01*
X38409642Y-88824880D02*
X37790595Y-88824880D01*
X38123928Y-89205833D01*
X37981071Y-89205833D01*
X37885833Y-89253452D01*
X37838214Y-89301071D01*
X37790595Y-89396309D01*
X37790595Y-89634404D01*
X37838214Y-89729642D01*
X37885833Y-89777261D01*
X37981071Y-89824880D01*
X38266785Y-89824880D01*
X38362023Y-89777261D01*
X38409642Y-89729642D01*
X51724880Y-97051964D02*
X50724880Y-97051964D01*
X50724880Y-97290059D01*
X50772500Y-97432916D01*
X50867738Y-97528154D01*
X50962976Y-97575773D01*
X51153452Y-97623392D01*
X51296309Y-97623392D01*
X51486785Y-97575773D01*
X51582023Y-97528154D01*
X51677261Y-97432916D01*
X51724880Y-97290059D01*
X51724880Y-97051964D01*
X51724880Y-98575773D02*
X51724880Y-98004345D01*
X51724880Y-98290059D02*
X50724880Y-98290059D01*
X50867738Y-98194821D01*
X50962976Y-98099583D01*
X51010595Y-98004345D01*
X51058214Y-99432916D02*
X51724880Y-99432916D01*
X50677261Y-99194821D02*
X51391547Y-98956726D01*
X51391547Y-99575773D01*
X70774880Y-95464464D02*
X69774880Y-95464464D01*
X69774880Y-95702559D01*
X69822500Y-95845416D01*
X69917738Y-95940654D01*
X70012976Y-95988273D01*
X70203452Y-96035892D01*
X70346309Y-96035892D01*
X70536785Y-95988273D01*
X70632023Y-95940654D01*
X70727261Y-95845416D01*
X70774880Y-95702559D01*
X70774880Y-95464464D01*
X70774880Y-96988273D02*
X70774880Y-96416845D01*
X70774880Y-96702559D02*
X69774880Y-96702559D01*
X69917738Y-96607321D01*
X70012976Y-96512083D01*
X70060595Y-96416845D01*
X69774880Y-97893035D02*
X69774880Y-97416845D01*
X70251071Y-97369226D01*
X70203452Y-97416845D01*
X70155833Y-97512083D01*
X70155833Y-97750178D01*
X70203452Y-97845416D01*
X70251071Y-97893035D01*
X70346309Y-97940654D01*
X70584404Y-97940654D01*
X70679642Y-97893035D01*
X70727261Y-97845416D01*
X70774880Y-97750178D01*
X70774880Y-97512083D01*
X70727261Y-97416845D01*
X70679642Y-97369226D01*
X78366785Y-89824880D02*
X78366785Y-88824880D01*
X78128690Y-88824880D01*
X77985833Y-88872500D01*
X77890595Y-88967738D01*
X77842976Y-89062976D01*
X77795357Y-89253452D01*
X77795357Y-89396309D01*
X77842976Y-89586785D01*
X77890595Y-89682023D01*
X77985833Y-89777261D01*
X78128690Y-89824880D01*
X78366785Y-89824880D01*
X76842976Y-89824880D02*
X77414404Y-89824880D01*
X77128690Y-89824880D02*
X77128690Y-88824880D01*
X77223928Y-88967738D01*
X77319166Y-89062976D01*
X77414404Y-89110595D01*
X75985833Y-88824880D02*
X76176309Y-88824880D01*
X76271547Y-88872500D01*
X76319166Y-88920119D01*
X76414404Y-89062976D01*
X76462023Y-89253452D01*
X76462023Y-89634404D01*
X76414404Y-89729642D01*
X76366785Y-89777261D01*
X76271547Y-89824880D01*
X76081071Y-89824880D01*
X75985833Y-89777261D01*
X75938214Y-89729642D01*
X75890595Y-89634404D01*
X75890595Y-89396309D01*
X75938214Y-89301071D01*
X75985833Y-89253452D01*
X76081071Y-89205833D01*
X76271547Y-89205833D01*
X76366785Y-89253452D01*
X76414404Y-89301071D01*
X76462023Y-89396309D01*
X50585535Y-108874880D02*
X50585535Y-107874880D01*
X50347440Y-107874880D01*
X50204583Y-107922500D01*
X50109345Y-108017738D01*
X50061726Y-108112976D01*
X50014107Y-108303452D01*
X50014107Y-108446309D01*
X50061726Y-108636785D01*
X50109345Y-108732023D01*
X50204583Y-108827261D01*
X50347440Y-108874880D01*
X50585535Y-108874880D01*
X49061726Y-108874880D02*
X49633154Y-108874880D01*
X49347440Y-108874880D02*
X49347440Y-107874880D01*
X49442678Y-108017738D01*
X49537916Y-108112976D01*
X49633154Y-108160595D01*
X48728392Y-107874880D02*
X48061726Y-107874880D01*
X48490297Y-108874880D01*
X70774880Y-114831964D02*
X69774880Y-114831964D01*
X69774880Y-115070059D01*
X69822500Y-115212916D01*
X69917738Y-115308154D01*
X70012976Y-115355773D01*
X70203452Y-115403392D01*
X70346309Y-115403392D01*
X70536785Y-115355773D01*
X70632023Y-115308154D01*
X70727261Y-115212916D01*
X70774880Y-115070059D01*
X70774880Y-114831964D01*
X70774880Y-116355773D02*
X70774880Y-115784345D01*
X70774880Y-116070059D02*
X69774880Y-116070059D01*
X69917738Y-115974821D01*
X70012976Y-115879583D01*
X70060595Y-115784345D01*
X70203452Y-116927202D02*
X70155833Y-116831964D01*
X70108214Y-116784345D01*
X70012976Y-116736726D01*
X69965357Y-116736726D01*
X69870119Y-116784345D01*
X69822500Y-116831964D01*
X69774880Y-116927202D01*
X69774880Y-117117678D01*
X69822500Y-117212916D01*
X69870119Y-117260535D01*
X69965357Y-117308154D01*
X70012976Y-117308154D01*
X70108214Y-117260535D01*
X70155833Y-117212916D01*
X70203452Y-117117678D01*
X70203452Y-116927202D01*
X70251071Y-116831964D01*
X70298690Y-116784345D01*
X70393928Y-116736726D01*
X70584404Y-116736726D01*
X70679642Y-116784345D01*
X70727261Y-116831964D01*
X70774880Y-116927202D01*
X70774880Y-117117678D01*
X70727261Y-117212916D01*
X70679642Y-117260535D01*
X70584404Y-117308154D01*
X70393928Y-117308154D01*
X70298690Y-117260535D01*
X70251071Y-117212916D01*
X70203452Y-117117678D01*
X78366785Y-108874880D02*
X78366785Y-107874880D01*
X78128690Y-107874880D01*
X77985833Y-107922500D01*
X77890595Y-108017738D01*
X77842976Y-108112976D01*
X77795357Y-108303452D01*
X77795357Y-108446309D01*
X77842976Y-108636785D01*
X77890595Y-108732023D01*
X77985833Y-108827261D01*
X78128690Y-108874880D01*
X78366785Y-108874880D01*
X76842976Y-108874880D02*
X77414404Y-108874880D01*
X77128690Y-108874880D02*
X77128690Y-107874880D01*
X77223928Y-108017738D01*
X77319166Y-108112976D01*
X77414404Y-108160595D01*
X76366785Y-108874880D02*
X76176309Y-108874880D01*
X76081071Y-108827261D01*
X76033452Y-108779642D01*
X75938214Y-108636785D01*
X75890595Y-108446309D01*
X75890595Y-108065357D01*
X75938214Y-107970119D01*
X75985833Y-107922500D01*
X76081071Y-107874880D01*
X76271547Y-107874880D01*
X76366785Y-107922500D01*
X76414404Y-107970119D01*
X76462023Y-108065357D01*
X76462023Y-108303452D01*
X76414404Y-108398690D01*
X76366785Y-108446309D01*
X76271547Y-108493928D01*
X76081071Y-108493928D01*
X75985833Y-108446309D01*
X75938214Y-108398690D01*
X75890595Y-108303452D01*
X89824880Y-105306964D02*
X88824880Y-105306964D01*
X88824880Y-105545059D01*
X88872500Y-105687916D01*
X88967738Y-105783154D01*
X89062976Y-105830773D01*
X89253452Y-105878392D01*
X89396309Y-105878392D01*
X89586785Y-105830773D01*
X89682023Y-105783154D01*
X89777261Y-105687916D01*
X89824880Y-105545059D01*
X89824880Y-105306964D01*
X88920119Y-106259345D02*
X88872500Y-106306964D01*
X88824880Y-106402202D01*
X88824880Y-106640297D01*
X88872500Y-106735535D01*
X88920119Y-106783154D01*
X89015357Y-106830773D01*
X89110595Y-106830773D01*
X89253452Y-106783154D01*
X89824880Y-106211726D01*
X89824880Y-106830773D01*
X88824880Y-107449821D02*
X88824880Y-107545059D01*
X88872500Y-107640297D01*
X88920119Y-107687916D01*
X89015357Y-107735535D01*
X89205833Y-107783154D01*
X89443928Y-107783154D01*
X89634404Y-107735535D01*
X89729642Y-107687916D01*
X89777261Y-107640297D01*
X89824880Y-107545059D01*
X89824880Y-107449821D01*
X89777261Y-107354583D01*
X89729642Y-107306964D01*
X89634404Y-107259345D01*
X89443928Y-107211726D01*
X89205833Y-107211726D01*
X89015357Y-107259345D01*
X88920119Y-107306964D01*
X88872500Y-107354583D01*
X88824880Y-107449821D01*
%LPC*%
D14*
X44767500Y-39687500D03*
X34607500Y-39687500D03*
D15*
X37187500Y-35687500D03*
D16*
X39687500Y-39687500D03*
G36*
G01*
X34992622Y-38133713D02*
X34992615Y-38133707D01*
G75*
G02*
X34891293Y-36262615I884885J986207D01*
G01*
X36201295Y-34802615D01*
G75*
G02*
X38072387Y-34701293I986207J-884885D01*
G01*
X38072387Y-34701293D01*
G75*
G02*
X38173709Y-36572385I-884885J-986207D01*
G01*
X36863707Y-38032385D01*
G75*
G02*
X34992615Y-38133707I-986207J884885D01*
G01*
G37*
D15*
X42227500Y-34607500D03*
G36*
G01*
X42097380Y-36509432D02*
X42096337Y-36509360D01*
G75*
G02*
X40865640Y-35096337I91163J1321860D01*
G01*
X40905640Y-34516337D01*
G75*
G02*
X42318663Y-33285640I1321860J-91163D01*
G01*
X42318663Y-33285640D01*
G75*
G02*
X43549360Y-34698663I-91163J-1321860D01*
G01*
X43509360Y-35278663D01*
G75*
G02*
X42096337Y-36509360I-1321860J91163D01*
G01*
G37*
D14*
X63817500Y-39687500D03*
X53657500Y-39687500D03*
D15*
X56237500Y-35687500D03*
D16*
X58737500Y-39687500D03*
G36*
G01*
X54042622Y-38133713D02*
X54042615Y-38133707D01*
G75*
G02*
X53941293Y-36262615I884885J986207D01*
G01*
X55251295Y-34802615D01*
G75*
G02*
X57122387Y-34701293I986207J-884885D01*
G01*
X57122387Y-34701293D01*
G75*
G02*
X57223709Y-36572385I-884885J-986207D01*
G01*
X55913707Y-38032385D01*
G75*
G02*
X54042615Y-38133707I-986207J884885D01*
G01*
G37*
D15*
X61277500Y-34607500D03*
G36*
G01*
X61147380Y-36509432D02*
X61146337Y-36509360D01*
G75*
G02*
X59915640Y-35096337I91163J1321860D01*
G01*
X59955640Y-34516337D01*
G75*
G02*
X61368663Y-33285640I1321860J-91163D01*
G01*
X61368663Y-33285640D01*
G75*
G02*
X62599360Y-34698663I-91163J-1321860D01*
G01*
X62559360Y-35278663D01*
G75*
G02*
X61146337Y-36509360I-1321860J91163D01*
G01*
G37*
D14*
X82867500Y-39687500D03*
X72707500Y-39687500D03*
D15*
X75287500Y-35687500D03*
D16*
X77787500Y-39687500D03*
G36*
G01*
X73092622Y-38133713D02*
X73092615Y-38133707D01*
G75*
G02*
X72991293Y-36262615I884885J986207D01*
G01*
X74301295Y-34802615D01*
G75*
G02*
X76172387Y-34701293I986207J-884885D01*
G01*
X76172387Y-34701293D01*
G75*
G02*
X76273709Y-36572385I-884885J-986207D01*
G01*
X74963707Y-38032385D01*
G75*
G02*
X73092615Y-38133707I-986207J884885D01*
G01*
G37*
D15*
X80327500Y-34607500D03*
G36*
G01*
X80197380Y-36509432D02*
X80196337Y-36509360D01*
G75*
G02*
X78965640Y-35096337I91163J1321860D01*
G01*
X79005640Y-34516337D01*
G75*
G02*
X80418663Y-33285640I1321860J-91163D01*
G01*
X80418663Y-33285640D01*
G75*
G02*
X81649360Y-34698663I-91163J-1321860D01*
G01*
X81609360Y-35278663D01*
G75*
G02*
X80196337Y-36509360I-1321860J91163D01*
G01*
G37*
D14*
X101917500Y-39687500D03*
X91757500Y-39687500D03*
D15*
X94337500Y-35687500D03*
D16*
X96837500Y-39687500D03*
G36*
G01*
X92142622Y-38133713D02*
X92142615Y-38133707D01*
G75*
G02*
X92041293Y-36262615I884885J986207D01*
G01*
X93351295Y-34802615D01*
G75*
G02*
X95222387Y-34701293I986207J-884885D01*
G01*
X95222387Y-34701293D01*
G75*
G02*
X95323709Y-36572385I-884885J-986207D01*
G01*
X94013707Y-38032385D01*
G75*
G02*
X92142615Y-38133707I-986207J884885D01*
G01*
G37*
D15*
X99377500Y-34607500D03*
G36*
G01*
X99247380Y-36509432D02*
X99246337Y-36509360D01*
G75*
G02*
X98015640Y-35096337I91163J1321860D01*
G01*
X98055640Y-34516337D01*
G75*
G02*
X99468663Y-33285640I1321860J-91163D01*
G01*
X99468663Y-33285640D01*
G75*
G02*
X100699360Y-34698663I-91163J-1321860D01*
G01*
X100659360Y-35278663D01*
G75*
G02*
X99246337Y-36509360I-1321860J91163D01*
G01*
G37*
D14*
X44767500Y-58737500D03*
X34607500Y-58737500D03*
D15*
X37187500Y-54737500D03*
D16*
X39687500Y-58737500D03*
G36*
G01*
X34992622Y-57183713D02*
X34992615Y-57183707D01*
G75*
G02*
X34891293Y-55312615I884885J986207D01*
G01*
X36201295Y-53852615D01*
G75*
G02*
X38072387Y-53751293I986207J-884885D01*
G01*
X38072387Y-53751293D01*
G75*
G02*
X38173709Y-55622385I-884885J-986207D01*
G01*
X36863707Y-57082385D01*
G75*
G02*
X34992615Y-57183707I-986207J884885D01*
G01*
G37*
D15*
X42227500Y-53657500D03*
G36*
G01*
X42097380Y-55559432D02*
X42096337Y-55559360D01*
G75*
G02*
X40865640Y-54146337I91163J1321860D01*
G01*
X40905640Y-53566337D01*
G75*
G02*
X42318663Y-52335640I1321860J-91163D01*
G01*
X42318663Y-52335640D01*
G75*
G02*
X43549360Y-53748663I-91163J-1321860D01*
G01*
X43509360Y-54328663D01*
G75*
G02*
X42096337Y-55559360I-1321860J91163D01*
G01*
G37*
D14*
X63817500Y-58737500D03*
X53657500Y-58737500D03*
D15*
X56237500Y-54737500D03*
D16*
X58737500Y-58737500D03*
G36*
G01*
X54042622Y-57183713D02*
X54042615Y-57183707D01*
G75*
G02*
X53941293Y-55312615I884885J986207D01*
G01*
X55251295Y-53852615D01*
G75*
G02*
X57122387Y-53751293I986207J-884885D01*
G01*
X57122387Y-53751293D01*
G75*
G02*
X57223709Y-55622385I-884885J-986207D01*
G01*
X55913707Y-57082385D01*
G75*
G02*
X54042615Y-57183707I-986207J884885D01*
G01*
G37*
D15*
X61277500Y-53657500D03*
G36*
G01*
X61147380Y-55559432D02*
X61146337Y-55559360D01*
G75*
G02*
X59915640Y-54146337I91163J1321860D01*
G01*
X59955640Y-53566337D01*
G75*
G02*
X61368663Y-52335640I1321860J-91163D01*
G01*
X61368663Y-52335640D01*
G75*
G02*
X62599360Y-53748663I-91163J-1321860D01*
G01*
X62559360Y-54328663D01*
G75*
G02*
X61146337Y-55559360I-1321860J91163D01*
G01*
G37*
D14*
X82867500Y-58737500D03*
X72707500Y-58737500D03*
D15*
X75287500Y-54737500D03*
D16*
X77787500Y-58737500D03*
G36*
G01*
X73092622Y-57183713D02*
X73092615Y-57183707D01*
G75*
G02*
X72991293Y-55312615I884885J986207D01*
G01*
X74301295Y-53852615D01*
G75*
G02*
X76172387Y-53751293I986207J-884885D01*
G01*
X76172387Y-53751293D01*
G75*
G02*
X76273709Y-55622385I-884885J-986207D01*
G01*
X74963707Y-57082385D01*
G75*
G02*
X73092615Y-57183707I-986207J884885D01*
G01*
G37*
D15*
X80327500Y-53657500D03*
G36*
G01*
X80197380Y-55559432D02*
X80196337Y-55559360D01*
G75*
G02*
X78965640Y-54146337I91163J1321860D01*
G01*
X79005640Y-53566337D01*
G75*
G02*
X80418663Y-52335640I1321860J-91163D01*
G01*
X80418663Y-52335640D01*
G75*
G02*
X81649360Y-53748663I-91163J-1321860D01*
G01*
X81609360Y-54328663D01*
G75*
G02*
X80196337Y-55559360I-1321860J91163D01*
G01*
G37*
D14*
X101917500Y-58737500D03*
X91757500Y-58737500D03*
D15*
X94337500Y-54737500D03*
D16*
X96837500Y-58737500D03*
G36*
G01*
X92142622Y-57183713D02*
X92142615Y-57183707D01*
G75*
G02*
X92041293Y-55312615I884885J986207D01*
G01*
X93351295Y-53852615D01*
G75*
G02*
X95222387Y-53751293I986207J-884885D01*
G01*
X95222387Y-53751293D01*
G75*
G02*
X95323709Y-55622385I-884885J-986207D01*
G01*
X94013707Y-57082385D01*
G75*
G02*
X92142615Y-57183707I-986207J884885D01*
G01*
G37*
D15*
X99377500Y-53657500D03*
G36*
G01*
X99247380Y-55559432D02*
X99246337Y-55559360D01*
G75*
G02*
X98015640Y-54146337I91163J1321860D01*
G01*
X98055640Y-53566337D01*
G75*
G02*
X99468663Y-52335640I1321860J-91163D01*
G01*
X99468663Y-52335640D01*
G75*
G02*
X100699360Y-53748663I-91163J-1321860D01*
G01*
X100659360Y-54328663D01*
G75*
G02*
X99246337Y-55559360I-1321860J91163D01*
G01*
G37*
D16*
X88582500Y-56324500D03*
X88582500Y-80200500D03*
D17*
X103822500Y-56324500D03*
X103822500Y-80200500D03*
D14*
X96837500Y-63182500D03*
X96837500Y-73342500D03*
D15*
X92837500Y-70762500D03*
D16*
X96837500Y-68262500D03*
G36*
G01*
X95283713Y-72957378D02*
X95283707Y-72957385D01*
G75*
G02*
X93412615Y-73058707I-986207J884885D01*
G01*
X91952615Y-71748705D01*
G75*
G02*
X91851293Y-69877613I884885J986207D01*
G01*
X91851293Y-69877613D01*
G75*
G02*
X93722385Y-69776291I986207J-884885D01*
G01*
X95182385Y-71086293D01*
G75*
G02*
X95283707Y-72957385I-884885J-986207D01*
G01*
G37*
D15*
X91757500Y-65722500D03*
G36*
G01*
X93659432Y-65852620D02*
X93659360Y-65853663D01*
G75*
G02*
X92246337Y-67084360I-1321860J91163D01*
G01*
X91666337Y-67044360D01*
G75*
G02*
X90435640Y-65631337I91163J1321860D01*
G01*
X90435640Y-65631337D01*
G75*
G02*
X91848663Y-64400640I1321860J-91163D01*
G01*
X92428663Y-64440640D01*
G75*
G02*
X93659360Y-65853663I-91163J-1321860D01*
G01*
G37*
D14*
X44767500Y-77787500D03*
X34607500Y-77787500D03*
D15*
X37187500Y-73787500D03*
D16*
X39687500Y-77787500D03*
G36*
G01*
X34992622Y-76233713D02*
X34992615Y-76233707D01*
G75*
G02*
X34891293Y-74362615I884885J986207D01*
G01*
X36201295Y-72902615D01*
G75*
G02*
X38072387Y-72801293I986207J-884885D01*
G01*
X38072387Y-72801293D01*
G75*
G02*
X38173709Y-74672385I-884885J-986207D01*
G01*
X36863707Y-76132385D01*
G75*
G02*
X34992615Y-76233707I-986207J884885D01*
G01*
G37*
D15*
X42227500Y-72707500D03*
G36*
G01*
X42097380Y-74609432D02*
X42096337Y-74609360D01*
G75*
G02*
X40865640Y-73196337I91163J1321860D01*
G01*
X40905640Y-72616337D01*
G75*
G02*
X42318663Y-71385640I1321860J-91163D01*
G01*
X42318663Y-71385640D01*
G75*
G02*
X43549360Y-72798663I-91163J-1321860D01*
G01*
X43509360Y-73378663D01*
G75*
G02*
X42096337Y-74609360I-1321860J91163D01*
G01*
G37*
D14*
X63817500Y-77787500D03*
X53657500Y-77787500D03*
D15*
X56237500Y-73787500D03*
D16*
X58737500Y-77787500D03*
G36*
G01*
X54042622Y-76233713D02*
X54042615Y-76233707D01*
G75*
G02*
X53941293Y-74362615I884885J986207D01*
G01*
X55251295Y-72902615D01*
G75*
G02*
X57122387Y-72801293I986207J-884885D01*
G01*
X57122387Y-72801293D01*
G75*
G02*
X57223709Y-74672385I-884885J-986207D01*
G01*
X55913707Y-76132385D01*
G75*
G02*
X54042615Y-76233707I-986207J884885D01*
G01*
G37*
D15*
X61277500Y-72707500D03*
G36*
G01*
X61147380Y-74609432D02*
X61146337Y-74609360D01*
G75*
G02*
X59915640Y-73196337I91163J1321860D01*
G01*
X59955640Y-72616337D01*
G75*
G02*
X61368663Y-71385640I1321860J-91163D01*
G01*
X61368663Y-71385640D01*
G75*
G02*
X62599360Y-72798663I-91163J-1321860D01*
G01*
X62559360Y-73378663D01*
G75*
G02*
X61146337Y-74609360I-1321860J91163D01*
G01*
G37*
D14*
X82867500Y-77787500D03*
X72707500Y-77787500D03*
D15*
X75287500Y-73787500D03*
D16*
X77787500Y-77787500D03*
G36*
G01*
X73092622Y-76233713D02*
X73092615Y-76233707D01*
G75*
G02*
X72991293Y-74362615I884885J986207D01*
G01*
X74301295Y-72902615D01*
G75*
G02*
X76172387Y-72801293I986207J-884885D01*
G01*
X76172387Y-72801293D01*
G75*
G02*
X76273709Y-74672385I-884885J-986207D01*
G01*
X74963707Y-76132385D01*
G75*
G02*
X73092615Y-76233707I-986207J884885D01*
G01*
G37*
D15*
X80327500Y-72707500D03*
G36*
G01*
X80197380Y-74609432D02*
X80196337Y-74609360D01*
G75*
G02*
X78965640Y-73196337I91163J1321860D01*
G01*
X79005640Y-72616337D01*
G75*
G02*
X80418663Y-71385640I1321860J-91163D01*
G01*
X80418663Y-71385640D01*
G75*
G02*
X81649360Y-72798663I-91163J-1321860D01*
G01*
X81609360Y-73378663D01*
G75*
G02*
X80196337Y-74609360I-1321860J91163D01*
G01*
G37*
D14*
X101917500Y-77787500D03*
X91757500Y-77787500D03*
D15*
X94337500Y-73787500D03*
D16*
X96837500Y-77787500D03*
G36*
G01*
X92142622Y-76233713D02*
X92142615Y-76233707D01*
G75*
G02*
X92041293Y-74362615I884885J986207D01*
G01*
X93351295Y-72902615D01*
G75*
G02*
X95222387Y-72801293I986207J-884885D01*
G01*
X95222387Y-72801293D01*
G75*
G02*
X95323709Y-74672385I-884885J-986207D01*
G01*
X94013707Y-76132385D01*
G75*
G02*
X92142615Y-76233707I-986207J884885D01*
G01*
G37*
D15*
X99377500Y-72707500D03*
G36*
G01*
X99247380Y-74609432D02*
X99246337Y-74609360D01*
G75*
G02*
X98015640Y-73196337I91163J1321860D01*
G01*
X98055640Y-72616337D01*
G75*
G02*
X99468663Y-71385640I1321860J-91163D01*
G01*
X99468663Y-71385640D01*
G75*
G02*
X100699360Y-72798663I-91163J-1321860D01*
G01*
X100659360Y-73378663D01*
G75*
G02*
X99246337Y-74609360I-1321860J91163D01*
G01*
G37*
D14*
X44767500Y-96837500D03*
X34607500Y-96837500D03*
D15*
X37187500Y-92837500D03*
D16*
X39687500Y-96837500D03*
G36*
G01*
X34992622Y-95283713D02*
X34992615Y-95283707D01*
G75*
G02*
X34891293Y-93412615I884885J986207D01*
G01*
X36201295Y-91952615D01*
G75*
G02*
X38072387Y-91851293I986207J-884885D01*
G01*
X38072387Y-91851293D01*
G75*
G02*
X38173709Y-93722385I-884885J-986207D01*
G01*
X36863707Y-95182385D01*
G75*
G02*
X34992615Y-95283707I-986207J884885D01*
G01*
G37*
D15*
X42227500Y-91757500D03*
G36*
G01*
X42097380Y-93659432D02*
X42096337Y-93659360D01*
G75*
G02*
X40865640Y-92246337I91163J1321860D01*
G01*
X40905640Y-91666337D01*
G75*
G02*
X42318663Y-90435640I1321860J-91163D01*
G01*
X42318663Y-90435640D01*
G75*
G02*
X43549360Y-91848663I-91163J-1321860D01*
G01*
X43509360Y-92428663D01*
G75*
G02*
X42096337Y-93659360I-1321860J91163D01*
G01*
G37*
D14*
X63817500Y-96837500D03*
X53657500Y-96837500D03*
D15*
X56237500Y-92837500D03*
D16*
X58737500Y-96837500D03*
G36*
G01*
X54042622Y-95283713D02*
X54042615Y-95283707D01*
G75*
G02*
X53941293Y-93412615I884885J986207D01*
G01*
X55251295Y-91952615D01*
G75*
G02*
X57122387Y-91851293I986207J-884885D01*
G01*
X57122387Y-91851293D01*
G75*
G02*
X57223709Y-93722385I-884885J-986207D01*
G01*
X55913707Y-95182385D01*
G75*
G02*
X54042615Y-95283707I-986207J884885D01*
G01*
G37*
D15*
X61277500Y-91757500D03*
G36*
G01*
X61147380Y-93659432D02*
X61146337Y-93659360D01*
G75*
G02*
X59915640Y-92246337I91163J1321860D01*
G01*
X59955640Y-91666337D01*
G75*
G02*
X61368663Y-90435640I1321860J-91163D01*
G01*
X61368663Y-90435640D01*
G75*
G02*
X62599360Y-91848663I-91163J-1321860D01*
G01*
X62559360Y-92428663D01*
G75*
G02*
X61146337Y-93659360I-1321860J91163D01*
G01*
G37*
D14*
X82867500Y-96837500D03*
X72707500Y-96837500D03*
D15*
X75287500Y-92837500D03*
D16*
X77787500Y-96837500D03*
G36*
G01*
X73092622Y-95283713D02*
X73092615Y-95283707D01*
G75*
G02*
X72991293Y-93412615I884885J986207D01*
G01*
X74301295Y-91952615D01*
G75*
G02*
X76172387Y-91851293I986207J-884885D01*
G01*
X76172387Y-91851293D01*
G75*
G02*
X76273709Y-93722385I-884885J-986207D01*
G01*
X74963707Y-95182385D01*
G75*
G02*
X73092615Y-95283707I-986207J884885D01*
G01*
G37*
D15*
X80327500Y-91757500D03*
G36*
G01*
X80197380Y-93659432D02*
X80196337Y-93659360D01*
G75*
G02*
X78965640Y-92246337I91163J1321860D01*
G01*
X79005640Y-91666337D01*
G75*
G02*
X80418663Y-90435640I1321860J-91163D01*
G01*
X80418663Y-90435640D01*
G75*
G02*
X81649360Y-91848663I-91163J-1321860D01*
G01*
X81609360Y-92428663D01*
G75*
G02*
X80196337Y-93659360I-1321860J91163D01*
G01*
G37*
D14*
X101917500Y-96837500D03*
X91757500Y-96837500D03*
D15*
X94337500Y-92837500D03*
D16*
X96837500Y-96837500D03*
G36*
G01*
X92142622Y-95283713D02*
X92142615Y-95283707D01*
G75*
G02*
X92041293Y-93412615I884885J986207D01*
G01*
X93351295Y-91952615D01*
G75*
G02*
X95222387Y-91851293I986207J-884885D01*
G01*
X95222387Y-91851293D01*
G75*
G02*
X95323709Y-93722385I-884885J-986207D01*
G01*
X94013707Y-95182385D01*
G75*
G02*
X92142615Y-95283707I-986207J884885D01*
G01*
G37*
D15*
X99377500Y-91757500D03*
G36*
G01*
X99247380Y-93659432D02*
X99246337Y-93659360D01*
G75*
G02*
X98015640Y-92246337I91163J1321860D01*
G01*
X98055640Y-91666337D01*
G75*
G02*
X99468663Y-90435640I1321860J-91163D01*
G01*
X99468663Y-90435640D01*
G75*
G02*
X100699360Y-91848663I-91163J-1321860D01*
G01*
X100659360Y-92428663D01*
G75*
G02*
X99246337Y-93659360I-1321860J91163D01*
G01*
G37*
D16*
X88582500Y-94424500D03*
X88582500Y-118300500D03*
D17*
X103822500Y-94424500D03*
X103822500Y-118300500D03*
D14*
X96837500Y-101282500D03*
X96837500Y-111442500D03*
D15*
X92837500Y-108862500D03*
D16*
X96837500Y-106362500D03*
G36*
G01*
X95283713Y-111057378D02*
X95283707Y-111057385D01*
G75*
G02*
X93412615Y-111158707I-986207J884885D01*
G01*
X91952615Y-109848705D01*
G75*
G02*
X91851293Y-107977613I884885J986207D01*
G01*
X91851293Y-107977613D01*
G75*
G02*
X93722385Y-107876291I986207J-884885D01*
G01*
X95182385Y-109186293D01*
G75*
G02*
X95283707Y-111057385I-884885J-986207D01*
G01*
G37*
D15*
X91757500Y-103822500D03*
G36*
G01*
X93659432Y-103952620D02*
X93659360Y-103953663D01*
G75*
G02*
X92246337Y-105184360I-1321860J91163D01*
G01*
X91666337Y-105144360D01*
G75*
G02*
X90435640Y-103731337I91163J1321860D01*
G01*
X90435640Y-103731337D01*
G75*
G02*
X91848663Y-102500640I1321860J-91163D01*
G01*
X92428663Y-102540640D01*
G75*
G02*
X93659360Y-103953663I-91163J-1321860D01*
G01*
G37*
D14*
X44767500Y-115887500D03*
X34607500Y-115887500D03*
D15*
X37187500Y-111887500D03*
D16*
X39687500Y-115887500D03*
G36*
G01*
X34992622Y-114333713D02*
X34992615Y-114333707D01*
G75*
G02*
X34891293Y-112462615I884885J986207D01*
G01*
X36201295Y-111002615D01*
G75*
G02*
X38072387Y-110901293I986207J-884885D01*
G01*
X38072387Y-110901293D01*
G75*
G02*
X38173709Y-112772385I-884885J-986207D01*
G01*
X36863707Y-114232385D01*
G75*
G02*
X34992615Y-114333707I-986207J884885D01*
G01*
G37*
D15*
X42227500Y-110807500D03*
G36*
G01*
X42097380Y-112709432D02*
X42096337Y-112709360D01*
G75*
G02*
X40865640Y-111296337I91163J1321860D01*
G01*
X40905640Y-110716337D01*
G75*
G02*
X42318663Y-109485640I1321860J-91163D01*
G01*
X42318663Y-109485640D01*
G75*
G02*
X43549360Y-110898663I-91163J-1321860D01*
G01*
X43509360Y-111478663D01*
G75*
G02*
X42096337Y-112709360I-1321860J91163D01*
G01*
G37*
D14*
X63817500Y-115887500D03*
X53657500Y-115887500D03*
D15*
X56237500Y-111887500D03*
D16*
X58737500Y-115887500D03*
G36*
G01*
X54042622Y-114333713D02*
X54042615Y-114333707D01*
G75*
G02*
X53941293Y-112462615I884885J986207D01*
G01*
X55251295Y-111002615D01*
G75*
G02*
X57122387Y-110901293I986207J-884885D01*
G01*
X57122387Y-110901293D01*
G75*
G02*
X57223709Y-112772385I-884885J-986207D01*
G01*
X55913707Y-114232385D01*
G75*
G02*
X54042615Y-114333707I-986207J884885D01*
G01*
G37*
D15*
X61277500Y-110807500D03*
G36*
G01*
X61147380Y-112709432D02*
X61146337Y-112709360D01*
G75*
G02*
X59915640Y-111296337I91163J1321860D01*
G01*
X59955640Y-110716337D01*
G75*
G02*
X61368663Y-109485640I1321860J-91163D01*
G01*
X61368663Y-109485640D01*
G75*
G02*
X62599360Y-110898663I-91163J-1321860D01*
G01*
X62559360Y-111478663D01*
G75*
G02*
X61146337Y-112709360I-1321860J91163D01*
G01*
G37*
D14*
X82867500Y-115887500D03*
X72707500Y-115887500D03*
D15*
X75287500Y-111887500D03*
D16*
X77787500Y-115887500D03*
G36*
G01*
X73092622Y-114333713D02*
X73092615Y-114333707D01*
G75*
G02*
X72991293Y-112462615I884885J986207D01*
G01*
X74301295Y-111002615D01*
G75*
G02*
X76172387Y-110901293I986207J-884885D01*
G01*
X76172387Y-110901293D01*
G75*
G02*
X76273709Y-112772385I-884885J-986207D01*
G01*
X74963707Y-114232385D01*
G75*
G02*
X73092615Y-114333707I-986207J884885D01*
G01*
G37*
D15*
X80327500Y-110807500D03*
G36*
G01*
X80197380Y-112709432D02*
X80196337Y-112709360D01*
G75*
G02*
X78965640Y-111296337I91163J1321860D01*
G01*
X79005640Y-110716337D01*
G75*
G02*
X80418663Y-109485640I1321860J-91163D01*
G01*
X80418663Y-109485640D01*
G75*
G02*
X81649360Y-110898663I-91163J-1321860D01*
G01*
X81609360Y-111478663D01*
G75*
G02*
X80196337Y-112709360I-1321860J91163D01*
G01*
G37*
D14*
X101917500Y-115887500D03*
X91757500Y-115887500D03*
D15*
X94337500Y-111887500D03*
D16*
X96837500Y-115887500D03*
G36*
G01*
X92142622Y-114333713D02*
X92142615Y-114333707D01*
G75*
G02*
X92041293Y-112462615I884885J986207D01*
G01*
X93351295Y-111002615D01*
G75*
G02*
X95222387Y-110901293I986207J-884885D01*
G01*
X95222387Y-110901293D01*
G75*
G02*
X95323709Y-112772385I-884885J-986207D01*
G01*
X94013707Y-114232385D01*
G75*
G02*
X92142615Y-114333707I-986207J884885D01*
G01*
G37*
D15*
X99377500Y-110807500D03*
G36*
G01*
X99247380Y-112709432D02*
X99246337Y-112709360D01*
G75*
G02*
X98015640Y-111296337I91163J1321860D01*
G01*
X98055640Y-110716337D01*
G75*
G02*
X99468663Y-109485640I1321860J-91163D01*
G01*
X99468663Y-109485640D01*
G75*
G02*
X100699360Y-110898663I-91163J-1321860D01*
G01*
X100659360Y-111478663D01*
G75*
G02*
X99246337Y-112709360I-1321860J91163D01*
G01*
G37*
D16*
X61150500Y-107632500D03*
X37274500Y-107632500D03*
D17*
X61150500Y-122872500D03*
X37274500Y-122872500D03*
D14*
X54292500Y-115887500D03*
X44132500Y-115887500D03*
D15*
X46712500Y-111887500D03*
D16*
X49212500Y-115887500D03*
G36*
G01*
X44517622Y-114333713D02*
X44517615Y-114333707D01*
G75*
G02*
X44416293Y-112462615I884885J986207D01*
G01*
X45726295Y-111002615D01*
G75*
G02*
X47597387Y-110901293I986207J-884885D01*
G01*
X47597387Y-110901293D01*
G75*
G02*
X47698709Y-112772385I-884885J-986207D01*
G01*
X46388707Y-114232385D01*
G75*
G02*
X44517615Y-114333707I-986207J884885D01*
G01*
G37*
D15*
X51752500Y-110807500D03*
G36*
G01*
X51622380Y-112709432D02*
X51621337Y-112709360D01*
G75*
G02*
X50390640Y-111296337I91163J1321860D01*
G01*
X50430640Y-110716337D01*
G75*
G02*
X51843663Y-109485640I1321860J-91163D01*
G01*
X51843663Y-109485640D01*
G75*
G02*
X53074360Y-110898663I-91163J-1321860D01*
G01*
X53034360Y-111478663D01*
G75*
G02*
X51621337Y-112709360I-1321860J91163D01*
G01*
G37*
D18*
X42862500Y-49212500D03*
G36*
G01*
X34242500Y-50012500D02*
X34242500Y-48412500D01*
G75*
G02*
X34442500Y-48212500I200000J0D01*
G01*
X36042500Y-48212500D01*
G75*
G02*
X36242500Y-48412500I0J-200000D01*
G01*
X36242500Y-50012500D01*
G75*
G02*
X36042500Y-50212500I-200000J0D01*
G01*
X34442500Y-50212500D01*
G75*
G02*
X34242500Y-50012500I0J200000D01*
G01*
G37*
X61912500Y-68262500D03*
G36*
G01*
X53292500Y-69062500D02*
X53292500Y-67462500D01*
G75*
G02*
X53492500Y-67262500I200000J0D01*
G01*
X55092500Y-67262500D01*
G75*
G02*
X55292500Y-67462500I0J-200000D01*
G01*
X55292500Y-69062500D01*
G75*
G02*
X55092500Y-69262500I-200000J0D01*
G01*
X53492500Y-69262500D01*
G75*
G02*
X53292500Y-69062500I0J200000D01*
G01*
G37*
X87312500Y-36036250D03*
G36*
G01*
X88112500Y-44656250D02*
X86512500Y-44656250D01*
G75*
G02*
X86312500Y-44456250I0J200000D01*
G01*
X86312500Y-42856250D01*
G75*
G02*
X86512500Y-42656250I200000J0D01*
G01*
X88112500Y-42656250D01*
G75*
G02*
X88312500Y-42856250I0J-200000D01*
G01*
X88312500Y-44456250D01*
G75*
G02*
X88112500Y-44656250I-200000J0D01*
G01*
G37*
G36*
G01*
X91392500Y-50012500D02*
X91392500Y-48412500D01*
G75*
G02*
X91592500Y-48212500I200000J0D01*
G01*
X93192500Y-48212500D01*
G75*
G02*
X93392500Y-48412500I0J-200000D01*
G01*
X93392500Y-50012500D01*
G75*
G02*
X93192500Y-50212500I-200000J0D01*
G01*
X91592500Y-50212500D01*
G75*
G02*
X91392500Y-50012500I0J200000D01*
G01*
G37*
X100012500Y-49212500D03*
X42862500Y-68262500D03*
G36*
G01*
X34242500Y-69062500D02*
X34242500Y-67462500D01*
G75*
G02*
X34442500Y-67262500I200000J0D01*
G01*
X36042500Y-67262500D01*
G75*
G02*
X36242500Y-67462500I0J-200000D01*
G01*
X36242500Y-69062500D01*
G75*
G02*
X36042500Y-69262500I-200000J0D01*
G01*
X34442500Y-69262500D01*
G75*
G02*
X34242500Y-69062500I0J200000D01*
G01*
G37*
G36*
G01*
X72342500Y-69062500D02*
X72342500Y-67462500D01*
G75*
G02*
X72542500Y-67262500I200000J0D01*
G01*
X74142500Y-67262500D01*
G75*
G02*
X74342500Y-67462500I0J-200000D01*
G01*
X74342500Y-69062500D01*
G75*
G02*
X74142500Y-69262500I-200000J0D01*
G01*
X72542500Y-69262500D01*
G75*
G02*
X72342500Y-69062500I0J200000D01*
G01*
G37*
X80962500Y-68262500D03*
X80962500Y-49212500D03*
G36*
G01*
X72342500Y-50012500D02*
X72342500Y-48412500D01*
G75*
G02*
X72542500Y-48212500I200000J0D01*
G01*
X74142500Y-48212500D01*
G75*
G02*
X74342500Y-48412500I0J-200000D01*
G01*
X74342500Y-50012500D01*
G75*
G02*
X74142500Y-50212500I-200000J0D01*
G01*
X72542500Y-50212500D01*
G75*
G02*
X72342500Y-50012500I0J200000D01*
G01*
G37*
G36*
G01*
X88112500Y-73231250D02*
X86512500Y-73231250D01*
G75*
G02*
X86312500Y-73031250I0J200000D01*
G01*
X86312500Y-71431250D01*
G75*
G02*
X86512500Y-71231250I200000J0D01*
G01*
X88112500Y-71231250D01*
G75*
G02*
X88312500Y-71431250I0J-200000D01*
G01*
X88312500Y-73031250D01*
G75*
G02*
X88112500Y-73231250I-200000J0D01*
G01*
G37*
X87312500Y-64611250D03*
X49212500Y-72548750D03*
G36*
G01*
X50012500Y-81168750D02*
X48412500Y-81168750D01*
G75*
G02*
X48212500Y-80968750I0J200000D01*
G01*
X48212500Y-79368750D01*
G75*
G02*
X48412500Y-79168750I200000J0D01*
G01*
X50012500Y-79168750D01*
G75*
G02*
X50212500Y-79368750I0J-200000D01*
G01*
X50212500Y-80968750D01*
G75*
G02*
X50012500Y-81168750I-200000J0D01*
G01*
G37*
G36*
G01*
X69062500Y-82756250D02*
X67462500Y-82756250D01*
G75*
G02*
X67262500Y-82556250I0J200000D01*
G01*
X67262500Y-80956250D01*
G75*
G02*
X67462500Y-80756250I200000J0D01*
G01*
X69062500Y-80756250D01*
G75*
G02*
X69262500Y-80956250I0J-200000D01*
G01*
X69262500Y-82556250D01*
G75*
G02*
X69062500Y-82756250I-200000J0D01*
G01*
G37*
X68262500Y-74136250D03*
X63182500Y-87312500D03*
G36*
G01*
X54562500Y-88112500D02*
X54562500Y-86512500D01*
G75*
G02*
X54762500Y-86312500I200000J0D01*
G01*
X56362500Y-86312500D01*
G75*
G02*
X56562500Y-86512500I0J-200000D01*
G01*
X56562500Y-88112500D01*
G75*
G02*
X56362500Y-88312500I-200000J0D01*
G01*
X54762500Y-88312500D01*
G75*
G02*
X54562500Y-88112500I0J200000D01*
G01*
G37*
G36*
G01*
X91392500Y-88112500D02*
X91392500Y-86512500D01*
G75*
G02*
X91592500Y-86312500I200000J0D01*
G01*
X93192500Y-86312500D01*
G75*
G02*
X93392500Y-86512500I0J-200000D01*
G01*
X93392500Y-88112500D01*
G75*
G02*
X93192500Y-88312500I-200000J0D01*
G01*
X91592500Y-88312500D01*
G75*
G02*
X91392500Y-88112500I0J200000D01*
G01*
G37*
X100012500Y-87312500D03*
X42862500Y-87312500D03*
G36*
G01*
X34242500Y-88112500D02*
X34242500Y-86512500D01*
G75*
G02*
X34442500Y-86312500I200000J0D01*
G01*
X36042500Y-86312500D01*
G75*
G02*
X36242500Y-86512500I0J-200000D01*
G01*
X36242500Y-88112500D01*
G75*
G02*
X36042500Y-88312500I-200000J0D01*
G01*
X34442500Y-88312500D01*
G75*
G02*
X34242500Y-88112500I0J200000D01*
G01*
G37*
X49212500Y-94456250D03*
G36*
G01*
X50012500Y-103076250D02*
X48412500Y-103076250D01*
G75*
G02*
X48212500Y-102876250I0J200000D01*
G01*
X48212500Y-101276250D01*
G75*
G02*
X48412500Y-101076250I200000J0D01*
G01*
X50012500Y-101076250D01*
G75*
G02*
X50212500Y-101276250I0J-200000D01*
G01*
X50212500Y-102876250D01*
G75*
G02*
X50012500Y-103076250I-200000J0D01*
G01*
G37*
X68262500Y-92868750D03*
G36*
G01*
X69062500Y-101488750D02*
X67462500Y-101488750D01*
G75*
G02*
X67262500Y-101288750I0J200000D01*
G01*
X67262500Y-99688750D01*
G75*
G02*
X67462500Y-99488750I200000J0D01*
G01*
X69062500Y-99488750D01*
G75*
G02*
X69262500Y-99688750I0J-200000D01*
G01*
X69262500Y-101288750D01*
G75*
G02*
X69062500Y-101488750I-200000J0D01*
G01*
G37*
G36*
G01*
X72342500Y-88112500D02*
X72342500Y-86512500D01*
G75*
G02*
X72542500Y-86312500I200000J0D01*
G01*
X74142500Y-86312500D01*
G75*
G02*
X74342500Y-86512500I0J-200000D01*
G01*
X74342500Y-88112500D01*
G75*
G02*
X74142500Y-88312500I-200000J0D01*
G01*
X72542500Y-88312500D01*
G75*
G02*
X72342500Y-88112500I0J200000D01*
G01*
G37*
X80962500Y-87312500D03*
X53181250Y-106362500D03*
G36*
G01*
X44561250Y-107162500D02*
X44561250Y-105562500D01*
G75*
G02*
X44761250Y-105362500I200000J0D01*
G01*
X46361250Y-105362500D01*
G75*
G02*
X46561250Y-105562500I0J-200000D01*
G01*
X46561250Y-107162500D01*
G75*
G02*
X46361250Y-107362500I-200000J0D01*
G01*
X44761250Y-107362500D01*
G75*
G02*
X44561250Y-107162500I0J200000D01*
G01*
G37*
G36*
G01*
X69062500Y-120856250D02*
X67462500Y-120856250D01*
G75*
G02*
X67262500Y-120656250I0J200000D01*
G01*
X67262500Y-119056250D01*
G75*
G02*
X67462500Y-118856250I200000J0D01*
G01*
X69062500Y-118856250D01*
G75*
G02*
X69262500Y-119056250I0J-200000D01*
G01*
X69262500Y-120656250D01*
G75*
G02*
X69062500Y-120856250I-200000J0D01*
G01*
G37*
X68262500Y-112236250D03*
G36*
G01*
X72342500Y-107162500D02*
X72342500Y-105562500D01*
G75*
G02*
X72542500Y-105362500I200000J0D01*
G01*
X74142500Y-105362500D01*
G75*
G02*
X74342500Y-105562500I0J-200000D01*
G01*
X74342500Y-107162500D01*
G75*
G02*
X74142500Y-107362500I-200000J0D01*
G01*
X72542500Y-107362500D01*
G75*
G02*
X72342500Y-107162500I0J200000D01*
G01*
G37*
X80962500Y-106362500D03*
G36*
G01*
X88112500Y-111331250D02*
X86512500Y-111331250D01*
G75*
G02*
X86312500Y-111131250I0J200000D01*
G01*
X86312500Y-109531250D01*
G75*
G02*
X86512500Y-109331250I200000J0D01*
G01*
X88112500Y-109331250D01*
G75*
G02*
X88312500Y-109531250I0J-200000D01*
G01*
X88312500Y-111131250D01*
G75*
G02*
X88112500Y-111331250I-200000J0D01*
G01*
G37*
X87312500Y-102711250D03*
M02*
