  0
SECTION
  2
HEADER
  9
$ANGBASE
  50
0.0
  9
$ANGDIR
  70
1
  9
$MEASUREMENT
  70
0
  0
ENDSEC
  0
SECTION
  2
TABLES
  0
TABLE
  2
LTYPE
  70
4
  0
LTYPE
  5
40F
  2
CONTINUOUS
  70
0
  3
Solid line
  72
65
  73
0
  40
0.0
  0
LTYPE
  5
410
  2
DASHDOT
 70
0
  3
Dash Dot ____ _ ____ _
 72
65
 73
4
 40
2.0
 49
1.25
 49
-0.25
 49
0.25
 49
-0.25
  0
LTYPE
  5
411
  2
DASHED
 70
0
  3
Dashed __ __ __ __ __
 72
65
 73
2
 40
0.75
 49
0.5
 49
-0.25
  0
LTYPE
  5
43B
  2
DOTTED
 70
0
  3
Dotted .  .  .  .
 72
65
 73
2
 40
0.2
 49
0.0
 49
-0.2
  0
ENDTAB
  0
TABLE
  2
STYLE
  70
4
  0
STYLE
  2
KICAD
  70
0
  40
0
  41
1
  42
1
  50
0
  71
0
  3
isocp.shx
  0
STYLE
  2
KICADB
  70
0
  40
0
  41
1
  42
1
  50
0
  71
0
  3
isocp.shx
  0
STYLE
  2
KICADI
  70
0
  40
0
  41
1
  42
1
  50
15
  71
0
  3
isocp.shx
  0
STYLE
  2
KICADBI
  70
0
  40
0
  41
1
  42
1
  50
15
  71
0
  3
isocp.shx
  0
ENDTAB
  0
TABLE
  2
LAYER
  70
1
  0
LAYER
  2
BLACK
  70
0
  62
7
  6
CONTINUOUS
  0
ENDTAB
  0
ENDSEC
  0
SECTION
  2
ENTITIES
0
LINE
8
BLACK
6
CONTINUOUS
10
5.90366
20
-2.76917
11
5.90401
21
-2.76924
0
LINE
8
BLACK
6
CONTINUOUS
10
5.90401
20
-2.76924
11
5.90436
21
-2.76931
0
LINE
8
BLACK
6
CONTINUOUS
10
5.90436
20
-2.76931
11
5.93379
21
-2.77819
0
LINE
8
BLACK
6
CONTINUOUS
10
5.93379
20
-2.77819
11
5.93379
21
-2.77819
0
LINE
8
BLACK
6
CONTINUOUS
10
5.93379
20
-2.77819
11
5.93384
21
-2.77821
0
LINE
8
BLACK
6
CONTINUOUS
10
5.93384
20
-2.77821
11
5.93417
21
-2.77835
0
LINE
8
BLACK
6
CONTINUOUS
10
5.93417
20
-2.77835
11
5.9345
21
-2.77849
0
LINE
8
BLACK
6
CONTINUOUS
10
5.9345
20
-2.77849
11
5.96163
21
-2.79291
0
LINE
8
BLACK
6
CONTINUOUS
10
5.96163
20
-2.79291
11
5.96168
21
-2.79294
0
LINE
8
BLACK
6
CONTINUOUS
10
5.96168
20
-2.79294
11
5.96198
21
-2.79314
0
LINE
8
BLACK
6
CONTINUOUS
10
5.96198
20
-2.79314
11
5.96227
21
-2.79334
0
LINE
8
BLACK
6
CONTINUOUS
10
5.96227
20
-2.79334
11
5.98609
21
-2.81276
0
LINE
8
BLACK
6
CONTINUOUS
10
5.98609
20
-2.81276
11
5.98613
21
-2.8128
0
LINE
8
BLACK
6
CONTINUOUS
10
5.98613
20
-2.8128
11
5.98638
21
-2.81305
0
LINE
8
BLACK
6
CONTINUOUS
10
5.98638
20
-2.81305
11
5.98664
21
-2.81331
0
LINE
8
BLACK
6
CONTINUOUS
10
5.98664
20
-2.81331
11
6.00623
21
-2.83699
0
LINE
8
BLACK
6
CONTINUOUS
10
6.00623
20
-2.83699
11
6.00626
21
-2.83703
0
LINE
8
BLACK
6
CONTINUOUS
10
6.00626
20
-2.83703
11
6.00646
21
-2.83733
0
LINE
8
BLACK
6
CONTINUOUS
10
6.00646
20
-2.83733
11
6.00666
21
-2.83762
0
LINE
8
BLACK
6
CONTINUOUS
10
6.00666
20
-2.83762
11
6.02128
21
-2.86466
0
LINE
8
BLACK
6
CONTINUOUS
10
6.02128
20
-2.86466
11
6.0213
21
-2.86471
0
LINE
8
BLACK
6
CONTINUOUS
10
6.0213
20
-2.86471
11
6.02144
21
-2.86504
0
LINE
8
BLACK
6
CONTINUOUS
10
6.02144
20
-2.86504
11
6.02157
21
-2.86537
0
LINE
8
BLACK
6
CONTINUOUS
10
6.02157
20
-2.86537
11
6.03066
21
-2.89473
0
LINE
8
BLACK
6
CONTINUOUS
10
6.03066
20
-2.89473
11
6.03068
21
-2.89478
0
LINE
8
BLACK
6
CONTINUOUS
10
6.03068
20
-2.89478
11
6.03075
21
-2.89513
0
LINE
8
BLACK
6
CONTINUOUS
10
6.03075
20
-2.89513
11
6.03082
21
-2.89548
0
LINE
8
BLACK
6
CONTINUOUS
10
6.03082
20
-2.89548
11
6.03403
21
-2.92605
0
LINE
8
BLACK
6
CONTINUOUS
10
6.03403
20
-2.92605
11
6.03404
21
-2.9261
0
LINE
8
BLACK
6
CONTINUOUS
10
6.03404
20
-2.9261
11
6.03403
21
-2.92627
0
LINE
8
BLACK
6
CONTINUOUS
10
6.03403
20
-2.92627
11
6.03405
21
-2.92645
0
LINE
8
BLACK
6
CONTINUOUS
10
6.03405
20
-2.92645
11
6.03405
21
-2.92736
0
LINE
8
BLACK
6
CONTINUOUS
10
6.03405
20
-2.92736
11
6.03406
21
-2.92737
0
LINE
8
BLACK
6
CONTINUOUS
10
6.03406
20
-2.92737
11
6.03406
21
-6.99271
0
LINE
8
BLACK
6
CONTINUOUS
10
6.03406
20
-6.99271
11
6.03404
21
-6.9929
0
LINE
8
BLACK
6
CONTINUOUS
10
6.03404
20
-6.9929
11
6.03404
21
-6.9929
0
LINE
8
BLACK
6
CONTINUOUS
10
6.03404
20
-6.9929
11
6.03104
21
-7.02349
0
LINE
8
BLACK
6
CONTINUOUS
10
6.03104
20
-7.02349
11
6.03103
21
-7.02355
0
LINE
8
BLACK
6
CONTINUOUS
10
6.03103
20
-7.02355
11
6.03096
21
-7.0239
0
LINE
8
BLACK
6
CONTINUOUS
10
6.03096
20
-7.0239
11
6.03089
21
-7.02425
0
LINE
8
BLACK
6
CONTINUOUS
10
6.03089
20
-7.02425
11
6.022
21
-7.05367
0
LINE
8
BLACK
6
CONTINUOUS
10
6.022
20
-7.05367
11
6.02199
21
-7.05372
0
LINE
8
BLACK
6
CONTINUOUS
10
6.02199
20
-7.05372
11
6.02185
21
-7.05405
0
LINE
8
BLACK
6
CONTINUOUS
10
6.02185
20
-7.05405
11
6.02171
21
-7.05438
0
LINE
8
BLACK
6
CONTINUOUS
10
6.02171
20
-7.05438
11
6.00728
21
-7.08152
0
LINE
8
BLACK
6
CONTINUOUS
10
6.00728
20
-7.08152
11
6.00728
21
-7.08152
0
LINE
8
BLACK
6
CONTINUOUS
10
6.00728
20
-7.08152
11
6.00728
21
-7.08152
0
LINE
8
BLACK
6
CONTINUOUS
10
6.00728
20
-7.08152
11
6.00726
21
-7.08156
0
LINE
8
BLACK
6
CONTINUOUS
10
6.00726
20
-7.08156
11
6.00705
21
-7.08186
0
LINE
8
BLACK
6
CONTINUOUS
10
6.00705
20
-7.08186
11
6.00686
21
-7.08216
0
LINE
8
BLACK
6
CONTINUOUS
10
6.00686
20
-7.08216
11
5.98743
21
-7.10597
0
LINE
8
BLACK
6
CONTINUOUS
10
5.98743
20
-7.10597
11
5.98743
21
-7.10597
0
LINE
8
BLACK
6
CONTINUOUS
10
5.98743
20
-7.10597
11
5.98743
21
-7.10597
0
LINE
8
BLACK
6
CONTINUOUS
10
5.98743
20
-7.10597
11
5.9874
21
-7.10602
0
LINE
8
BLACK
6
CONTINUOUS
10
5.9874
20
-7.10602
11
5.98714
21
-7.10627
0
LINE
8
BLACK
6
CONTINUOUS
10
5.98714
20
-7.10627
11
5.98689
21
-7.10652
0
LINE
8
BLACK
6
CONTINUOUS
10
5.98689
20
-7.10652
11
5.96321
21
-7.12611
0
LINE
8
BLACK
6
CONTINUOUS
10
5.96321
20
-7.12611
11
5.96321
21
-7.12611
0
LINE
8
BLACK
6
CONTINUOUS
10
5.96321
20
-7.12611
11
5.96321
21
-7.12611
0
LINE
8
BLACK
6
CONTINUOUS
10
5.96321
20
-7.12611
11
5.96317
21
-7.12615
0
LINE
8
BLACK
6
CONTINUOUS
10
5.96317
20
-7.12615
11
5.96287
21
-7.12634
0
LINE
8
BLACK
6
CONTINUOUS
10
5.96287
20
-7.12634
11
5.96257
21
-7.12654
0
LINE
8
BLACK
6
CONTINUOUS
10
5.96257
20
-7.12654
11
5.93554
21
-7.14116
0
LINE
8
BLACK
6
CONTINUOUS
10
5.93554
20
-7.14116
11
5.93554
21
-7.14116
0
LINE
8
BLACK
6
CONTINUOUS
10
5.93554
20
-7.14116
11
5.93554
21
-7.14116
0
LINE
8
BLACK
6
CONTINUOUS
10
5.93554
20
-7.14116
11
5.93549
21
-7.14118
0
LINE
8
BLACK
6
CONTINUOUS
10
5.93549
20
-7.14118
11
5.93516
21
-7.14132
0
LINE
8
BLACK
6
CONTINUOUS
10
5.93516
20
-7.14132
11
5.93483
21
-7.14146
0
LINE
8
BLACK
6
CONTINUOUS
10
5.93483
20
-7.14146
11
5.90547
21
-7.15054
0
LINE
8
BLACK
6
CONTINUOUS
10
5.90547
20
-7.15054
11
5.90542
21
-7.15056
0
LINE
8
BLACK
6
CONTINUOUS
10
5.90542
20
-7.15056
11
5.90506
21
-7.15063
0
LINE
8
BLACK
6
CONTINUOUS
10
5.90506
20
-7.15063
11
5.90472
21
-7.1507
0
LINE
8
BLACK
6
CONTINUOUS
10
5.90472
20
-7.1507
11
5.87415
21
-7.15391
0
LINE
8
BLACK
6
CONTINUOUS
10
5.87415
20
-7.15391
11
5.87409
21
-7.15392
0
LINE
8
BLACK
6
CONTINUOUS
10
5.87409
20
-7.15392
11
5.87392
21
-7.15392
0
LINE
8
BLACK
6
CONTINUOUS
10
5.87392
20
-7.15392
11
5.87375
21
-7.15393
0
LINE
8
BLACK
6
CONTINUOUS
10
5.87375
20
-7.15393
11
5.87284
21
-7.15394
0
LINE
8
BLACK
6
CONTINUOUS
10
5.87284
20
-7.15394
11
5.87283
21
-7.15394
0
LINE
8
BLACK
6
CONTINUOUS
10
5.87283
20
-7.15394
11
2.55748
21
-7.15394
0
LINE
8
BLACK
6
CONTINUOUS
10
2.55748
20
-7.15394
11
2.55729
21
-7.15392
0
LINE
8
BLACK
6
CONTINUOUS
10
2.55729
20
-7.15392
11
2.55729
21
-7.15392
0
LINE
8
BLACK
6
CONTINUOUS
10
2.55729
20
-7.15392
11
2.5267
21
-7.15092
0
LINE
8
BLACK
6
CONTINUOUS
10
2.5267
20
-7.15092
11
2.5267
21
-7.15092
0
LINE
8
BLACK
6
CONTINUOUS
10
2.5267
20
-7.15092
11
2.52665
21
-7.15091
0
LINE
8
BLACK
6
CONTINUOUS
10
2.52665
20
-7.15091
11
2.5263
21
-7.15084
0
LINE
8
BLACK
6
CONTINUOUS
10
2.5263
20
-7.15084
11
2.52595
21
-7.15077
0
LINE
8
BLACK
6
CONTINUOUS
10
2.52595
20
-7.15077
11
2.49653
21
-7.14189
0
LINE
8
BLACK
6
CONTINUOUS
10
2.49653
20
-7.14189
11
2.49648
21
-7.14187
0
LINE
8
BLACK
6
CONTINUOUS
10
2.49648
20
-7.14187
11
2.49615
21
-7.14173
0
LINE
8
BLACK
6
CONTINUOUS
10
2.49615
20
-7.14173
11
2.49582
21
-7.14159
0
LINE
8
BLACK
6
CONTINUOUS
10
2.49582
20
-7.14159
11
2.46868
21
-7.12716
0
LINE
8
BLACK
6
CONTINUOUS
10
2.46868
20
-7.12716
11
2.46868
21
-7.12716
0
LINE
8
BLACK
6
CONTINUOUS
10
2.46868
20
-7.12716
11
2.46868
21
-7.12716
0
LINE
8
BLACK
6
CONTINUOUS
10
2.46868
20
-7.12716
11
2.46863
21
-7.12714
0
LINE
8
BLACK
6
CONTINUOUS
10
2.46863
20
-7.12714
11
2.46834
21
-7.12694
0
LINE
8
BLACK
6
CONTINUOUS
10
2.46834
20
-7.12694
11
2.46804
21
-7.12674
0
LINE
8
BLACK
6
CONTINUOUS
10
2.46804
20
-7.12674
11
2.44422
21
-7.10731
0
LINE
8
BLACK
6
CONTINUOUS
10
2.44422
20
-7.10731
11
2.44422
21
-7.10731
0
LINE
8
BLACK
6
CONTINUOUS
10
2.44422
20
-7.10731
11
2.44422
21
-7.10731
0
LINE
8
BLACK
6
CONTINUOUS
10
2.44422
20
-7.10731
11
2.44418
21
-7.10728
0
LINE
8
BLACK
6
CONTINUOUS
10
2.44418
20
-7.10728
11
2.44393
21
-7.10703
0
LINE
8
BLACK
6
CONTINUOUS
10
2.44393
20
-7.10703
11
2.44368
21
-7.10677
0
LINE
8
BLACK
6
CONTINUOUS
10
2.44368
20
-7.10677
11
2.42409
21
-7.08309
0
LINE
8
BLACK
6
CONTINUOUS
10
2.42409
20
-7.08309
11
2.42409
21
-7.08309
0
LINE
8
BLACK
6
CONTINUOUS
10
2.42409
20
-7.08309
11
2.42409
21
-7.08309
0
LINE
8
BLACK
6
CONTINUOUS
10
2.42409
20
-7.08309
11
2.42405
21
-7.08305
0
LINE
8
BLACK
6
CONTINUOUS
10
2.42405
20
-7.08305
11
2.42386
21
-7.08275
0
LINE
8
BLACK
6
CONTINUOUS
10
2.42386
20
-7.08275
11
2.42366
21
-7.08245
0
LINE
8
BLACK
6
CONTINUOUS
10
2.42366
20
-7.08245
11
2.40904
21
-7.05542
0
LINE
8
BLACK
6
CONTINUOUS
10
2.40904
20
-7.05542
11
2.40904
21
-7.05542
0
LINE
8
BLACK
6
CONTINUOUS
10
2.40904
20
-7.05542
11
2.40904
21
-7.05542
0
LINE
8
BLACK
6
CONTINUOUS
10
2.40904
20
-7.05542
11
2.40901
21
-7.05537
0
LINE
8
BLACK
6
CONTINUOUS
10
2.40901
20
-7.05537
11
2.40888
21
-7.05504
0
LINE
8
BLACK
6
CONTINUOUS
10
2.40888
20
-7.05504
11
2.40874
21
-7.05471
0
LINE
8
BLACK
6
CONTINUOUS
10
2.40874
20
-7.05471
11
2.39965
21
-7.02535
0
LINE
8
BLACK
6
CONTINUOUS
10
2.39965
20
-7.02535
11
2.39964
21
-7.0253
0
LINE
8
BLACK
6
CONTINUOUS
10
2.39964
20
-7.0253
11
2.39957
21
-7.02495
0
LINE
8
BLACK
6
CONTINUOUS
10
2.39957
20
-7.02495
11
2.3995
21
-7.0246
0
LINE
8
BLACK
6
CONTINUOUS
10
2.3995
20
-7.0246
11
2.39629
21
-6.99403
0
LINE
8
BLACK
6
CONTINUOUS
10
2.39629
20
-6.99403
11
2.39628
21
-6.99398
0
LINE
8
BLACK
6
CONTINUOUS
10
2.39628
20
-6.99398
11
2.39628
21
-6.9938
0
LINE
8
BLACK
6
CONTINUOUS
10
2.39628
20
-6.9938
11
2.39626
21
-6.99363
0
LINE
8
BLACK
6
CONTINUOUS
10
2.39626
20
-6.99363
11
2.39626
21
-6.99272
0
LINE
8
BLACK
6
CONTINUOUS
10
2.39626
20
-6.99272
11
2.39626
21
-6.99271
0
LINE
8
BLACK
6
CONTINUOUS
10
2.39626
20
-6.99271
11
2.39626
21
-2.92737
0
LINE
8
BLACK
6
CONTINUOUS
10
2.39626
20
-2.92737
11
2.39628
21
-2.92718
0
LINE
8
BLACK
6
CONTINUOUS
10
2.39628
20
-2.92718
11
2.39628
21
-2.92717
0
LINE
8
BLACK
6
CONTINUOUS
10
2.39628
20
-2.92717
11
2.39928
21
-2.89659
0
LINE
8
BLACK
6
CONTINUOUS
10
2.39928
20
-2.89659
11
2.39928
21
-2.89653
0
LINE
8
BLACK
6
CONTINUOUS
10
2.39928
20
-2.89653
11
2.39936
21
-2.89618
0
LINE
8
BLACK
6
CONTINUOUS
10
2.39936
20
-2.89618
11
2.39943
21
-2.89583
0
LINE
8
BLACK
6
CONTINUOUS
10
2.39943
20
-2.89583
11
2.40831
21
-2.86641
0
LINE
8
BLACK
6
CONTINUOUS
10
2.40831
20
-2.86641
11
2.40833
21
-2.86636
0
LINE
8
BLACK
6
CONTINUOUS
10
2.40833
20
-2.86636
11
2.40847
21
-2.86603
0
LINE
8
BLACK
6
CONTINUOUS
10
2.40847
20
-2.86603
11
2.4086
21
-2.8657
0
LINE
8
BLACK
6
CONTINUOUS
10
2.4086
20
-2.8657
11
2.42303
21
-2.83856
0
LINE
8
BLACK
6
CONTINUOUS
10
2.42303
20
-2.83856
11
2.42306
21
-2.83851
0
LINE
8
BLACK
6
CONTINUOUS
10
2.42306
20
-2.83851
11
2.42326
21
-2.83822
0
LINE
8
BLACK
6
CONTINUOUS
10
2.42326
20
-2.83822
11
2.42346
21
-2.83792
0
LINE
8
BLACK
6
CONTINUOUS
10
2.42346
20
-2.83792
11
2.44288
21
-2.8141
0
LINE
8
BLACK
6
CONTINUOUS
10
2.44288
20
-2.8141
11
2.44292
21
-2.81406
0
LINE
8
BLACK
6
CONTINUOUS
10
2.44292
20
-2.81406
11
2.44317
21
-2.81381
0
LINE
8
BLACK
6
CONTINUOUS
10
2.44317
20
-2.81381
11
2.44342
21
-2.81356
0
LINE
8
BLACK
6
CONTINUOUS
10
2.44342
20
-2.81356
11
2.46711
21
-2.79397
0
LINE
8
BLACK
6
CONTINUOUS
10
2.46711
20
-2.79397
11
2.46715
21
-2.79393
0
LINE
8
BLACK
6
CONTINUOUS
10
2.46715
20
-2.79393
11
2.46745
21
-2.79374
0
LINE
8
BLACK
6
CONTINUOUS
10
2.46745
20
-2.79374
11
2.46774
21
-2.79354
0
LINE
8
BLACK
6
CONTINUOUS
10
2.46774
20
-2.79354
11
2.49478
21
-2.77892
0
LINE
8
BLACK
6
CONTINUOUS
10
2.49478
20
-2.77892
11
2.49483
21
-2.77889
0
LINE
8
BLACK
6
CONTINUOUS
10
2.49483
20
-2.77889
11
2.49516
21
-2.77876
0
LINE
8
BLACK
6
CONTINUOUS
10
2.49516
20
-2.77876
11
2.49549
21
-2.77862
0
LINE
8
BLACK
6
CONTINUOUS
10
2.49549
20
-2.77862
11
2.52485
21
-2.76953
0
LINE
8
BLACK
6
CONTINUOUS
10
2.52485
20
-2.76953
11
2.5249
21
-2.76952
0
LINE
8
BLACK
6
CONTINUOUS
10
2.5249
20
-2.76952
11
2.52525
21
-2.76945
0
LINE
8
BLACK
6
CONTINUOUS
10
2.52525
20
-2.76945
11
2.5256
21
-2.76938
0
LINE
8
BLACK
6
CONTINUOUS
10
2.5256
20
-2.76938
11
2.55617
21
-2.76617
0
LINE
8
BLACK
6
CONTINUOUS
10
2.55617
20
-2.76617
11
2.55622
21
-2.76616
0
LINE
8
BLACK
6
CONTINUOUS
10
2.55622
20
-2.76616
11
2.55639
21
-2.76616
0
LINE
8
BLACK
6
CONTINUOUS
10
2.55639
20
-2.76616
11
2.55656
21
-2.76615
0
LINE
8
BLACK
6
CONTINUOUS
10
2.55656
20
-2.76615
11
2.55748
21
-2.76614
0
LINE
8
BLACK
6
CONTINUOUS
10
2.55748
20
-2.76614
11
2.55748
21
-2.76614
0
LINE
8
BLACK
6
CONTINUOUS
10
2.55748
20
-2.76614
11
5.87283
21
-2.76614
0
LINE
8
BLACK
6
CONTINUOUS
10
5.87283
20
-2.76614
11
5.87302
21
-2.76616
0
LINE
8
BLACK
6
CONTINUOUS
10
5.87302
20
-2.76616
11
5.87302
21
-2.76616
0
LINE
8
BLACK
6
CONTINUOUS
10
5.87302
20
-2.76616
11
5.90361
21
-2.76916
0
LINE
8
BLACK
6
CONTINUOUS
10
5.90361
20
-2.76916
11
5.90361
21
-2.76916
0
LINE
8
BLACK
6
CONTINUOUS
10
5.90361
20
-2.76916
11
5.90366
21
-2.76917
0
LINE
8
BLACK
6
CONTINUOUS
10
2.55768
20
-2.77402
11
2.55679
21
-2.77402
0
LINE
8
BLACK
6
CONTINUOUS
10
2.55679
20
-2.77402
11
2.52681
21
-2.77717
0
LINE
8
BLACK
6
CONTINUOUS
10
2.52681
20
-2.77717
11
2.49818
21
-2.78603
0
LINE
8
BLACK
6
CONTINUOUS
10
2.49818
20
-2.78603
11
2.47183
21
-2.80028
0
LINE
8
BLACK
6
CONTINUOUS
10
2.47183
20
-2.80028
11
2.44874
21
-2.81938
0
LINE
8
BLACK
6
CONTINUOUS
10
2.44874
20
-2.81938
11
2.4298
21
-2.8426
0
LINE
8
BLACK
6
CONTINUOUS
10
2.4298
20
-2.8426
11
2.41574
21
-2.86906
0
LINE
8
BLACK
6
CONTINUOUS
10
2.41574
20
-2.86906
11
2.40708
21
-2.89774
0
LINE
8
BLACK
6
CONTINUOUS
10
2.40708
20
-2.89774
11
2.40413
21
-2.92775
0
LINE
8
BLACK
6
CONTINUOUS
10
2.40413
20
-2.92775
11
2.40413
21
-6.99252
0
LINE
8
BLACK
6
CONTINUOUS
10
2.40413
20
-6.99252
11
2.40414
21
-6.99341
0
LINE
8
BLACK
6
CONTINUOUS
10
2.40414
20
-6.99341
11
2.40729
21
-7.02339
0
LINE
8
BLACK
6
CONTINUOUS
10
2.40729
20
-7.02339
11
2.41615
21
-7.05201
0
LINE
8
BLACK
6
CONTINUOUS
10
2.41615
20
-7.05201
11
2.4304
21
-7.07837
0
LINE
8
BLACK
6
CONTINUOUS
10
2.4304
20
-7.07837
11
2.4495
21
-7.10146
0
LINE
8
BLACK
6
CONTINUOUS
10
2.4495
20
-7.10146
11
2.47272
21
-7.12039
0
LINE
8
BLACK
6
CONTINUOUS
10
2.47272
20
-7.12039
11
2.49917
21
-7.13446
0
LINE
8
BLACK
6
CONTINUOUS
10
2.49917
20
-7.13446
11
2.52786
21
-7.14312
0
LINE
8
BLACK
6
CONTINUOUS
10
2.52786
20
-7.14312
11
2.55787
21
-7.14606
0
LINE
8
BLACK
6
CONTINUOUS
10
2.55787
20
-7.14606
11
5.87264
21
-7.14606
0
LINE
8
BLACK
6
CONTINUOUS
10
5.87264
20
-7.14606
11
5.87352
21
-7.14606
0
LINE
8
BLACK
6
CONTINUOUS
10
5.87352
20
-7.14606
11
5.90351
21
-7.14291
0
LINE
8
BLACK
6
CONTINUOUS
10
5.90351
20
-7.14291
11
5.93213
21
-7.13405
0
LINE
8
BLACK
6
CONTINUOUS
10
5.93213
20
-7.13405
11
5.95849
21
-7.1198
0
LINE
8
BLACK
6
CONTINUOUS
10
5.95849
20
-7.1198
11
5.98157
21
-7.1007
0
LINE
8
BLACK
6
CONTINUOUS
10
5.98157
20
-7.1007
11
6.00051
21
-7.07748
0
LINE
8
BLACK
6
CONTINUOUS
10
6.00051
20
-7.07748
11
6.01458
21
-7.05102
0
LINE
8
BLACK
6
CONTINUOUS
10
6.01458
20
-7.05102
11
6.02324
21
-7.02234
0
LINE
8
BLACK
6
CONTINUOUS
10
6.02324
20
-7.02234
11
6.02618
21
-6.99233
0
LINE
8
BLACK
6
CONTINUOUS
10
6.02618
20
-6.99233
11
6.02618
21
-5.92048
0
LINE
8
BLACK
6
CONTINUOUS
10
6.02618
20
-5.92048
11
6.02618
21
-5.92048
0
LINE
8
BLACK
6
CONTINUOUS
10
6.02618
20
-5.92048
11
6.02618
21
-3.99922
0
LINE
8
BLACK
6
CONTINUOUS
10
6.02618
20
-3.99922
11
6.02618
21
-3.99922
0
LINE
8
BLACK
6
CONTINUOUS
10
6.02618
20
-3.99922
11
6.02618
21
-2.92756
0
LINE
8
BLACK
6
CONTINUOUS
10
6.02618
20
-2.92756
11
6.02618
21
-2.92667
0
LINE
8
BLACK
6
CONTINUOUS
10
6.02618
20
-2.92667
11
6.02303
21
-2.89669
0
LINE
8
BLACK
6
CONTINUOUS
10
6.02303
20
-2.89669
11
6.01417
21
-2.86807
0
LINE
8
BLACK
6
CONTINUOUS
10
6.01417
20
-2.86807
11
5.99992
21
-2.84171
0
LINE
8
BLACK
6
CONTINUOUS
10
5.99992
20
-2.84171
11
5.98082
21
-2.81862
0
LINE
8
BLACK
6
CONTINUOUS
10
5.98082
20
-2.81862
11
5.9576
21
-2.79969
0
LINE
8
BLACK
6
CONTINUOUS
10
5.9576
20
-2.79969
11
5.93114
21
-2.78562
0
LINE
8
BLACK
6
CONTINUOUS
10
5.93114
20
-2.78562
11
5.90246
21
-2.77696
0
LINE
8
BLACK
6
CONTINUOUS
10
5.90246
20
-2.77696
11
5.87245
21
-2.77402
0
LINE
8
BLACK
6
CONTINUOUS
10
5.87245
20
-2.77402
11
2.55768
21
-2.77402
0
LINE
8
BLACK
6
CONTINUOUS
10
5.82479
20
-6.97801
11
5.82854
21
-6.96895
0
LINE
8
BLACK
6
CONTINUOUS
10
5.82854
20
-6.96895
11
5.83399
21
-6.9608
0
LINE
8
BLACK
6
CONTINUOUS
10
5.83399
20
-6.9608
11
5.84092
21
-6.95387
0
LINE
8
BLACK
6
CONTINUOUS
10
5.84092
20
-6.95387
11
5.84907
21
-6.94842
0
LINE
8
BLACK
6
CONTINUOUS
10
5.84907
20
-6.94842
11
5.85812
21
-6.94467
0
LINE
8
BLACK
6
CONTINUOUS
10
5.85812
20
-6.94467
11
5.86774
21
-6.94276
0
LINE
8
BLACK
6
CONTINUOUS
10
5.86774
20
-6.94276
11
5.87754
21
-6.94276
0
LINE
8
BLACK
6
CONTINUOUS
10
5.87754
20
-6.94276
11
5.88715
21
-6.94467
0
LINE
8
BLACK
6
CONTINUOUS
10
5.88715
20
-6.94467
11
5.89621
21
-6.94842
0
LINE
8
BLACK
6
CONTINUOUS
10
5.89621
20
-6.94842
11
5.90436
21
-6.95387
0
LINE
8
BLACK
6
CONTINUOUS
10
5.90436
20
-6.95387
11
5.91129
21
-6.9608
0
LINE
8
BLACK
6
CONTINUOUS
10
5.91129
20
-6.9608
11
5.91673
21
-6.96895
0
LINE
8
BLACK
6
CONTINUOUS
10
5.91673
20
-6.96895
11
5.92048
21
-6.97801
0
LINE
8
BLACK
6
CONTINUOUS
10
5.92048
20
-6.97801
11
5.9224
21
-6.98762
0
LINE
8
BLACK
6
CONTINUOUS
10
5.9224
20
-6.98762
11
5.9224
21
-6.99742
0
LINE
8
BLACK
6
CONTINUOUS
10
5.9224
20
-6.99742
11
5.92048
21
-7.00703
0
LINE
8
BLACK
6
CONTINUOUS
10
5.92048
20
-7.00703
11
5.91673
21
-7.01609
0
LINE
8
BLACK
6
CONTINUOUS
10
5.91673
20
-7.01609
11
5.91129
21
-7.02424
0
LINE
8
BLACK
6
CONTINUOUS
10
5.91129
20
-7.02424
11
5.90436
21
-7.03117
0
LINE
8
BLACK
6
CONTINUOUS
10
5.90436
20
-7.03117
11
5.89621
21
-7.03662
0
LINE
8
BLACK
6
CONTINUOUS
10
5.89621
20
-7.03662
11
5.88715
21
-7.04037
0
LINE
8
BLACK
6
CONTINUOUS
10
5.88715
20
-7.04037
11
5.87754
21
-7.04228
0
LINE
8
BLACK
6
CONTINUOUS
10
5.87754
20
-7.04228
11
5.86774
21
-7.04228
0
LINE
8
BLACK
6
CONTINUOUS
10
5.86774
20
-7.04228
11
5.85812
21
-7.04037
0
LINE
8
BLACK
6
CONTINUOUS
10
5.85812
20
-7.04037
11
5.84907
21
-7.03662
0
LINE
8
BLACK
6
CONTINUOUS
10
5.84907
20
-7.03662
11
5.84092
21
-7.03117
0
LINE
8
BLACK
6
CONTINUOUS
10
5.84092
20
-7.03117
11
5.83399
21
-7.02424
0
LINE
8
BLACK
6
CONTINUOUS
10
5.83399
20
-7.02424
11
5.82854
21
-7.01609
0
LINE
8
BLACK
6
CONTINUOUS
10
5.82854
20
-7.01609
11
5.82479
21
-7.00703
0
LINE
8
BLACK
6
CONTINUOUS
10
5.82479
20
-7.00703
11
5.82288
21
-6.99742
0
LINE
8
BLACK
6
CONTINUOUS
10
5.82288
20
-6.99742
11
5.82288
21
-6.98762
0
LINE
8
BLACK
6
CONTINUOUS
10
5.82288
20
-6.98762
11
5.82479
21
-6.97801
0
LINE
8
BLACK
6
CONTINUOUS
10
5.83308
20
-7.00452
11
5.83618
21
-7.01201
0
LINE
8
BLACK
6
CONTINUOUS
10
5.83618
20
-7.01201
11
5.84068
21
-7.01874
0
LINE
8
BLACK
6
CONTINUOUS
10
5.84068
20
-7.01874
11
5.84641
21
-7.02447
0
LINE
8
BLACK
6
CONTINUOUS
10
5.84641
20
-7.02447
11
5.85315
21
-7.02898
0
LINE
8
BLACK
6
CONTINUOUS
10
5.85315
20
-7.02898
11
5.86064
21
-7.03208
0
LINE
8
BLACK
6
CONTINUOUS
10
5.86064
20
-7.03208
11
5.86859
21
-7.03366
0
LINE
8
BLACK
6
CONTINUOUS
10
5.86859
20
-7.03366
11
5.87669
21
-7.03366
0
LINE
8
BLACK
6
CONTINUOUS
10
5.87669
20
-7.03366
11
5.88464
21
-7.03208
0
LINE
8
BLACK
6
CONTINUOUS
10
5.88464
20
-7.03208
11
5.89212
21
-7.02898
0
LINE
8
BLACK
6
CONTINUOUS
10
5.89212
20
-7.02898
11
5.89886
21
-7.02447
0
LINE
8
BLACK
6
CONTINUOUS
10
5.89886
20
-7.02447
11
5.90459
21
-7.01874
0
LINE
8
BLACK
6
CONTINUOUS
10
5.90459
20
-7.01874
11
5.9091
21
-7.01201
0
LINE
8
BLACK
6
CONTINUOUS
10
5.9091
20
-7.01201
11
5.9122
21
-7.00452
0
LINE
8
BLACK
6
CONTINUOUS
10
5.9122
20
-7.00452
11
5.91378
21
-6.99657
0
LINE
8
BLACK
6
CONTINUOUS
10
5.91378
20
-6.99657
11
5.91378
21
-6.98847
0
LINE
8
BLACK
6
CONTINUOUS
10
5.91378
20
-6.98847
11
5.9122
21
-6.98052
0
LINE
8
BLACK
6
CONTINUOUS
10
5.9122
20
-6.98052
11
5.9091
21
-6.97303
0
LINE
8
BLACK
6
CONTINUOUS
10
5.9091
20
-6.97303
11
5.90459
21
-6.96629
0
LINE
8
BLACK
6
CONTINUOUS
10
5.90459
20
-6.96629
11
5.89886
21
-6.96056
0
LINE
8
BLACK
6
CONTINUOUS
10
5.89886
20
-6.96056
11
5.89212
21
-6.95606
0
LINE
8
BLACK
6
CONTINUOUS
10
5.89212
20
-6.95606
11
5.88464
21
-6.95296
0
LINE
8
BLACK
6
CONTINUOUS
10
5.88464
20
-6.95296
11
5.87669
21
-6.95138
0
LINE
8
BLACK
6
CONTINUOUS
10
5.87669
20
-6.95138
11
5.86859
21
-6.95138
0
LINE
8
BLACK
6
CONTINUOUS
10
5.86859
20
-6.95138
11
5.86064
21
-6.95296
0
LINE
8
BLACK
6
CONTINUOUS
10
5.86064
20
-6.95296
11
5.85315
21
-6.95606
0
LINE
8
BLACK
6
CONTINUOUS
10
5.85315
20
-6.95606
11
5.84641
21
-6.96056
0
LINE
8
BLACK
6
CONTINUOUS
10
5.84641
20
-6.96056
11
5.84068
21
-6.96629
0
LINE
8
BLACK
6
CONTINUOUS
10
5.84068
20
-6.96629
11
5.83618
21
-6.97303
0
LINE
8
BLACK
6
CONTINUOUS
10
5.83618
20
-6.97303
11
5.83308
21
-6.98052
0
LINE
8
BLACK
6
CONTINUOUS
10
5.83308
20
-6.98052
11
5.8315
21
-6.98847
0
LINE
8
BLACK
6
CONTINUOUS
10
5.8315
20
-6.98847
11
5.8315
21
-6.99657
0
LINE
8
BLACK
6
CONTINUOUS
10
5.8315
20
-6.99657
11
5.83308
21
-7.00452
0
LINE
8
BLACK
6
CONTINUOUS
10
2.50983
20
-6.97801
11
2.51358
21
-6.96895
0
LINE
8
BLACK
6
CONTINUOUS
10
2.51358
20
-6.96895
11
2.51903
21
-6.9608
0
LINE
8
BLACK
6
CONTINUOUS
10
2.51903
20
-6.9608
11
2.52596
21
-6.95387
0
LINE
8
BLACK
6
CONTINUOUS
10
2.52596
20
-6.95387
11
2.53411
21
-6.94842
0
LINE
8
BLACK
6
CONTINUOUS
10
2.53411
20
-6.94842
11
2.54316
21
-6.94467
0
LINE
8
BLACK
6
CONTINUOUS
10
2.54316
20
-6.94467
11
2.55278
21
-6.94276
0
LINE
8
BLACK
6
CONTINUOUS
10
2.55278
20
-6.94276
11
2.56258
21
-6.94276
0
LINE
8
BLACK
6
CONTINUOUS
10
2.56258
20
-6.94276
11
2.57219
21
-6.94467
0
LINE
8
BLACK
6
CONTINUOUS
10
2.57219
20
-6.94467
11
2.58125
21
-6.94842
0
LINE
8
BLACK
6
CONTINUOUS
10
2.58125
20
-6.94842
11
2.5894
21
-6.95387
0
LINE
8
BLACK
6
CONTINUOUS
10
2.5894
20
-6.95387
11
2.59633
21
-6.9608
0
LINE
8
BLACK
6
CONTINUOUS
10
2.59633
20
-6.9608
11
2.60177
21
-6.96895
0
LINE
8
BLACK
6
CONTINUOUS
10
2.60177
20
-6.96895
11
2.60552
21
-6.97801
0
LINE
8
BLACK
6
CONTINUOUS
10
2.60552
20
-6.97801
11
2.60744
21
-6.98762
0
LINE
8
BLACK
6
CONTINUOUS
10
2.60744
20
-6.98762
11
2.60744
21
-6.99742
0
LINE
8
BLACK
6
CONTINUOUS
10
2.60744
20
-6.99742
11
2.60552
21
-7.00703
0
LINE
8
BLACK
6
CONTINUOUS
10
2.60552
20
-7.00703
11
2.60177
21
-7.01609
0
LINE
8
BLACK
6
CONTINUOUS
10
2.60177
20
-7.01609
11
2.59633
21
-7.02424
0
LINE
8
BLACK
6
CONTINUOUS
10
2.59633
20
-7.02424
11
2.5894
21
-7.03117
0
LINE
8
BLACK
6
CONTINUOUS
10
2.5894
20
-7.03117
11
2.58125
21
-7.03662
0
LINE
8
BLACK
6
CONTINUOUS
10
2.58125
20
-7.03662
11
2.57219
21
-7.04037
0
LINE
8
BLACK
6
CONTINUOUS
10
2.57219
20
-7.04037
11
2.56258
21
-7.04228
0
LINE
8
BLACK
6
CONTINUOUS
10
2.56258
20
-7.04228
11
2.55278
21
-7.04228
0
LINE
8
BLACK
6
CONTINUOUS
10
2.55278
20
-7.04228
11
2.54316
21
-7.04037
0
LINE
8
BLACK
6
CONTINUOUS
10
2.54316
20
-7.04037
11
2.53411
21
-7.03662
0
LINE
8
BLACK
6
CONTINUOUS
10
2.53411
20
-7.03662
11
2.52596
21
-7.03117
0
LINE
8
BLACK
6
CONTINUOUS
10
2.52596
20
-7.03117
11
2.51903
21
-7.02424
0
LINE
8
BLACK
6
CONTINUOUS
10
2.51903
20
-7.02424
11
2.51358
21
-7.01609
0
LINE
8
BLACK
6
CONTINUOUS
10
2.51358
20
-7.01609
11
2.50983
21
-7.00703
0
LINE
8
BLACK
6
CONTINUOUS
10
2.50983
20
-7.00703
11
2.50792
21
-6.99742
0
LINE
8
BLACK
6
CONTINUOUS
10
2.50792
20
-6.99742
11
2.50792
21
-6.98762
0
LINE
8
BLACK
6
CONTINUOUS
10
2.50792
20
-6.98762
11
2.50983
21
-6.97801
0
LINE
8
BLACK
6
CONTINUOUS
10
2.51812
20
-7.00452
11
2.52122
21
-7.01201
0
LINE
8
BLACK
6
CONTINUOUS
10
2.52122
20
-7.01201
11
2.52572
21
-7.01874
0
LINE
8
BLACK
6
CONTINUOUS
10
2.52572
20
-7.01874
11
2.53145
21
-7.02447
0
LINE
8
BLACK
6
CONTINUOUS
10
2.53145
20
-7.02447
11
2.53819
21
-7.02898
0
LINE
8
BLACK
6
CONTINUOUS
10
2.53819
20
-7.02898
11
2.54568
21
-7.03208
0
LINE
8
BLACK
6
CONTINUOUS
10
2.54568
20
-7.03208
11
2.55363
21
-7.03366
0
LINE
8
BLACK
6
CONTINUOUS
10
2.55363
20
-7.03366
11
2.56173
21
-7.03366
0
LINE
8
BLACK
6
CONTINUOUS
10
2.56173
20
-7.03366
11
2.56968
21
-7.03208
0
LINE
8
BLACK
6
CONTINUOUS
10
2.56968
20
-7.03208
11
2.57716
21
-7.02898
0
LINE
8
BLACK
6
CONTINUOUS
10
2.57716
20
-7.02898
11
2.5839
21
-7.02447
0
LINE
8
BLACK
6
CONTINUOUS
10
2.5839
20
-7.02447
11
2.58963
21
-7.01874
0
LINE
8
BLACK
6
CONTINUOUS
10
2.58963
20
-7.01874
11
2.59413
21
-7.01201
0
LINE
8
BLACK
6
CONTINUOUS
10
2.59413
20
-7.01201
11
2.59724
21
-7.00452
0
LINE
8
BLACK
6
CONTINUOUS
10
2.59724
20
-7.00452
11
2.59882
21
-6.99657
0
LINE
8
BLACK
6
CONTINUOUS
10
2.59882
20
-6.99657
11
2.59882
21
-6.98847
0
LINE
8
BLACK
6
CONTINUOUS
10
2.59882
20
-6.98847
11
2.59724
21
-6.98052
0
LINE
8
BLACK
6
CONTINUOUS
10
2.59724
20
-6.98052
11
2.59413
21
-6.97303
0
LINE
8
BLACK
6
CONTINUOUS
10
2.59413
20
-6.97303
11
2.58963
21
-6.96629
0
LINE
8
BLACK
6
CONTINUOUS
10
2.58963
20
-6.96629
11
2.5839
21
-6.96056
0
LINE
8
BLACK
6
CONTINUOUS
10
2.5839
20
-6.96056
11
2.57716
21
-6.95606
0
LINE
8
BLACK
6
CONTINUOUS
10
2.57716
20
-6.95606
11
2.56968
21
-6.95296
0
LINE
8
BLACK
6
CONTINUOUS
10
2.56968
20
-6.95296
11
2.56173
21
-6.95138
0
LINE
8
BLACK
6
CONTINUOUS
10
2.56173
20
-6.95138
11
2.55363
21
-6.95138
0
LINE
8
BLACK
6
CONTINUOUS
10
2.55363
20
-6.95138
11
2.54568
21
-6.95296
0
LINE
8
BLACK
6
CONTINUOUS
10
2.54568
20
-6.95296
11
2.53819
21
-6.95606
0
LINE
8
BLACK
6
CONTINUOUS
10
2.53819
20
-6.95606
11
2.53145
21
-6.96056
0
LINE
8
BLACK
6
CONTINUOUS
10
2.53145
20
-6.96056
11
2.52572
21
-6.96629
0
LINE
8
BLACK
6
CONTINUOUS
10
2.52572
20
-6.96629
11
2.52122
21
-6.97303
0
LINE
8
BLACK
6
CONTINUOUS
10
2.52122
20
-6.97303
11
2.51812
21
-6.98052
0
LINE
8
BLACK
6
CONTINUOUS
10
2.51812
20
-6.98052
11
2.51654
21
-6.98847
0
LINE
8
BLACK
6
CONTINUOUS
10
2.51654
20
-6.98847
11
2.51654
21
-6.99657
0
LINE
8
BLACK
6
CONTINUOUS
10
2.51654
20
-6.99657
11
2.51812
21
-7.00452
0
LINE
8
BLACK
6
CONTINUOUS
10
2.50983
20
-2.91304
11
2.51358
21
-2.90399
0
LINE
8
BLACK
6
CONTINUOUS
10
2.51358
20
-2.90399
11
2.51903
21
-2.89584
0
LINE
8
BLACK
6
CONTINUOUS
10
2.51903
20
-2.89584
11
2.52596
21
-2.88891
0
LINE
8
BLACK
6
CONTINUOUS
10
2.52596
20
-2.88891
11
2.53411
21
-2.88346
0
LINE
8
BLACK
6
CONTINUOUS
10
2.53411
20
-2.88346
11
2.54316
21
-2.87971
0
LINE
8
BLACK
6
CONTINUOUS
10
2.54316
20
-2.87971
11
2.55278
21
-2.8778
0
LINE
8
BLACK
6
CONTINUOUS
10
2.55278
20
-2.8778
11
2.56258
21
-2.8778
0
LINE
8
BLACK
6
CONTINUOUS
10
2.56258
20
-2.8778
11
2.57219
21
-2.87971
0
LINE
8
BLACK
6
CONTINUOUS
10
2.57219
20
-2.87971
11
2.58125
21
-2.88346
0
LINE
8
BLACK
6
CONTINUOUS
10
2.58125
20
-2.88346
11
2.5894
21
-2.88891
0
LINE
8
BLACK
6
CONTINUOUS
10
2.5894
20
-2.88891
11
2.59633
21
-2.89584
0
LINE
8
BLACK
6
CONTINUOUS
10
2.59633
20
-2.89584
11
2.60177
21
-2.90399
0
LINE
8
BLACK
6
CONTINUOUS
10
2.60177
20
-2.90399
11
2.60552
21
-2.91304
0
LINE
8
BLACK
6
CONTINUOUS
10
2.60552
20
-2.91304
11
2.60744
21
-2.92266
0
LINE
8
BLACK
6
CONTINUOUS
10
2.60744
20
-2.92266
11
2.60744
21
-2.93246
0
LINE
8
BLACK
6
CONTINUOUS
10
2.60744
20
-2.93246
11
2.60552
21
-2.94207
0
LINE
8
BLACK
6
CONTINUOUS
10
2.60552
20
-2.94207
11
2.60177
21
-2.95113
0
LINE
8
BLACK
6
CONTINUOUS
10
2.60177
20
-2.95113
11
2.59633
21
-2.95928
0
LINE
8
BLACK
6
CONTINUOUS
10
2.59633
20
-2.95928
11
2.5894
21
-2.96621
0
LINE
8
BLACK
6
CONTINUOUS
10
2.5894
20
-2.96621
11
2.58125
21
-2.97166
0
LINE
8
BLACK
6
CONTINUOUS
10
2.58125
20
-2.97166
11
2.57219
21
-2.97541
0
LINE
8
BLACK
6
CONTINUOUS
10
2.57219
20
-2.97541
11
2.56258
21
-2.97732
0
LINE
8
BLACK
6
CONTINUOUS
10
2.56258
20
-2.97732
11
2.55278
21
-2.97732
0
LINE
8
BLACK
6
CONTINUOUS
10
2.55278
20
-2.97732
11
2.54316
21
-2.97541
0
LINE
8
BLACK
6
CONTINUOUS
10
2.54316
20
-2.97541
11
2.53411
21
-2.97166
0
LINE
8
BLACK
6
CONTINUOUS
10
2.53411
20
-2.97166
11
2.52596
21
-2.96621
0
LINE
8
BLACK
6
CONTINUOUS
10
2.52596
20
-2.96621
11
2.51903
21
-2.95928
0
LINE
8
BLACK
6
CONTINUOUS
10
2.51903
20
-2.95928
11
2.51358
21
-2.95113
0
LINE
8
BLACK
6
CONTINUOUS
10
2.51358
20
-2.95113
11
2.50983
21
-2.94207
0
LINE
8
BLACK
6
CONTINUOUS
10
2.50983
20
-2.94207
11
2.50792
21
-2.93246
0
LINE
8
BLACK
6
CONTINUOUS
10
2.50792
20
-2.93246
11
2.50792
21
-2.92266
0
LINE
8
BLACK
6
CONTINUOUS
10
2.50792
20
-2.92266
11
2.50983
21
-2.91304
0
LINE
8
BLACK
6
CONTINUOUS
10
2.51812
20
-2.93956
11
2.52122
21
-2.94705
0
LINE
8
BLACK
6
CONTINUOUS
10
2.52122
20
-2.94705
11
2.52572
21
-2.95378
0
LINE
8
BLACK
6
CONTINUOUS
10
2.52572
20
-2.95378
11
2.53145
21
-2.95951
0
LINE
8
BLACK
6
CONTINUOUS
10
2.53145
20
-2.95951
11
2.53819
21
-2.96402
0
LINE
8
BLACK
6
CONTINUOUS
10
2.53819
20
-2.96402
11
2.54568
21
-2.96712
0
LINE
8
BLACK
6
CONTINUOUS
10
2.54568
20
-2.96712
11
2.55363
21
-2.9687
0
LINE
8
BLACK
6
CONTINUOUS
10
2.55363
20
-2.9687
11
2.56173
21
-2.9687
0
LINE
8
BLACK
6
CONTINUOUS
10
2.56173
20
-2.9687
11
2.56968
21
-2.96712
0
LINE
8
BLACK
6
CONTINUOUS
10
2.56968
20
-2.96712
11
2.57716
21
-2.96402
0
LINE
8
BLACK
6
CONTINUOUS
10
2.57716
20
-2.96402
11
2.5839
21
-2.95951
0
LINE
8
BLACK
6
CONTINUOUS
10
2.5839
20
-2.95951
11
2.58963
21
-2.95378
0
LINE
8
BLACK
6
CONTINUOUS
10
2.58963
20
-2.95378
11
2.59413
21
-2.94705
0
LINE
8
BLACK
6
CONTINUOUS
10
2.59413
20
-2.94705
11
2.59724
21
-2.93956
0
LINE
8
BLACK
6
CONTINUOUS
10
2.59724
20
-2.93956
11
2.59882
21
-2.93161
0
LINE
8
BLACK
6
CONTINUOUS
10
2.59882
20
-2.93161
11
2.59882
21
-2.92351
0
LINE
8
BLACK
6
CONTINUOUS
10
2.59882
20
-2.92351
11
2.59724
21
-2.91556
0
LINE
8
BLACK
6
CONTINUOUS
10
2.59724
20
-2.91556
11
2.59413
21
-2.90807
0
LINE
8
BLACK
6
CONTINUOUS
10
2.59413
20
-2.90807
11
2.58963
21
-2.90133
0
LINE
8
BLACK
6
CONTINUOUS
10
2.58963
20
-2.90133
11
2.5839
21
-2.8956
0
LINE
8
BLACK
6
CONTINUOUS
10
2.5839
20
-2.8956
11
2.57716
21
-2.8911
0
LINE
8
BLACK
6
CONTINUOUS
10
2.57716
20
-2.8911
11
2.56968
21
-2.888
0
LINE
8
BLACK
6
CONTINUOUS
10
2.56968
20
-2.888
11
2.56173
21
-2.88642
0
LINE
8
BLACK
6
CONTINUOUS
10
2.56173
20
-2.88642
11
2.55363
21
-2.88642
0
LINE
8
BLACK
6
CONTINUOUS
10
2.55363
20
-2.88642
11
2.54568
21
-2.888
0
LINE
8
BLACK
6
CONTINUOUS
10
2.54568
20
-2.888
11
2.53819
21
-2.8911
0
LINE
8
BLACK
6
CONTINUOUS
10
2.53819
20
-2.8911
11
2.53145
21
-2.8956
0
LINE
8
BLACK
6
CONTINUOUS
10
2.53145
20
-2.8956
11
2.52572
21
-2.90133
0
LINE
8
BLACK
6
CONTINUOUS
10
2.52572
20
-2.90133
11
2.52122
21
-2.90807
0
LINE
8
BLACK
6
CONTINUOUS
10
2.52122
20
-2.90807
11
2.51812
21
-2.91556
0
LINE
8
BLACK
6
CONTINUOUS
10
2.51812
20
-2.91556
11
2.51654
21
-2.92351
0
LINE
8
BLACK
6
CONTINUOUS
10
2.51654
20
-2.92351
11
2.51654
21
-2.93161
0
LINE
8
BLACK
6
CONTINUOUS
10
2.51654
20
-2.93161
11
2.51812
21
-2.93956
0
LINE
8
BLACK
6
CONTINUOUS
10
5.82479
20
-2.91304
11
5.82854
21
-2.90399
0
LINE
8
BLACK
6
CONTINUOUS
10
5.82854
20
-2.90399
11
5.83399
21
-2.89584
0
LINE
8
BLACK
6
CONTINUOUS
10
5.83399
20
-2.89584
11
5.84092
21
-2.88891
0
LINE
8
BLACK
6
CONTINUOUS
10
5.84092
20
-2.88891
11
5.84907
21
-2.88346
0
LINE
8
BLACK
6
CONTINUOUS
10
5.84907
20
-2.88346
11
5.85812
21
-2.87971
0
LINE
8
BLACK
6
CONTINUOUS
10
5.85812
20
-2.87971
11
5.86774
21
-2.8778
0
LINE
8
BLACK
6
CONTINUOUS
10
5.86774
20
-2.8778
11
5.87754
21
-2.8778
0
LINE
8
BLACK
6
CONTINUOUS
10
5.87754
20
-2.8778
11
5.88715
21
-2.87971
0
LINE
8
BLACK
6
CONTINUOUS
10
5.88715
20
-2.87971
11
5.89621
21
-2.88346
0
LINE
8
BLACK
6
CONTINUOUS
10
5.89621
20
-2.88346
11
5.90436
21
-2.88891
0
LINE
8
BLACK
6
CONTINUOUS
10
5.90436
20
-2.88891
11
5.91129
21
-2.89584
0
LINE
8
BLACK
6
CONTINUOUS
10
5.91129
20
-2.89584
11
5.91673
21
-2.90399
0
LINE
8
BLACK
6
CONTINUOUS
10
5.91673
20
-2.90399
11
5.92048
21
-2.91304
0
LINE
8
BLACK
6
CONTINUOUS
10
5.92048
20
-2.91304
11
5.9224
21
-2.92266
0
LINE
8
BLACK
6
CONTINUOUS
10
5.9224
20
-2.92266
11
5.9224
21
-2.93246
0
LINE
8
BLACK
6
CONTINUOUS
10
5.9224
20
-2.93246
11
5.92048
21
-2.94207
0
LINE
8
BLACK
6
CONTINUOUS
10
5.92048
20
-2.94207
11
5.91673
21
-2.95113
0
LINE
8
BLACK
6
CONTINUOUS
10
5.91673
20
-2.95113
11
5.91129
21
-2.95928
0
LINE
8
BLACK
6
CONTINUOUS
10
5.91129
20
-2.95928
11
5.90436
21
-2.96621
0
LINE
8
BLACK
6
CONTINUOUS
10
5.90436
20
-2.96621
11
5.89621
21
-2.97166
0
LINE
8
BLACK
6
CONTINUOUS
10
5.89621
20
-2.97166
11
5.88715
21
-2.97541
0
LINE
8
BLACK
6
CONTINUOUS
10
5.88715
20
-2.97541
11
5.87754
21
-2.97732
0
LINE
8
BLACK
6
CONTINUOUS
10
5.87754
20
-2.97732
11
5.86774
21
-2.97732
0
LINE
8
BLACK
6
CONTINUOUS
10
5.86774
20
-2.97732
11
5.85812
21
-2.97541
0
LINE
8
BLACK
6
CONTINUOUS
10
5.85812
20
-2.97541
11
5.84907
21
-2.97166
0
LINE
8
BLACK
6
CONTINUOUS
10
5.84907
20
-2.97166
11
5.84092
21
-2.96621
0
LINE
8
BLACK
6
CONTINUOUS
10
5.84092
20
-2.96621
11
5.83399
21
-2.95928
0
LINE
8
BLACK
6
CONTINUOUS
10
5.83399
20
-2.95928
11
5.82854
21
-2.95113
0
LINE
8
BLACK
6
CONTINUOUS
10
5.82854
20
-2.95113
11
5.82479
21
-2.94207
0
LINE
8
BLACK
6
CONTINUOUS
10
5.82479
20
-2.94207
11
5.82288
21
-2.93246
0
LINE
8
BLACK
6
CONTINUOUS
10
5.82288
20
-2.93246
11
5.82288
21
-2.92266
0
LINE
8
BLACK
6
CONTINUOUS
10
5.82288
20
-2.92266
11
5.82479
21
-2.91304
0
LINE
8
BLACK
6
CONTINUOUS
10
5.83308
20
-2.93956
11
5.83618
21
-2.94705
0
LINE
8
BLACK
6
CONTINUOUS
10
5.83618
20
-2.94705
11
5.84068
21
-2.95378
0
LINE
8
BLACK
6
CONTINUOUS
10
5.84068
20
-2.95378
11
5.84641
21
-2.95951
0
LINE
8
BLACK
6
CONTINUOUS
10
5.84641
20
-2.95951
11
5.85315
21
-2.96402
0
LINE
8
BLACK
6
CONTINUOUS
10
5.85315
20
-2.96402
11
5.86064
21
-2.96712
0
LINE
8
BLACK
6
CONTINUOUS
10
5.86064
20
-2.96712
11
5.86859
21
-2.9687
0
LINE
8
BLACK
6
CONTINUOUS
10
5.86859
20
-2.9687
11
5.87669
21
-2.9687
0
LINE
8
BLACK
6
CONTINUOUS
10
5.87669
20
-2.9687
11
5.88464
21
-2.96712
0
LINE
8
BLACK
6
CONTINUOUS
10
5.88464
20
-2.96712
11
5.89212
21
-2.96402
0
LINE
8
BLACK
6
CONTINUOUS
10
5.89212
20
-2.96402
11
5.89886
21
-2.95951
0
LINE
8
BLACK
6
CONTINUOUS
10
5.89886
20
-2.95951
11
5.90459
21
-2.95378
0
LINE
8
BLACK
6
CONTINUOUS
10
5.90459
20
-2.95378
11
5.9091
21
-2.94705
0
LINE
8
BLACK
6
CONTINUOUS
10
5.9091
20
-2.94705
11
5.9122
21
-2.93956
0
LINE
8
BLACK
6
CONTINUOUS
10
5.9122
20
-2.93956
11
5.91378
21
-2.93161
0
LINE
8
BLACK
6
CONTINUOUS
10
5.91378
20
-2.93161
11
5.91378
21
-2.92351
0
LINE
8
BLACK
6
CONTINUOUS
10
5.91378
20
-2.92351
11
5.9122
21
-2.91556
0
LINE
8
BLACK
6
CONTINUOUS
10
5.9122
20
-2.91556
11
5.9091
21
-2.90807
0
LINE
8
BLACK
6
CONTINUOUS
10
5.9091
20
-2.90807
11
5.90459
21
-2.90133
0
LINE
8
BLACK
6
CONTINUOUS
10
5.90459
20
-2.90133
11
5.89886
21
-2.8956
0
LINE
8
BLACK
6
CONTINUOUS
10
5.89886
20
-2.8956
11
5.89212
21
-2.8911
0
LINE
8
BLACK
6
CONTINUOUS
10
5.89212
20
-2.8911
11
5.88464
21
-2.888
0
LINE
8
BLACK
6
CONTINUOUS
10
5.88464
20
-2.888
11
5.87669
21
-2.88642
0
LINE
8
BLACK
6
CONTINUOUS
10
5.87669
20
-2.88642
11
5.86859
21
-2.88642
0
LINE
8
BLACK
6
CONTINUOUS
10
5.86859
20
-2.88642
11
5.86064
21
-2.888
0
LINE
8
BLACK
6
CONTINUOUS
10
5.86064
20
-2.888
11
5.85315
21
-2.8911
0
LINE
8
BLACK
6
CONTINUOUS
10
5.85315
20
-2.8911
11
5.84641
21
-2.8956
0
LINE
8
BLACK
6
CONTINUOUS
10
5.84641
20
-2.8956
11
5.84068
21
-2.90133
0
LINE
8
BLACK
6
CONTINUOUS
10
5.84068
20
-2.90133
11
5.83618
21
-2.90807
0
LINE
8
BLACK
6
CONTINUOUS
10
5.83618
20
-2.90807
11
5.83308
21
-2.91556
0
LINE
8
BLACK
6
CONTINUOUS
10
5.83308
20
-2.91556
11
5.8315
21
-2.92351
0
LINE
8
BLACK
6
CONTINUOUS
10
5.8315
20
-2.92351
11
5.8315
21
-2.93161
0
LINE
8
BLACK
6
CONTINUOUS
10
5.8315
20
-2.93161
11
5.83308
21
-2.93956
  0
ENDSEC
  0
EOF
