G04 #@! TF.GenerationSoftware,KiCad,Pcbnew,5.1.10-5.1.10*
G04 #@! TF.CreationDate,2021-07-11T16:51:32+05:30*
G04 #@! TF.ProjectId,Soyuz_top,536f7975-7a5f-4746-9f70-2e6b69636164,rev?*
G04 #@! TF.SameCoordinates,Original*
G04 #@! TF.FileFunction,Legend,Bot*
G04 #@! TF.FilePolarity,Positive*
%FSLAX46Y46*%
G04 Gerber Fmt 4.6, Leading zero omitted, Abs format (unit mm)*
G04 Created by KiCad (PCBNEW 5.1.10-5.1.10) date 2021-07-11 16:51:32*
%MOMM*%
%LPD*%
G01*
G04 APERTURE LIST*
%ADD10C,0.300000*%
G04 APERTURE END LIST*
%LPC*%
D10*
X174852678Y-86491071D02*
X173995535Y-86491071D01*
X174424107Y-87991071D02*
X174424107Y-86491071D01*
X173495535Y-87991071D02*
X173495535Y-86491071D01*
X172852678Y-87991071D02*
X172852678Y-87205357D01*
X172924107Y-87062500D01*
X173066964Y-86991071D01*
X173281250Y-86991071D01*
X173424107Y-87062500D01*
X173495535Y-87133928D01*
X172138392Y-87991071D02*
X172138392Y-86991071D01*
X172138392Y-86491071D02*
X172209821Y-86562500D01*
X172138392Y-86633928D01*
X172066964Y-86562500D01*
X172138392Y-86491071D01*
X172138392Y-86633928D01*
X171495535Y-87919642D02*
X171352678Y-87991071D01*
X171066964Y-87991071D01*
X170924107Y-87919642D01*
X170852678Y-87776785D01*
X170852678Y-87705357D01*
X170924107Y-87562500D01*
X171066964Y-87491071D01*
X171281250Y-87491071D01*
X171424107Y-87419642D01*
X171495535Y-87276785D01*
X171495535Y-87205357D01*
X171424107Y-87062500D01*
X171281250Y-86991071D01*
X171066964Y-86991071D01*
X170924107Y-87062500D01*
X169066964Y-87991071D02*
X169066964Y-86991071D01*
X169066964Y-86491071D02*
X169138392Y-86562500D01*
X169066964Y-86633928D01*
X168995535Y-86562500D01*
X169066964Y-86491071D01*
X169066964Y-86633928D01*
X168424107Y-87919642D02*
X168281250Y-87991071D01*
X167995535Y-87991071D01*
X167852678Y-87919642D01*
X167781250Y-87776785D01*
X167781250Y-87705357D01*
X167852678Y-87562500D01*
X167995535Y-87491071D01*
X168209821Y-87491071D01*
X168352678Y-87419642D01*
X168424107Y-87276785D01*
X168424107Y-87205357D01*
X168352678Y-87062500D01*
X168209821Y-86991071D01*
X167995535Y-86991071D01*
X167852678Y-87062500D01*
X166209821Y-86991071D02*
X165638392Y-86991071D01*
X165995535Y-86491071D02*
X165995535Y-87776785D01*
X165924107Y-87919642D01*
X165781250Y-87991071D01*
X165638392Y-87991071D01*
X165138392Y-87991071D02*
X165138392Y-86491071D01*
X164495535Y-87991071D02*
X164495535Y-87205357D01*
X164566964Y-87062500D01*
X164709821Y-86991071D01*
X164924107Y-86991071D01*
X165066964Y-87062500D01*
X165138392Y-87133928D01*
X163209821Y-87919642D02*
X163352678Y-87991071D01*
X163638392Y-87991071D01*
X163781250Y-87919642D01*
X163852678Y-87776785D01*
X163852678Y-87205357D01*
X163781250Y-87062500D01*
X163638392Y-86991071D01*
X163352678Y-86991071D01*
X163209821Y-87062500D01*
X163138392Y-87205357D01*
X163138392Y-87348214D01*
X163852678Y-87491071D01*
X161352678Y-87991071D02*
X161352678Y-86491071D01*
X161352678Y-87062500D02*
X161209821Y-86991071D01*
X160924107Y-86991071D01*
X160781250Y-87062500D01*
X160709821Y-87133928D01*
X160638392Y-87276785D01*
X160638392Y-87705357D01*
X160709821Y-87848214D01*
X160781250Y-87919642D01*
X160924107Y-87991071D01*
X161209821Y-87991071D01*
X161352678Y-87919642D01*
X159781250Y-87991071D02*
X159924107Y-87919642D01*
X159995535Y-87848214D01*
X160066964Y-87705357D01*
X160066964Y-87276785D01*
X159995535Y-87133928D01*
X159924107Y-87062500D01*
X159781250Y-86991071D01*
X159566964Y-86991071D01*
X159424107Y-87062500D01*
X159352678Y-87133928D01*
X159281250Y-87276785D01*
X159281250Y-87705357D01*
X159352678Y-87848214D01*
X159424107Y-87919642D01*
X159566964Y-87991071D01*
X159781250Y-87991071D01*
X158852678Y-86991071D02*
X158281250Y-86991071D01*
X158638392Y-86491071D02*
X158638392Y-87776785D01*
X158566964Y-87919642D01*
X158424107Y-87991071D01*
X158281250Y-87991071D01*
X157995535Y-86991071D02*
X157424107Y-86991071D01*
X157781250Y-86491071D02*
X157781250Y-87776785D01*
X157709821Y-87919642D01*
X157566964Y-87991071D01*
X157424107Y-87991071D01*
X156709821Y-87991071D02*
X156852678Y-87919642D01*
X156924107Y-87848214D01*
X156995535Y-87705357D01*
X156995535Y-87276785D01*
X156924107Y-87133928D01*
X156852678Y-87062500D01*
X156709821Y-86991071D01*
X156495535Y-86991071D01*
X156352678Y-87062500D01*
X156281250Y-87133928D01*
X156209821Y-87276785D01*
X156209821Y-87705357D01*
X156281250Y-87848214D01*
X156352678Y-87919642D01*
X156495535Y-87991071D01*
X156709821Y-87991071D01*
X155566964Y-87991071D02*
X155566964Y-86991071D01*
X155566964Y-87133928D02*
X155495535Y-87062500D01*
X155352678Y-86991071D01*
X155138392Y-86991071D01*
X154995535Y-87062500D01*
X154924107Y-87205357D01*
X154924107Y-87991071D01*
X154924107Y-87205357D02*
X154852678Y-87062500D01*
X154709821Y-86991071D01*
X154495535Y-86991071D01*
X154352678Y-87062500D01*
X154281250Y-87205357D01*
X154281250Y-87991071D01*
X153638392Y-87919642D02*
X153495535Y-87991071D01*
X153209821Y-87991071D01*
X153066964Y-87919642D01*
X152995535Y-87776785D01*
X152995535Y-87705357D01*
X153066964Y-87562500D01*
X153209821Y-87491071D01*
X153424107Y-87491071D01*
X153566964Y-87419642D01*
X153638392Y-87276785D01*
X153638392Y-87205357D01*
X153566964Y-87062500D01*
X153424107Y-86991071D01*
X153209821Y-86991071D01*
X153066964Y-87062500D01*
X152352678Y-87991071D02*
X152352678Y-86991071D01*
X152352678Y-86491071D02*
X152424107Y-86562500D01*
X152352678Y-86633928D01*
X152281250Y-86562500D01*
X152352678Y-86491071D01*
X152352678Y-86633928D01*
X150995535Y-87991071D02*
X150995535Y-86491071D01*
X150995535Y-87919642D02*
X151138392Y-87991071D01*
X151424107Y-87991071D01*
X151566964Y-87919642D01*
X151638392Y-87848214D01*
X151709821Y-87705357D01*
X151709821Y-87276785D01*
X151638392Y-87133928D01*
X151566964Y-87062500D01*
X151424107Y-86991071D01*
X151138392Y-86991071D01*
X150995535Y-87062500D01*
X149709821Y-87919642D02*
X149852678Y-87991071D01*
X150138392Y-87991071D01*
X150281250Y-87919642D01*
X150352678Y-87776785D01*
X150352678Y-87205357D01*
X150281250Y-87062500D01*
X150138392Y-86991071D01*
X149852678Y-86991071D01*
X149709821Y-87062500D01*
X149638392Y-87205357D01*
X149638392Y-87348214D01*
X150352678Y-87491071D01*
X147638392Y-87991071D02*
X147781250Y-87919642D01*
X147852678Y-87848214D01*
X147924107Y-87705357D01*
X147924107Y-87276785D01*
X147852678Y-87133928D01*
X147781250Y-87062500D01*
X147638392Y-86991071D01*
X147424107Y-86991071D01*
X147281250Y-87062500D01*
X147209821Y-87133928D01*
X147138392Y-87276785D01*
X147138392Y-87705357D01*
X147209821Y-87848214D01*
X147281250Y-87919642D01*
X147424107Y-87991071D01*
X147638392Y-87991071D01*
X146709821Y-86991071D02*
X146138392Y-86991071D01*
X146495535Y-87991071D02*
X146495535Y-86705357D01*
X146424107Y-86562500D01*
X146281250Y-86491071D01*
X146138392Y-86491071D01*
X144709821Y-86991071D02*
X144138392Y-86991071D01*
X144495535Y-86491071D02*
X144495535Y-87776785D01*
X144424107Y-87919642D01*
X144281250Y-87991071D01*
X144138392Y-87991071D01*
X143638392Y-87991071D02*
X143638392Y-86491071D01*
X142995535Y-87991071D02*
X142995535Y-87205357D01*
X143066964Y-87062500D01*
X143209821Y-86991071D01*
X143424107Y-86991071D01*
X143566964Y-87062500D01*
X143638392Y-87133928D01*
X141709821Y-87919642D02*
X141852678Y-87991071D01*
X142138392Y-87991071D01*
X142281250Y-87919642D01*
X142352678Y-87776785D01*
X142352678Y-87205357D01*
X142281250Y-87062500D01*
X142138392Y-86991071D01*
X141852678Y-86991071D01*
X141709821Y-87062500D01*
X141638392Y-87205357D01*
X141638392Y-87348214D01*
X142352678Y-87491071D01*
X139852678Y-86991071D02*
X139852678Y-88491071D01*
X139852678Y-87062500D02*
X139709821Y-86991071D01*
X139424107Y-86991071D01*
X139281250Y-87062500D01*
X139209821Y-87133928D01*
X139138392Y-87276785D01*
X139138392Y-87705357D01*
X139209821Y-87848214D01*
X139281250Y-87919642D01*
X139424107Y-87991071D01*
X139709821Y-87991071D01*
X139852678Y-87919642D01*
X138281250Y-87991071D02*
X138424107Y-87919642D01*
X138495535Y-87776785D01*
X138495535Y-86491071D01*
X137066964Y-87991071D02*
X137066964Y-87205357D01*
X137138392Y-87062500D01*
X137281250Y-86991071D01*
X137566964Y-86991071D01*
X137709821Y-87062500D01*
X137066964Y-87919642D02*
X137209821Y-87991071D01*
X137566964Y-87991071D01*
X137709821Y-87919642D01*
X137781250Y-87776785D01*
X137781250Y-87633928D01*
X137709821Y-87491071D01*
X137566964Y-87419642D01*
X137209821Y-87419642D01*
X137066964Y-87348214D01*
X136566964Y-86991071D02*
X135995535Y-86991071D01*
X136352678Y-86491071D02*
X136352678Y-87776785D01*
X136281250Y-87919642D01*
X136138392Y-87991071D01*
X135995535Y-87991071D01*
X134924107Y-87919642D02*
X135066964Y-87991071D01*
X135352678Y-87991071D01*
X135495535Y-87919642D01*
X135566964Y-87776785D01*
X135566964Y-87205357D01*
X135495535Y-87062500D01*
X135352678Y-86991071D01*
X135066964Y-86991071D01*
X134924107Y-87062500D01*
X134852678Y-87205357D01*
X134852678Y-87348214D01*
X135566964Y-87491071D01*
X169816964Y-68869642D02*
X169602678Y-68941071D01*
X169245535Y-68941071D01*
X169102678Y-68869642D01*
X169031250Y-68798214D01*
X168959821Y-68655357D01*
X168959821Y-68512500D01*
X169031250Y-68369642D01*
X169102678Y-68298214D01*
X169245535Y-68226785D01*
X169531250Y-68155357D01*
X169674107Y-68083928D01*
X169745535Y-68012500D01*
X169816964Y-67869642D01*
X169816964Y-67726785D01*
X169745535Y-67583928D01*
X169674107Y-67512500D01*
X169531250Y-67441071D01*
X169174107Y-67441071D01*
X168959821Y-67512500D01*
X168102678Y-68941071D02*
X168245535Y-68869642D01*
X168316964Y-68798214D01*
X168388392Y-68655357D01*
X168388392Y-68226785D01*
X168316964Y-68083928D01*
X168245535Y-68012500D01*
X168102678Y-67941071D01*
X167888392Y-67941071D01*
X167745535Y-68012500D01*
X167674107Y-68083928D01*
X167602678Y-68226785D01*
X167602678Y-68655357D01*
X167674107Y-68798214D01*
X167745535Y-68869642D01*
X167888392Y-68941071D01*
X168102678Y-68941071D01*
X167102678Y-67941071D02*
X166745535Y-68941071D01*
X166388392Y-67941071D02*
X166745535Y-68941071D01*
X166888392Y-69298214D01*
X166959821Y-69369642D01*
X167102678Y-69441071D01*
X165174107Y-67941071D02*
X165174107Y-68941071D01*
X165816964Y-67941071D02*
X165816964Y-68726785D01*
X165745535Y-68869642D01*
X165602678Y-68941071D01*
X165388392Y-68941071D01*
X165245535Y-68869642D01*
X165174107Y-68798214D01*
X164602678Y-67941071D02*
X163816964Y-67941071D01*
X164602678Y-68941071D01*
X163816964Y-68941071D01*
X162102678Y-68941071D02*
X162102678Y-67441071D01*
X161245535Y-68941071D01*
X161245535Y-67441071D01*
X159888392Y-67941071D02*
X159888392Y-68941071D01*
X160531250Y-67941071D02*
X160531250Y-68726785D01*
X160459821Y-68869642D01*
X160316964Y-68941071D01*
X160102678Y-68941071D01*
X159959821Y-68869642D01*
X159888392Y-68798214D01*
X159174107Y-68941071D02*
X159174107Y-67941071D01*
X159174107Y-68083928D02*
X159102678Y-68012500D01*
X158959821Y-67941071D01*
X158745535Y-67941071D01*
X158602678Y-68012500D01*
X158531250Y-68155357D01*
X158531250Y-68941071D01*
X158531250Y-68155357D02*
X158459821Y-68012500D01*
X158316964Y-67941071D01*
X158102678Y-67941071D01*
X157959821Y-68012500D01*
X157888392Y-68155357D01*
X157888392Y-68941071D01*
X157174107Y-67941071D02*
X157174107Y-69441071D01*
X157174107Y-68012500D02*
X157031250Y-67941071D01*
X156745535Y-67941071D01*
X156602678Y-68012500D01*
X156531250Y-68083928D01*
X156459821Y-68226785D01*
X156459821Y-68655357D01*
X156531250Y-68798214D01*
X156602678Y-68869642D01*
X156745535Y-68941071D01*
X157031250Y-68941071D01*
X157174107Y-68869642D01*
X155174107Y-68941071D02*
X155174107Y-68155357D01*
X155245535Y-68012500D01*
X155388392Y-67941071D01*
X155674107Y-67941071D01*
X155816964Y-68012500D01*
X155174107Y-68869642D02*
X155316964Y-68941071D01*
X155674107Y-68941071D01*
X155816964Y-68869642D01*
X155888392Y-68726785D01*
X155888392Y-68583928D01*
X155816964Y-68441071D01*
X155674107Y-68369642D01*
X155316964Y-68369642D01*
X155174107Y-68298214D01*
X153816964Y-68941071D02*
X153816964Y-67441071D01*
X153816964Y-68869642D02*
X153959821Y-68941071D01*
X154245535Y-68941071D01*
X154388392Y-68869642D01*
X154459821Y-68798214D01*
X154531250Y-68655357D01*
X154531250Y-68226785D01*
X154459821Y-68083928D01*
X154388392Y-68012500D01*
X154245535Y-67941071D01*
X153959821Y-67941071D01*
X153816964Y-68012500D01*
X151959821Y-68941071D02*
X151959821Y-67441071D01*
X151102678Y-68941071D02*
X151745535Y-68083928D01*
X151102678Y-67441071D02*
X151959821Y-68298214D01*
X150459821Y-68941071D02*
X150459821Y-67941071D01*
X150459821Y-67441071D02*
X150531250Y-67512500D01*
X150459821Y-67583928D01*
X150388392Y-67512500D01*
X150459821Y-67441071D01*
X150459821Y-67583928D01*
X149959821Y-67941071D02*
X149388392Y-67941071D01*
X149745535Y-67441071D02*
X149745535Y-68726785D01*
X149674107Y-68869642D01*
X149531250Y-68941071D01*
X149388392Y-68941071D01*
X146888392Y-68941071D02*
X147388392Y-68226785D01*
X147745535Y-68941071D02*
X147745535Y-67441071D01*
X147174107Y-67441071D01*
X147031250Y-67512500D01*
X146959821Y-67583928D01*
X146888392Y-67726785D01*
X146888392Y-67941071D01*
X146959821Y-68083928D01*
X147031250Y-68155357D01*
X147174107Y-68226785D01*
X147745535Y-68226785D01*
X145674107Y-68869642D02*
X145816964Y-68941071D01*
X146102678Y-68941071D01*
X146245535Y-68869642D01*
X146316964Y-68726785D01*
X146316964Y-68155357D01*
X146245535Y-68012500D01*
X146102678Y-67941071D01*
X145816964Y-67941071D01*
X145674107Y-68012500D01*
X145602678Y-68155357D01*
X145602678Y-68298214D01*
X146316964Y-68441071D01*
X145102678Y-67941071D02*
X144745535Y-68941071D01*
X144388392Y-67941071D01*
X141888392Y-68941071D02*
X142745535Y-68941071D01*
X142316964Y-68941071D02*
X142316964Y-67441071D01*
X142459821Y-67655357D01*
X142602678Y-67798214D01*
X142745535Y-67869642D01*
X141245535Y-68798214D02*
X141174107Y-68869642D01*
X141245535Y-68941071D01*
X141316964Y-68869642D01*
X141245535Y-68798214D01*
X141245535Y-68941071D01*
X140245535Y-67441071D02*
X140102678Y-67441071D01*
X139959821Y-67512500D01*
X139888392Y-67583928D01*
X139816964Y-67726785D01*
X139745535Y-68012500D01*
X139745535Y-68369642D01*
X139816964Y-68655357D01*
X139888392Y-68798214D01*
X139959821Y-68869642D01*
X140102678Y-68941071D01*
X140245535Y-68941071D01*
X140388392Y-68869642D01*
X140459821Y-68798214D01*
X140531250Y-68655357D01*
X140602678Y-68369642D01*
X140602678Y-68012500D01*
X140531250Y-67726785D01*
X140459821Y-67583928D01*
X140388392Y-67512500D01*
X140245535Y-67441071D01*
M02*
