G04 #@! TF.GenerationSoftware,KiCad,Pcbnew,5.1.10-5.1.10*
G04 #@! TF.CreationDate,2021-07-11T16:51:32+05:30*
G04 #@! TF.ProjectId,Soyuz_top,536f7975-7a5f-4746-9f70-2e6b69636164,rev?*
G04 #@! TF.SameCoordinates,Original*
G04 #@! TF.FileFunction,Profile,NP*
%FSLAX46Y46*%
G04 Gerber Fmt 4.6, Leading zero omitted, Abs format (unit mm)*
G04 Created by KiCad (PCBNEW 5.1.10-5.1.10) date 2021-07-11 16:51:32*
%MOMM*%
%LPD*%
G01*
G04 APERTURE LIST*
G04 #@! TA.AperFunction,Profile*
%ADD10C,0.200000*%
G04 #@! TD*
G04 APERTURE END LIST*
D10*
X171085000Y-33125000D02*
X171085000Y-46125000D01*
X197810000Y-26100000D02*
G75*
G03*
X197810000Y-26100000I-1150000J0D01*
G01*
X113610000Y-129350000D02*
G75*
G03*
X113610000Y-129350000I-1150000J0D01*
G01*
X113610000Y-26100000D02*
G75*
G03*
X113610000Y-26100000I-1150000J0D01*
G01*
X197810000Y-129350000D02*
G75*
G03*
X197810000Y-129350000I-1150000J0D01*
G01*
X157585000Y-32625000D02*
X170585000Y-32625000D01*
X108460000Y-110475000D02*
X108460000Y-53325000D01*
X174635000Y-97862000D02*
X175635000Y-97862000D01*
X175635000Y-114738000D02*
X174635000Y-114738000D01*
X174135000Y-115238000D02*
X174135000Y-121238000D01*
X174635000Y-121738000D02*
X175635000Y-121738000D01*
X174135000Y-91362000D02*
X174135000Y-97362000D01*
X176135000Y-98362000D02*
X176135000Y-114238000D01*
X152035000Y-103275000D02*
X152035000Y-90275000D01*
X170585000Y-51675000D02*
X157585000Y-51675000D01*
X151535000Y-89775000D02*
X138535000Y-89775000D01*
X157085000Y-52175000D02*
X157085000Y-65175000D01*
X118985000Y-90275000D02*
X118985000Y-103275000D01*
X138035000Y-90275000D02*
X138035000Y-103275000D01*
X157085000Y-46125000D02*
X157085000Y-33125000D01*
X132485000Y-89775000D02*
X119485000Y-89775000D01*
X170585000Y-46625000D02*
X157585000Y-46625000D01*
X119485000Y-103775000D02*
X132485000Y-103775000D01*
X132985000Y-103275000D02*
X132985000Y-90275000D01*
X138535000Y-103775000D02*
X151535000Y-103775000D01*
X112460000Y-22100000D02*
X196660000Y-22100000D01*
X108460000Y-53325000D02*
X108460000Y-26100000D01*
X196660000Y-133350000D02*
X112460000Y-133350000D01*
X200660000Y-26100000D02*
X200660000Y-129350000D01*
X143448000Y-108825000D02*
X127572000Y-108825000D01*
X108460000Y-129350000D02*
X108460000Y-110475000D01*
X120072000Y-107325000D02*
X120072000Y-108325000D01*
X126572000Y-106825000D02*
X120572000Y-106825000D01*
X119572000Y-108825000D02*
X119485000Y-108825000D01*
X118985000Y-109325000D02*
X118985000Y-122325000D01*
X119485000Y-122825000D02*
X151535000Y-122825000D01*
X127072000Y-108325000D02*
X127072000Y-107325000D01*
X176635000Y-84725000D02*
X189635000Y-84725000D01*
X189635000Y-51675000D02*
X176635000Y-51675000D01*
X176135000Y-52175000D02*
X176135000Y-52262000D01*
X175635000Y-90862000D02*
X174635000Y-90862000D01*
X190135000Y-84225000D02*
X190135000Y-52175000D01*
X175635000Y-76638000D02*
X174635000Y-76638000D01*
X176135000Y-84138000D02*
X176135000Y-84225000D01*
X176135000Y-60262000D02*
X176135000Y-76138000D01*
X174135000Y-77138000D02*
X174135000Y-83138000D01*
X174635000Y-83638000D02*
X175635000Y-83638000D01*
X174635000Y-59762000D02*
X175635000Y-59762000D01*
X150448000Y-106825000D02*
X144448000Y-106825000D01*
X150948000Y-108325000D02*
X150948000Y-107325000D01*
X152035000Y-122325000D02*
X152035000Y-109325000D01*
X143948000Y-107325000D02*
X143948000Y-108325000D01*
X151535000Y-108825000D02*
X151448000Y-108825000D01*
X175635000Y-52762000D02*
X174635000Y-52762000D01*
X174135000Y-53262000D02*
X174135000Y-59262000D01*
X176635000Y-122825000D02*
X189635000Y-122825000D01*
X189635000Y-89775000D02*
X176635000Y-89775000D01*
X190135000Y-122325000D02*
X190135000Y-90275000D01*
X176135000Y-90275000D02*
X176135000Y-90362000D01*
X176135000Y-122238000D02*
X176135000Y-122325000D01*
X151535000Y-32625000D02*
X138535000Y-32625000D01*
X118985000Y-71225000D02*
X118985000Y-84225000D01*
X152035000Y-84225000D02*
X152035000Y-71225000D01*
X119485000Y-84725000D02*
X132485000Y-84725000D01*
X157085000Y-109325000D02*
X157085000Y-122325000D01*
X171085000Y-122325000D02*
X171085000Y-109325000D01*
X118985000Y-65175000D02*
X118985000Y-52175000D01*
X132485000Y-65675000D02*
X119485000Y-65675000D01*
X132485000Y-70725000D02*
X119485000Y-70725000D01*
X138035000Y-33125000D02*
X138035000Y-46125000D01*
X157585000Y-122825000D02*
X170585000Y-122825000D01*
X138535000Y-46625000D02*
X151535000Y-46625000D01*
X132985000Y-52175000D02*
X132985000Y-65175000D01*
X119485000Y-51675000D02*
X132485000Y-51675000D01*
X132985000Y-84225000D02*
X132985000Y-71225000D01*
X152035000Y-46125000D02*
X152035000Y-33125000D01*
X151535000Y-70725000D02*
X138535000Y-70725000D01*
X138535000Y-84725000D02*
X151535000Y-84725000D01*
X138035000Y-71225000D02*
X138035000Y-84225000D01*
X157085000Y-90275000D02*
X157085000Y-103275000D01*
X132985000Y-46125000D02*
X132985000Y-33125000D01*
X157585000Y-103775000D02*
X170585000Y-103775000D01*
X170585000Y-70725000D02*
X157585000Y-70725000D01*
X189635000Y-32625000D02*
X176635000Y-32625000D01*
X171085000Y-65175000D02*
X171085000Y-52175000D01*
X171085000Y-103275000D02*
X171085000Y-90275000D01*
X170585000Y-108825000D02*
X157585000Y-108825000D01*
X132485000Y-32625000D02*
X119485000Y-32625000D01*
X157585000Y-65675000D02*
X170585000Y-65675000D01*
X176135000Y-33125000D02*
X176135000Y-46125000D01*
X157085000Y-71225000D02*
X157085000Y-84225000D01*
X138035000Y-52175000D02*
X138035000Y-65175000D01*
X138535000Y-65675000D02*
X151535000Y-65675000D01*
X152035000Y-65175000D02*
X152035000Y-52175000D01*
X119485000Y-46625000D02*
X132485000Y-46625000D01*
X151535000Y-51675000D02*
X138535000Y-51675000D01*
X157585000Y-84725000D02*
X170585000Y-84725000D01*
X171085000Y-84225000D02*
X171085000Y-71225000D01*
X176635000Y-46625000D02*
X189635000Y-46625000D01*
X170585000Y-89775000D02*
X157585000Y-89775000D01*
X118985000Y-33125000D02*
X118985000Y-46125000D01*
X190135000Y-46125000D02*
X190135000Y-33125000D01*
X170585000Y-51675000D02*
G75*
G02*
X171085000Y-52175000I0J-500000D01*
G01*
X157085000Y-90275000D02*
G75*
G02*
X157585000Y-89775000I500000J0D01*
G01*
X118985000Y-33125000D02*
G75*
G02*
X119485000Y-32625000I500000J0D01*
G01*
X190135000Y-46125000D02*
G75*
G02*
X189635000Y-46625000I-500000J0D01*
G01*
X157585000Y-65675000D02*
G75*
G02*
X157085000Y-65175000I0J500000D01*
G01*
X176635000Y-46625000D02*
G75*
G02*
X176135000Y-46125000I0J500000D01*
G01*
X152035000Y-65175000D02*
G75*
G02*
X151535000Y-65675000I-500000J0D01*
G01*
X176135000Y-33125000D02*
G75*
G02*
X176635000Y-32625000I500000J0D01*
G01*
X171085000Y-84225000D02*
G75*
G02*
X170585000Y-84725000I-500000J0D01*
G01*
X157085000Y-71225000D02*
G75*
G02*
X157585000Y-70725000I500000J0D01*
G01*
X170585000Y-70725000D02*
G75*
G02*
X171085000Y-71225000I0J-500000D01*
G01*
X189635000Y-32625000D02*
G75*
G02*
X190135000Y-33125000I0J-500000D01*
G01*
X138035000Y-52175000D02*
G75*
G02*
X138535000Y-51675000I500000J0D01*
G01*
X170585000Y-89775000D02*
G75*
G02*
X171085000Y-90275000I0J-500000D01*
G01*
X132485000Y-32625000D02*
G75*
G02*
X132985000Y-33125000I0J-500000D01*
G01*
X132985000Y-46125000D02*
G75*
G02*
X132485000Y-46625000I-500000J0D01*
G01*
X151535000Y-51675000D02*
G75*
G02*
X152035000Y-52175000I0J-500000D01*
G01*
X171085000Y-103275000D02*
G75*
G02*
X170585000Y-103775000I-500000J0D01*
G01*
X138535000Y-65675000D02*
G75*
G02*
X138035000Y-65175000I0J500000D01*
G01*
X171085000Y-65175000D02*
G75*
G02*
X170585000Y-65675000I-500000J0D01*
G01*
X119485000Y-46625000D02*
G75*
G02*
X118985000Y-46125000I0J500000D01*
G01*
X157585000Y-84725000D02*
G75*
G02*
X157085000Y-84225000I0J500000D01*
G01*
X157585000Y-103775000D02*
G75*
G02*
X157085000Y-103275000I0J500000D01*
G01*
X138535000Y-46625000D02*
G75*
G02*
X138035000Y-46125000I0J500000D01*
G01*
X118985000Y-71225000D02*
G75*
G02*
X119485000Y-70725000I500000J0D01*
G01*
X151535000Y-70725000D02*
G75*
G02*
X152035000Y-71225000I0J-500000D01*
G01*
X152035000Y-84225000D02*
G75*
G02*
X151535000Y-84725000I-500000J0D01*
G01*
X170585000Y-108825000D02*
G75*
G02*
X171085000Y-109325000I0J-500000D01*
G01*
X138035000Y-33125000D02*
G75*
G02*
X138535000Y-32625000I500000J0D01*
G01*
X132985000Y-65175000D02*
G75*
G02*
X132485000Y-65675000I-500000J0D01*
G01*
X171085000Y-122325000D02*
G75*
G02*
X170585000Y-122825000I-500000J0D01*
G01*
X152035000Y-46125000D02*
G75*
G02*
X151535000Y-46625000I-500000J0D01*
G01*
X132485000Y-51675000D02*
G75*
G02*
X132985000Y-52175000I0J-500000D01*
G01*
X119485000Y-65675000D02*
G75*
G02*
X118985000Y-65175000I0J500000D01*
G01*
X157085000Y-109325000D02*
G75*
G02*
X157585000Y-108825000I500000J0D01*
G01*
X132485000Y-70725000D02*
G75*
G02*
X132985000Y-71225000I0J-500000D01*
G01*
X138535000Y-84725000D02*
G75*
G02*
X138035000Y-84225000I0J500000D01*
G01*
X151535000Y-32625000D02*
G75*
G02*
X152035000Y-33125000I0J-500000D01*
G01*
X119485000Y-84725000D02*
G75*
G02*
X118985000Y-84225000I0J500000D01*
G01*
X132985000Y-84225000D02*
G75*
G02*
X132485000Y-84725000I-500000J0D01*
G01*
X118985000Y-52175000D02*
G75*
G02*
X119485000Y-51675000I500000J0D01*
G01*
X157585000Y-122825000D02*
G75*
G02*
X157085000Y-122325000I0J500000D01*
G01*
X138035000Y-71225000D02*
G75*
G02*
X138535000Y-70725000I500000J0D01*
G01*
X189635000Y-89775000D02*
G75*
G02*
X190135000Y-90275000I0J-500000D01*
G01*
X190135000Y-122325000D02*
G75*
G02*
X189635000Y-122825000I-500000J0D01*
G01*
X127572000Y-108825000D02*
G75*
G02*
X127072000Y-108325000I0J500000D01*
G01*
X175635000Y-121738000D02*
G75*
G02*
X176135000Y-122238000I0J-500000D01*
G01*
X176635000Y-122825000D02*
G75*
G02*
X176135000Y-122325000I0J500000D01*
G01*
X176135000Y-90275000D02*
G75*
G02*
X176635000Y-89775000I500000J0D01*
G01*
X176135000Y-52262000D02*
G75*
G02*
X175635000Y-52762000I-500000J0D01*
G01*
X174635000Y-59762000D02*
G75*
G02*
X174135000Y-59262000I0J500000D01*
G01*
X174135000Y-53262000D02*
G75*
G02*
X174635000Y-52762000I500000J0D01*
G01*
X150448000Y-106825000D02*
G75*
G02*
X150948000Y-107325000I0J-500000D01*
G01*
X143948000Y-108325000D02*
G75*
G02*
X143448000Y-108825000I-500000J0D01*
G01*
X151448000Y-108825000D02*
G75*
G02*
X150948000Y-108325000I0J500000D01*
G01*
X143948000Y-107325000D02*
G75*
G02*
X144448000Y-106825000I500000J0D01*
G01*
X151535000Y-108825000D02*
G75*
G02*
X152035000Y-109325000I0J-500000D01*
G01*
X152035000Y-122325000D02*
G75*
G02*
X151535000Y-122825000I-500000J0D01*
G01*
X174635000Y-83638000D02*
G75*
G02*
X174135000Y-83138000I0J500000D01*
G01*
X176135000Y-76138000D02*
G75*
G02*
X175635000Y-76638000I-500000J0D01*
G01*
X175635000Y-83638000D02*
G75*
G02*
X176135000Y-84138000I0J-500000D01*
G01*
X174135000Y-77138000D02*
G75*
G02*
X174635000Y-76638000I500000J0D01*
G01*
X175635000Y-59762000D02*
G75*
G02*
X176135000Y-60262000I0J-500000D01*
G01*
X176635000Y-84725000D02*
G75*
G02*
X176135000Y-84225000I0J500000D01*
G01*
X190135000Y-84225000D02*
G75*
G02*
X189635000Y-84725000I-500000J0D01*
G01*
X176135000Y-52175000D02*
G75*
G02*
X176635000Y-51675000I500000J0D01*
G01*
X174135000Y-91362000D02*
G75*
G02*
X174635000Y-90862000I500000J0D01*
G01*
X176135000Y-90362000D02*
G75*
G02*
X175635000Y-90862000I-500000J0D01*
G01*
X189635000Y-51675000D02*
G75*
G02*
X190135000Y-52175000I0J-500000D01*
G01*
X126572000Y-106825000D02*
G75*
G02*
X127072000Y-107325000I0J-500000D01*
G01*
X120072000Y-107325000D02*
G75*
G02*
X120572000Y-106825000I500000J0D01*
G01*
X118985000Y-109325000D02*
G75*
G02*
X119485000Y-108825000I500000J0D01*
G01*
X119485000Y-122825000D02*
G75*
G02*
X118985000Y-122325000I0J500000D01*
G01*
X120072000Y-108325000D02*
G75*
G02*
X119572000Y-108825000I-500000J0D01*
G01*
X196660000Y-22100000D02*
G75*
G02*
X200660000Y-26100000I0J-4000000D01*
G01*
X112460000Y-133350000D02*
G75*
G02*
X108460000Y-129350000I0J4000000D01*
G01*
X108460000Y-26100000D02*
G75*
G02*
X112460000Y-22100000I4000000J0D01*
G01*
X200660000Y-129350000D02*
G75*
G02*
X196660000Y-133350000I-4000000J0D01*
G01*
X138535000Y-103775000D02*
G75*
G02*
X138035000Y-103275000I0J500000D01*
G01*
X157585000Y-46625000D02*
G75*
G02*
X157085000Y-46125000I0J500000D01*
G01*
X152035000Y-103275000D02*
G75*
G02*
X151535000Y-103775000I-500000J0D01*
G01*
X132985000Y-103275000D02*
G75*
G02*
X132485000Y-103775000I-500000J0D01*
G01*
X171085000Y-46125000D02*
G75*
G02*
X170585000Y-46625000I-500000J0D01*
G01*
X132485000Y-89775000D02*
G75*
G02*
X132985000Y-90275000I0J-500000D01*
G01*
X118985000Y-90275000D02*
G75*
G02*
X119485000Y-89775000I500000J0D01*
G01*
X138035000Y-90275000D02*
G75*
G02*
X138535000Y-89775000I500000J0D01*
G01*
X157085000Y-52175000D02*
G75*
G02*
X157585000Y-51675000I500000J0D01*
G01*
X151535000Y-89775000D02*
G75*
G02*
X152035000Y-90275000I0J-500000D01*
G01*
X119485000Y-103775000D02*
G75*
G02*
X118985000Y-103275000I0J500000D01*
G01*
X175635000Y-97862000D02*
G75*
G02*
X176135000Y-98362000I0J-500000D01*
G01*
X174635000Y-121738000D02*
G75*
G02*
X174135000Y-121238000I0J500000D01*
G01*
X174135000Y-115238000D02*
G75*
G02*
X174635000Y-114738000I500000J0D01*
G01*
X176135000Y-114238000D02*
G75*
G02*
X175635000Y-114738000I-500000J0D01*
G01*
X174635000Y-97862000D02*
G75*
G02*
X174135000Y-97362000I0J500000D01*
G01*
X170585000Y-32625000D02*
G75*
G02*
X171085000Y-33125000I0J-500000D01*
G01*
X157085000Y-33125000D02*
G75*
G02*
X157585000Y-32625000I500000J0D01*
G01*
M02*
